<svg xmlns="http://www.w3.org/2000/svg" width="3145" height="950.00012" viewBox="0 0 3145 950.00012"><defs><style>.a{fill:#1d76bb;}.b{fill:#a7a9ac;}.c,.l{fill:#039447;}.d{fill:#f69320;}.e{fill:#1e76ba;}.f{fill:#231f20;}.g,.h,.n{fill:none;}.g,.h,.k,.l,.m,.n{stroke:#231f20;stroke-miterlimit:10;stroke-width:5px;}.h{stroke-linecap:round;}.i,.m{fill:#f69321;}.j{fill:#010101;}.k{fill:#1f76b9;}.n{stroke-dasharray:11.87342 11.87342;}</style></defs><path class="a" d="M105.21,908.50952v.00009l-4.98074-8.62677V862.6045h-7.827v12.20522h3.22363a1.04556,1.04556,0,0,1,1.04552,1.04552v0a1.04556,1.04556,0,0,1-1.04552,1.04552H92.40228v3.6158h3.22363a1.04554,1.04554,0,0,1,0,2.09108H92.40228v3.61584h3.22363a1.04554,1.04554,0,0,1,0,2.09108H92.40228v11.56755l-4.98092,8.62737v-.00039l-9.70794,16.815a1.42309,1.42309,0,0,0,1.23235,2.13464h34.74a1.42309,1.42309,0,0,0,1.23235-2.13464Z"/><path class="b" d="M179.72018,846.64629H12.91147a4.98642,4.98642,0,0,0-4.98083,4.98083v86.80872a4.98664,4.98664,0,0,0,4.98083,4.98082H179.72018a4.98687,4.98687,0,0,0,4.98083-4.98082V851.62712A4.98665,4.98665,0,0,0,179.72018,846.64629Zm-66.03452,85.793H78.94573a6.40392,6.40392,0,0,1-5.54593-9.60589l14.02156-24.28609V862.6045a2.49042,2.49042,0,0,1,0-4.98083H105.21a2.49042,2.49042,0,1,1,0,4.98083v35.94285l14.02157,24.28609A6.40393,6.40393,0,0,1,113.68566,932.43933Z"/><path class="b" d="M67.85384,811.66547c0,1.17309.07147,21.47808.21,30.30822v.01581H62.34554c-.11811-8.82294-.184-29.1543-.184-30.32416a34.15424,34.15424,0,0,1,68.30847,0h-5.69251a28.46185,28.46185,0,1,0-56.9237.00013Z"/><path d="M179.72006,841.66536H12.91134A9.96165,9.96165,0,0,0,2.94969,851.627v86.80872a9.96165,9.96165,0,0,0,9.96165,9.96165H179.72006a9.96164,9.96164,0,0,0,9.96165-9.96165V851.627A9.96164,9.96164,0,0,0,179.72006,841.66536Zm4.981,96.77051a4.98687,4.98687,0,0,1-4.98083,4.98083H12.91147a4.98665,4.98665,0,0,1-4.98082-4.98083V851.62715a4.98642,4.98642,0,0,1,4.98082-4.98083H179.72019a4.98665,4.98665,0,0,1,4.98083,4.98083Z"/><polygon points="105.21 908.51 105.21 861.131 100.229 861.131 100.229 899.883 105.21 908.51"/><polygon points="92.402 899.882 92.402 861.131 87.421 861.131 87.421 908.51 92.402 899.882"/><path d="M119.2316,922.83347l-17.36992-30.08566a6.39813,6.39813,0,0,0-1.63238-1.86981v9.00482l14.68885,25.44137a1.4231,1.4231,0,0,1-1.23235,2.13464h-34.74a1.4231,1.4231,0,0,1-1.23236-2.13464l14.68886-25.44241v-9.00391a6.39774,6.39774,0,0,0-1.63255,1.86994L73.3998,922.83347a6.40391,6.40391,0,0,0,5.54593,9.60588h34.73994A6.40391,6.40391,0,0,0,119.2316,922.83347Z"/><rect x="90.2676" y="886.22353" width="6.40382" height="2.09108" rx="0.25672"/><rect x="90.2676" y="880.51663" width="6.40382" height="2.09108" rx="0.25672"/><rect x="90.2676" y="874.80973" width="6.40382" height="2.09108" rx="0.25672"/><rect x="84.93095" y="857.62367" width="22.7695" height="4.98083" rx="0.61149"/><path class="c" d="M50.21,908.50952v.00009l-4.98074-8.62677V862.6045h-7.827v12.20522h3.22363a1.04556,1.04556,0,0,1,1.04552,1.04552v0a1.04556,1.04556,0,0,1-1.04552,1.04552H37.40228v3.6158h3.22363a1.04554,1.04554,0,0,1,0,2.09108H37.40228v3.61584h3.22363a1.04554,1.04554,0,0,1,0,2.09108H37.40228v11.56755l-4.98092,8.62737v-.00039l-9.70794,16.815a1.42309,1.42309,0,0,0,1.23235,2.13464h34.74a1.42309,1.42309,0,0,0,1.23235-2.13464Z"/><polygon points="50.21 908.51 50.21 861.131 45.229 861.131 45.229 899.883 50.21 908.51"/><polygon points="37.402 899.882 37.402 861.131 32.421 861.131 32.421 908.51 37.402 899.882"/><path d="M64.2316,922.83347,46.86168,892.74781A6.39813,6.39813,0,0,0,45.2293,890.878v9.00482l14.68885,25.44137a1.4231,1.4231,0,0,1-1.23235,2.13464h-34.74a1.4231,1.4231,0,0,1-1.23236-2.13464l14.68886-25.44241v-9.00391a6.39774,6.39774,0,0,0-1.63255,1.86994L18.3998,922.83347a6.40391,6.40391,0,0,0,5.54593,9.60588H58.68567A6.40391,6.40391,0,0,0,64.2316,922.83347Z"/><rect x="35.2676" y="886.22353" width="6.40382" height="2.09108" rx="0.25672"/><rect x="35.2676" y="880.51663" width="6.40382" height="2.09108" rx="0.25672"/><rect x="35.2676" y="874.80973" width="6.40382" height="2.09108" rx="0.25672"/><rect x="29.93095" y="857.62367" width="22.7695" height="4.98083" rx="0.61149"/><path class="d" d="M160.21,908.50952v.00009l-4.98074-8.62677V862.6045h-7.827v12.20522h3.22363a1.04556,1.04556,0,0,1,1.04552,1.04552v0a1.04556,1.04556,0,0,1-1.04552,1.04552h-3.22363v3.6158h3.22363a1.04554,1.04554,0,0,1,0,2.09108h-3.22363v3.61584h3.22363a1.04554,1.04554,0,0,1,0,2.09108h-3.22363v11.56755l-4.98092,8.62737v-.00039l-9.70794,16.815a1.42309,1.42309,0,0,0,1.23235,2.13464h34.74a1.42309,1.42309,0,0,0,1.23235-2.13464Z"/><polygon points="160.21 908.51 160.21 861.131 155.229 861.131 155.229 899.883 160.21 908.51"/><polygon points="147.402 899.882 147.402 861.131 142.421 861.131 142.421 908.51 147.402 899.882"/><path d="M174.2316,922.83347l-17.36992-30.08566a6.39813,6.39813,0,0,0-1.63238-1.86981v9.00482l14.68885,25.44137a1.4231,1.4231,0,0,1-1.23235,2.13464h-34.74a1.4231,1.4231,0,0,1-1.23236-2.13464l14.68886-25.44241v-9.00391a6.39774,6.39774,0,0,0-1.63255,1.86994L128.3998,922.83347a6.40391,6.40391,0,0,0,5.54593,9.60588h34.73994A6.40391,6.40391,0,0,0,174.2316,922.83347Z"/><rect x="145.2676" y="886.22353" width="6.40382" height="2.09108" rx="0.25672"/><rect x="145.2676" y="880.51663" width="6.40382" height="2.09108" rx="0.25672"/><rect x="145.2676" y="874.80973" width="6.40382" height="2.09108" rx="0.25672"/><rect x="139.93095" y="857.62367" width="22.7695" height="4.98083" rx="0.61149"/><path d="M124.77761,811.66534a28.46189,28.46189,0,0,0-56.92377,0c0,1.46668.11181,32.90778.32684,34.31531h5.05841c-.26123-1.39984-.40429-32.84076-.40429-34.31518a23.481,23.481,0,0,1,46.96209,0v4.34924h15.65387v-4.34937a39.13507,39.13507,0,0,0-78.27014,0c0,1.45917.08637,32.89765.24194,34.31531H62.4438c-.17932-1.41461-.28222-32.85266-.28222-34.31518a34.15427,34.15427,0,0,1,68.30853,0Z"/><path class="a" d="M904.39274,908.50952v.00009l-4.98074-8.62677V862.6045h-7.827v12.20522h3.22363a1.04556,1.04556,0,0,1,1.04552,1.04552v0a1.04556,1.04556,0,0,1-1.04552,1.04552H891.585v3.6158h3.22363a1.04554,1.04554,0,0,1,0,2.09108H891.585v3.61584h3.22363a1.04554,1.04554,0,0,1,0,2.09108H891.585v11.56755l-4.98092,8.62737v-.00039l-9.70794,16.815a1.42309,1.42309,0,0,0,1.23235,2.13464h34.74a1.42309,1.42309,0,0,0,1.23235-2.13464Z"/><path class="b" d="M978.9029,846.64629H812.09418a4.98643,4.98643,0,0,0-4.98083,4.98083v86.80872a4.98665,4.98665,0,0,0,4.98083,4.98082H978.9029a4.98686,4.98686,0,0,0,4.98082-4.98082V851.62712A4.98665,4.98665,0,0,0,978.9029,846.64629Zm-66.03452,85.793H878.12844a6.40392,6.40392,0,0,1-5.54593-9.60589l14.02156-24.28609V862.6045a2.49042,2.49042,0,0,1,0-4.98083h17.78867a2.49041,2.49041,0,1,1,0,4.98083v35.94285l14.02157,24.28609A6.40392,6.40392,0,0,1,912.86838,932.43933Z"/><path class="b" d="M867.03655,811.66547c0,1.17309.07147,21.47808.21,30.30822v.01581h-5.71826c-.1181-8.82294-.184-29.1543-.184-30.32416a34.15424,34.15424,0,0,1,68.30847,0h-5.6925a28.46186,28.46186,0,1,0-56.92371.00013Z"/><path d="M978.90277,841.66536H812.09405a9.96165,9.96165,0,0,0-9.96165,9.96166v86.80872a9.96165,9.96165,0,0,0,9.96165,9.96165H978.90277a9.96165,9.96165,0,0,0,9.96166-9.96165V851.627A9.96165,9.96165,0,0,0,978.90277,841.66536Zm4.981,96.77051a4.98687,4.98687,0,0,1-4.98083,4.98083H812.09419a4.98665,4.98665,0,0,1-4.98083-4.98083V851.62715a4.98642,4.98642,0,0,1,4.98083-4.98083H978.9029a4.98665,4.98665,0,0,1,4.98083,4.98083Z"/><polygon points="904.393 908.51 904.393 861.131 899.412 861.131 899.412 899.883 904.393 908.51"/><polygon points="891.585 899.882 891.585 861.131 886.604 861.131 886.604 908.51 891.585 899.882"/><path d="M918.41431,922.83347l-17.36992-30.08566A6.39813,6.39813,0,0,0,899.412,890.878v9.00482l14.68885,25.44137a1.4231,1.4231,0,0,1-1.23235,2.13464h-34.74a1.4231,1.4231,0,0,1-1.23235-2.13464L891.585,899.88178v-9.00391a6.398,6.398,0,0,0-1.63255,1.86994l-17.36993,30.08566a6.40392,6.40392,0,0,0,5.54593,9.60588h34.73994A6.40391,6.40391,0,0,0,918.41431,922.83347Z"/><rect x="889.45031" y="886.22353" width="6.40382" height="2.09108" rx="0.25672"/><rect x="889.45031" y="880.51663" width="6.40382" height="2.09108" rx="0.25672"/><rect x="889.45031" y="874.80973" width="6.40382" height="2.09108" rx="0.25672"/><rect x="884.11366" y="857.62367" width="22.7695" height="4.98083" rx="0.61149"/><path class="c" d="M849.39274,908.50952v.00009l-4.98074-8.62677V862.6045h-7.827v12.20522h3.22363a1.04556,1.04556,0,0,1,1.04552,1.04552v0a1.04556,1.04556,0,0,1-1.04552,1.04552H836.585v3.6158h3.22363a1.04554,1.04554,0,0,1,0,2.09108H836.585v3.61584h3.22363a1.04554,1.04554,0,0,1,0,2.09108H836.585v11.56755l-4.98092,8.62737v-.00039l-9.70794,16.815a1.42309,1.42309,0,0,0,1.23235,2.13464h34.74a1.42309,1.42309,0,0,0,1.23235-2.13464Z"/><polygon points="849.393 908.51 849.393 861.131 844.412 861.131 844.412 899.883 849.393 908.51"/><polygon points="836.585 899.882 836.585 861.131 831.604 861.131 831.604 908.51 836.585 899.882"/><path d="M863.41431,922.83347l-17.36992-30.08566A6.39813,6.39813,0,0,0,844.412,890.878v9.00482l14.68885,25.44137a1.4231,1.4231,0,0,1-1.23235,2.13464h-34.74a1.4231,1.4231,0,0,1-1.23235-2.13464L836.585,899.88178v-9.00391a6.398,6.398,0,0,0-1.63255,1.86994l-17.36993,30.08566a6.40392,6.40392,0,0,0,5.54593,9.60588h34.73994A6.40391,6.40391,0,0,0,863.41431,922.83347Z"/><rect x="834.45031" y="886.22353" width="6.40382" height="2.09108" rx="0.25672"/><rect x="834.45031" y="880.51663" width="6.40382" height="2.09108" rx="0.25672"/><rect x="834.45031" y="874.80973" width="6.40382" height="2.09108" rx="0.25672"/><rect x="829.11366" y="857.62367" width="22.7695" height="4.98083" rx="0.61149"/><path class="d" d="M959.39274,908.50952v.00009l-4.98074-8.62677V862.6045h-7.827v12.20522h3.22363a1.04556,1.04556,0,0,1,1.04552,1.04552v0a1.04556,1.04556,0,0,1-1.04552,1.04552H946.585v3.6158h3.22363a1.04554,1.04554,0,0,1,0,2.09108H946.585v3.61584h3.22363a1.04554,1.04554,0,0,1,0,2.09108H946.585v11.56755l-4.98092,8.62737v-.00039l-9.70794,16.815a1.42309,1.42309,0,0,0,1.23235,2.13464h34.74a1.42309,1.42309,0,0,0,1.23235-2.13464Z"/><polygon points="959.393 908.51 959.393 861.131 954.412 861.131 954.412 899.883 959.393 908.51"/><polygon points="946.585 899.882 946.585 861.131 941.604 861.131 941.604 908.51 946.585 899.882"/><path d="M973.41431,922.83347l-17.36992-30.08566A6.39813,6.39813,0,0,0,954.412,890.878v9.00482l14.68885,25.44137a1.4231,1.4231,0,0,1-1.23235,2.13464h-34.74a1.4231,1.4231,0,0,1-1.23235-2.13464L946.585,899.88178v-9.00391a6.398,6.398,0,0,0-1.63255,1.86994l-17.36993,30.08566a6.40392,6.40392,0,0,0,5.54593,9.60588h34.73994A6.40391,6.40391,0,0,0,973.41431,922.83347Z"/><rect x="944.45031" y="886.22353" width="6.40382" height="2.09108" rx="0.25672"/><rect x="944.45031" y="880.51663" width="6.40382" height="2.09108" rx="0.25672"/><rect x="944.45031" y="874.80973" width="6.40382" height="2.09108" rx="0.25672"/><rect x="939.11366" y="857.62367" width="22.7695" height="4.98083" rx="0.61149"/><path d="M923.96032,811.66534a28.46189,28.46189,0,0,0-56.92377,0c0,1.46668.11182,32.90778.32684,34.31531h5.05841c-.26123-1.39984-.40429-32.84076-.40429-34.31518a23.481,23.481,0,0,1,46.96209,0v4.34924h15.65387v-4.34937a39.13507,39.13507,0,0,0-78.27014,0c0,1.45917.08637,32.89765.24195,34.31531h5.02124c-.17933-1.41461-.28223-32.85266-.28223-34.31518a34.15427,34.15427,0,0,1,68.30853,0Z"/><rect class="e" x="155.44822" y="604.32117" width="139.32666" height="99.32617" rx="9.5"/><path class="f" d="M285.27491,606.82068a7.00788,7.00788,0,0,1,7,7v80.32654a7.00788,7.00788,0,0,1-7,7H164.94841a7.00788,7.00788,0,0,1-7-7V613.82068a7.00788,7.00788,0,0,1,7-7h120.3265m0-5H164.94841a12.03529,12.03529,0,0,0-12,12v80.32654a12.03529,12.03529,0,0,0,12,12h120.3265a12.03529,12.03529,0,0,0,12-12V613.82068a12.03529,12.03529,0,0,0-12-12Z"/><line class="g" x1="225.11166" y1="706.14722" x2="225.11166" y2="713.74144"/><path class="f" d="M259.39741,716.24168H190.82612a2.5,2.5,0,0,1,0-5h68.57129a2.5,2.5,0,0,1,0,5Z"/><rect class="e" x="310.75437" y="605.00281" width="47.89795" height="108.44141" rx="9.5"/><path class="f" d="M349.15248,607.50317a7.0079,7.0079,0,0,1,7,7v89.44117a7.0079,7.0079,0,0,1-7,7h-28.898a7.0079,7.0079,0,0,1-7-7V614.50317a7.0079,7.0079,0,0,1,7-7h28.898m0-5h-28.898a12.03529,12.03529,0,0,0-12,12v89.44117a12.03529,12.03529,0,0,0,12,12h28.898a12.0353,12.0353,0,0,0,12-12V614.50317a12.0353,12.0353,0,0,0-12-12Z"/><line class="h" x1="320.74431" y1="616.6394" x2="348.66268" y2="616.6394"/><line class="h" x1="320.74431" y1="628.6394" x2="348.66268" y2="628.6394"/><circle class="f" cx="334.70349" cy="686.21083" r="3.91837"/><circle class="f" cx="334.70349" cy="696.21083" r="2.5"/><path class="a" d="M218.19969,805.32214a32.45508,32.45508,0,1,1,30.55566-43.35449h70.38184a9.2298,9.2298,0,0,1,9.21924,9.21973v3.35937a9.2298,9.2298,0,0,1-9.21924,9.21973H248.75535A32.62739,32.62739,0,0,1,218.19969,805.32214Z"/><path class="f" d="M218.19978,742.91211A29.952,29.952,0,0,1,246.939,764.468h26.21862v5.35461a1.697,1.697,0,0,0,3.394,0V764.468h8.79345v5.35461a1.6971,1.6971,0,0,0,3.3942,0V764.468h8.57651v5.35461a1.697,1.697,0,0,0,3.394,0V764.468H319.1371a6.71951,6.71951,0,0,1,6.71945,6.71948v3.35974a6.71958,6.71958,0,0,1-6.71945,6.71948H246.939a29.94922,29.94922,0,1,1-28.73926-38.35461m0-5a34.95526,34.95526,0,1,0,32.26852,48.35461h68.6688a11.73273,11.73273,0,0,0,11.71945-11.71948V771.1875A11.73273,11.73273,0,0,0,319.1371,759.468H250.4683a35.15415,35.15415,0,0,0-32.26852-21.55591Z"/><path class="f" d="M203.40281,778.54773a5.71973,5.71973,0,1,1,5.71973-5.71973A5.72555,5.72555,0,0,1,203.40281,778.54773Z"/><path class="e" d="M203.4029,768.10828a4.71948,4.71948,0,1,1-4.71948,4.71948,4.72485,4.72485,0,0,1,4.71948-4.71948m0-2a6.71948,6.71948,0,1,0,6.71949,6.71948,6.71932,6.71932,0,0,0-6.71949-6.71948Z"/><rect class="c" x="633.1616" y="604.32117" width="139.32666" height="99.32617" rx="9.5"/><path class="f" d="M762.98815,606.82068a7.00789,7.00789,0,0,1,7,7v80.32654a7.00789,7.00789,0,0,1-7,7H642.66163a7.00789,7.00789,0,0,1-7-7V613.82068a7.00789,7.00789,0,0,1,7-7H762.98815m0-5H642.66163a12.03529,12.03529,0,0,0-12,12v80.32654a12.0353,12.0353,0,0,0,12,12H762.98815a12.03527,12.03527,0,0,0,12-12V613.82068a12.03527,12.03527,0,0,0-12-12Z"/><line class="g" x1="702.82491" y1="706.14722" x2="702.82491" y2="713.74144"/><path class="f" d="M737.11066,716.24168H668.53937a2.5,2.5,0,0,1,0-5h68.57129a2.5,2.5,0,0,1,0,5Z"/><rect class="c" x="788.46775" y="605.00281" width="47.89795" height="108.44141" rx="9.5"/><path class="f" d="M826.86572,607.50317a7.00789,7.00789,0,0,1,7,7v89.44117a7.00789,7.00789,0,0,1-7,7h-28.898a7.00789,7.00789,0,0,1-7-7V614.50317a7.00789,7.00789,0,0,1,7-7h28.898m0-5h-28.898a12.03529,12.03529,0,0,0-12,12v89.44117a12.03529,12.03529,0,0,0,12,12h28.898a12.0353,12.0353,0,0,0,12-12V614.50317a12.0353,12.0353,0,0,0-12-12Z"/><line class="h" x1="798.45756" y1="616.6394" x2="826.37593" y2="616.6394"/><line class="h" x1="798.45756" y1="628.6394" x2="826.37593" y2="628.6394"/><circle class="f" cx="812.41674" cy="686.21083" r="3.91837"/><circle class="f" cx="812.41674" cy="696.21083" r="2.5"/><path class="c" d="M695.91307,805.32214a32.45508,32.45508,0,1,1,30.55566-43.35449h70.38184a9.22979,9.22979,0,0,1,9.21923,9.21973v3.35937a9.22979,9.22979,0,0,1-9.21923,9.21973H726.46873A32.62836,32.62836,0,0,1,695.91307,805.32214Z"/><path class="f" d="M695.913,742.91211A29.952,29.952,0,0,1,724.65227,764.468h26.21865v5.35461a1.697,1.697,0,0,0,3.394,0V764.468h8.79347v5.35461a1.69709,1.69709,0,0,0,3.39418,0V764.468h8.57652v5.35461a1.697,1.697,0,0,0,3.394,0V764.468h18.42731a6.71951,6.71951,0,0,1,6.71946,6.71948v3.35974a6.71959,6.71959,0,0,1-6.71946,6.71948H724.65227A29.94921,29.94921,0,1,1,695.913,742.91211m0-5a34.95526,34.95526,0,1,0,32.2685,48.35461h68.6688a11.73273,11.73273,0,0,0,11.71946-11.71948V771.1875A11.73273,11.73273,0,0,0,796.85034,759.468h-68.6688a35.15408,35.15408,0,0,0-32.2685-21.55591Z"/><path class="f" d="M681.11619,778.54773a5.71973,5.71973,0,1,1,5.71924-5.71973A5.726,5.726,0,0,1,681.11619,778.54773Z"/><path class="c" d="M681.11616,768.10828a4.71948,4.71948,0,1,1-4.71947,4.71948,4.72484,4.72484,0,0,1,4.71947-4.71948m0-2a6.71948,6.71948,0,1,0,6.71947,6.71948,6.71931,6.71931,0,0,0-6.71947-6.71948Z"/><rect class="i" x="394.30516" y="193.45496" width="139.32617" height="99.32715" rx="9.5"/><path class="f" d="M524.13154,195.9552a7.0079,7.0079,0,0,1,7,7v80.32654a7.0079,7.0079,0,0,1-7,7H403.805a7.00791,7.00791,0,0,1-7-7V202.9552a7.00791,7.00791,0,0,1,7-7H524.13154m0-5H403.805a12.0353,12.0353,0,0,0-12,12v80.32654a12.03522,12.03522,0,0,0,12,12H524.13154a12.03521,12.03521,0,0,0,12-12V202.9552a12.03529,12.03529,0,0,0-12-12Z"/><line class="g" x1="463.96828" y1="295.28178" x2="463.96828" y2="302.87601"/><path class="f" d="M498.254,305.37624H429.68275a2.5,2.5,0,0,1,0-5H498.254a2.5,2.5,0,0,1,0,5Z"/><rect class="i" x="549.61131" y="194.13757" width="47.89795" height="108.44141" rx="9.5"/><path class="f" d="M588.00909,196.63782a7.00789,7.00789,0,0,1,7,7v89.441a7.00789,7.00789,0,0,1-7,7h-28.898a7.0079,7.0079,0,0,1-7-7v-89.441a7.00789,7.00789,0,0,1,7-7h28.898m0-5h-28.898a12.03522,12.03522,0,0,0-12,12v89.441a12.0353,12.0353,0,0,0,12,12h28.898a12.0353,12.0353,0,0,0,12-12v-89.441a12.03521,12.03521,0,0,0-12-12Z"/><line class="h" x1="559.60093" y1="205.77396" x2="587.5193" y2="205.77396"/><line class="h" x1="559.60093" y1="217.77396" x2="587.5193" y2="217.77396"/><circle class="f" cx="573.56012" cy="275.34539" r="3.91837"/><circle class="f" cx="573.56012" cy="285.34539" r="2.5"/><path class="i" d="M457.05662,394.45691a32.45508,32.45508,0,1,1,30.55566-43.35449h70.38135a9.2299,9.2299,0,0,1,9.21973,9.21972v3.35938a9.2299,9.2299,0,0,1-9.21973,9.21973H487.61228A32.62835,32.62835,0,0,1,457.05662,394.45691Z"/><path class="f" d="M457.05641,332.04663a29.95193,29.95193,0,0,1,28.73923,21.55591h26.21865v5.35461a1.697,1.697,0,0,0,3.394,0v-5.35461h8.79347v5.35461a1.69709,1.69709,0,0,0,3.39417,0v-5.35461h8.57653v5.35461a1.697,1.697,0,0,0,3.394,0v-5.35461H557.9937a6.71959,6.71959,0,0,1,6.71947,6.71948v3.35974a6.71953,6.71953,0,0,1-6.71947,6.71949H485.79564a29.94921,29.94921,0,1,1-28.73923-38.35462m0-5a34.95526,34.95526,0,1,0,32.2685,48.35462H557.9937a11.73274,11.73274,0,0,0,11.71947-11.71949V360.322a11.73273,11.73273,0,0,0-11.71947-11.71948H489.32491a35.15407,35.15407,0,0,0-32.2685-21.55591Z"/><path class="f" d="M442.25975,367.68152a5.71924,5.71924,0,1,1,5.71923-5.71875A5.72576,5.72576,0,0,1,442.25975,367.68152Z"/><path class="i" d="M442.25953,357.2428a4.71948,4.71948,0,1,1-4.71947,4.71948,4.72485,4.72485,0,0,1,4.71947-4.71948m0-2a6.71948,6.71948,0,1,0,6.71948,6.71948,6.71931,6.71931,0,0,0-6.71948-6.71948Z"/><path class="j" d="M127.683,601.82069H64.94839a12.03518,12.03518,0,0,0-12,12V729.6102a12.03518,12.03518,0,0,0,12,12H127.683a12.03518,12.03518,0,0,0,12-12V613.82069A12.03518,12.03518,0,0,0,127.683,601.82069Z"/><path class="a" d="M127.683,606.82069a7.008,7.008,0,0,1,7,7V729.6102a7.008,7.008,0,0,1-7,7H64.94839a7.008,7.008,0,0,1-7-7V613.82069a7.008,7.008,0,0,1,7-7H127.683"/><circle class="j" cx="73.71934" cy="626.71546" r="7.5"/><path class="j" d="M74.25882,662.81041l3.36535,1.76928a1.15938,1.15938,0,0,0,1.68225-1.22223l-.6427-3.74742a1.15944,1.15944,0,0,1,.3335-1.02624l2.72266-2.65394a1.1594,1.1594,0,0,0-.64258-1.97761l-3.76258-.54674a1.15944,1.15944,0,0,1-.873-.63425l-1.68274-3.40952a1.15941,1.15941,0,0,0-2.07935,0l-1.68274,3.40952a1.15944,1.15944,0,0,1-.873.63425l-3.76258.54674a1.15937,1.15937,0,0,0-.64258,1.97761l2.72266,2.65394a1.15944,1.15944,0,0,1,.3335,1.02624l-.6427,3.74742a1.15941,1.15941,0,0,0,1.68225,1.22223l3.36535-1.76928A1.15939,1.15939,0,0,1,74.25882,662.81041Z"/><path class="f" d="M106.49217,626.247c0,5.30469-1.96826,8.23242-5.42481,8.23242-3.04834,0-5.1123-2.85547-5.16015-8.0166,0-5.23242,2.25586-8.11231,5.42431-8.11231C104.61961,618.35046,106.49217,621.2782,106.49217,626.247Zm-8.47315.24023c0,4.05664,1.24854,6.36035,3.16846,6.36035,2.16016,0,3.19238-2.5205,3.19238-6.50488,0-3.83984-.98437-6.36035-3.16845-6.36035C99.36326,619.9823,98.019,622.23914,98.019,626.48718Z"/><path class="f" d="M108.60252,632.96765a1.41906,1.41906,0,0,1,1.44043-1.51172,1.51421,1.51421,0,1,1-1.44043,1.51172Z"/><path class="f" d="M122.71531,620.3905h-5.95263l-.6001,4.00879a8.22258,8.22258,0,0,1,1.272-.09668,6.602,6.602,0,0,1,3.36035.83985,4.44861,4.44861,0,0,1,2.23242,4.00879c0,3.04785-2.42431,5.32812-5.80859,5.32812a7.63127,7.63127,0,0,1-3.88818-.96l.52783-1.60742a6.989,6.989,0,0,0,3.33642.86328,3.4421,3.4421,0,0,0,3.69629-3.38379c-.02392-2.0166-1.36816-3.45606-4.48828-3.45606a16.106,16.106,0,0,0-2.16064.168l1.0083-7.48925h7.46484Z"/><path class="f" d="M106.49217,656.744c0,5.30469-1.96826,8.23242-5.42481,8.23242-3.04834,0-5.1123-2.85547-5.16015-8.0166,0-5.23242,2.25586-8.11231,5.42431-8.11231C104.61961,648.84753,106.49217,651.77527,106.49217,656.744Zm-8.47315.24023c0,4.05664,1.24854,6.36035,3.16846,6.36035,2.16016,0,3.19238-2.5205,3.19238-6.50488,0-3.83984-.98437-6.36035-3.16845-6.36035C99.36326,650.47937,98.019,652.73621,98.019,656.98425Z"/><path class="f" d="M108.60252,663.46472A1.41906,1.41906,0,0,1,110.043,661.953a1.51421,1.51421,0,1,1-1.44043,1.51172Z"/><path class="f" d="M117.9868,651.08h-.04786l-2.7124,1.46386-.4082-1.6084,3.4082-1.82421h1.8003v15.60156h-2.04Z"/><circle class="f" cx="96.3157" cy="681.71544" r="4.04082"/><circle class="f" cx="96.3157" cy="701.71544" r="4.04082"/><circle class="f" cx="96.3157" cy="721.71544" r="4.04082"/><path class="a" d="M665.53612,137.58191v.00009l-4.98074-8.62677V91.67689h-7.827v12.20522H655.952a1.04556,1.04556,0,0,1,1.04552,1.04552v0a1.04555,1.04555,0,0,1-1.04552,1.04552h-3.22363v3.6158H655.952a1.04554,1.04554,0,0,1,0,2.09108h-3.22363v3.61584H655.952a1.04554,1.04554,0,0,1,0,2.09108h-3.22363v11.56755l-4.98091,8.62737v-.00039l-9.70794,16.815a1.42309,1.42309,0,0,0,1.23235,2.13464h34.74a1.42309,1.42309,0,0,0,1.23235-2.13464Z"/><path class="b" d="M740.04627,75.71868H573.23756a4.98642,4.98642,0,0,0-4.98083,4.98083v86.80872a4.98664,4.98664,0,0,0,4.98083,4.98082H740.04627a4.98687,4.98687,0,0,0,4.98083-4.98082V80.69951A4.98665,4.98665,0,0,0,740.04627,75.71868Zm-66.03452,85.793H639.27181a6.40393,6.40393,0,0,1-5.54593-9.60589l14.02157-24.28609V91.67689a2.49042,2.49042,0,1,1,0-4.98083h17.78867a2.49041,2.49041,0,0,1,0,4.98083v35.94285l14.02156,24.28609A6.40392,6.40392,0,0,1,674.01175,161.51172Z"/><path class="b" d="M628.17993,40.73786c0,1.17309.07147,21.47808.21,30.30822v.01581h-5.71827c-.1181-8.82294-.184-29.1543-.184-30.32416a34.15424,34.15424,0,0,1,68.30848,0h-5.69251a28.46185,28.46185,0,1,0-56.9237.00013Z"/><path d="M740.04615,70.73775H573.23743a9.96165,9.96165,0,0,0-9.96166,9.96166v86.80872a9.96165,9.96165,0,0,0,9.96166,9.96165H740.04615a9.96165,9.96165,0,0,0,9.96165-9.96165V80.69941A9.96165,9.96165,0,0,0,740.04615,70.73775Zm4.981,96.77051a4.98686,4.98686,0,0,1-4.98082,4.98082H573.23756a4.98665,4.98665,0,0,1-4.98083-4.98082V80.69954a4.98643,4.98643,0,0,1,4.98083-4.98083H740.04628a4.98665,4.98665,0,0,1,4.98082,4.98083Z"/><polygon points="665.536 137.582 665.536 90.203 660.555 90.203 660.555 128.955 665.536 137.582"/><polygon points="652.728 128.955 652.728 90.203 647.747 90.203 647.747 137.582 652.728 128.955"/><path d="M679.55769,151.90586,662.18776,121.8202a6.398,6.398,0,0,0-1.63238-1.86981v9.00482l14.68886,25.44137a1.4231,1.4231,0,0,1-1.23235,2.13464h-34.74a1.4231,1.4231,0,0,1-1.23235-2.13464l14.68886-25.44241v-9.00391a6.39791,6.39791,0,0,0-1.63256,1.86994l-17.36992,30.08566a6.40391,6.40391,0,0,0,5.54593,9.60588h34.73994A6.40391,6.40391,0,0,0,679.55769,151.90586Z"/><rect x="650.59369" y="115.29592" width="6.40382" height="2.09108" rx="0.25672"/><rect x="650.59369" y="109.58902" width="6.40382" height="2.09108" rx="0.25672"/><rect x="650.59369" y="103.88212" width="6.40382" height="2.09108" rx="0.25672"/><rect x="645.25704" y="86.69606" width="22.7695" height="4.98083" rx="0.61149"/><path class="c" d="M610.53612,137.58191v.00009l-4.98074-8.62677V91.67689h-7.827v12.20522H600.952a1.04556,1.04556,0,0,1,1.04552,1.04552v0a1.04555,1.04555,0,0,1-1.04552,1.04552h-3.22363v3.6158H600.952a1.04554,1.04554,0,0,1,0,2.09108h-3.22363v3.61584H600.952a1.04554,1.04554,0,0,1,0,2.09108h-3.22363v11.56755l-4.98091,8.62737v-.00039l-9.70794,16.815a1.42309,1.42309,0,0,0,1.23235,2.13464h34.74a1.42309,1.42309,0,0,0,1.23235-2.13464Z"/><polygon points="610.536 137.582 610.536 90.203 605.555 90.203 605.555 128.955 610.536 137.582"/><polygon points="597.728 128.955 597.728 90.203 592.747 90.203 592.747 137.582 597.728 128.955"/><path d="M624.55769,151.90586,607.18776,121.8202a6.398,6.398,0,0,0-1.63238-1.86981v9.00482l14.68886,25.44137a1.4231,1.4231,0,0,1-1.23235,2.13464h-34.74a1.4231,1.4231,0,0,1-1.23235-2.13464l14.68886-25.44241v-9.00391a6.39791,6.39791,0,0,0-1.63256,1.86994l-17.36992,30.08566a6.40391,6.40391,0,0,0,5.54593,9.60588h34.73994A6.40391,6.40391,0,0,0,624.55769,151.90586Z"/><rect x="595.59369" y="115.29592" width="6.40382" height="2.09108" rx="0.25672"/><rect x="595.59369" y="109.58902" width="6.40382" height="2.09108" rx="0.25672"/><rect x="595.59369" y="103.88212" width="6.40382" height="2.09108" rx="0.25672"/><rect x="590.25704" y="86.69606" width="22.7695" height="4.98083" rx="0.61149"/><path class="d" d="M720.53612,137.58191v.00009l-4.98074-8.62677V91.67689h-7.827v12.20522H710.952a1.04556,1.04556,0,0,1,1.04552,1.04552v0a1.04555,1.04555,0,0,1-1.04552,1.04552h-3.22363v3.6158H710.952a1.04554,1.04554,0,0,1,0,2.09108h-3.22363v3.61584H710.952a1.04554,1.04554,0,0,1,0,2.09108h-3.22363v11.56755l-4.98091,8.62737v-.00039l-9.70794,16.815a1.42309,1.42309,0,0,0,1.23235,2.13464h34.74a1.42309,1.42309,0,0,0,1.23235-2.13464Z"/><polygon points="720.536 137.582 720.536 90.203 715.555 90.203 715.555 128.955 720.536 137.582"/><polygon points="707.728 128.955 707.728 90.203 702.747 90.203 702.747 137.582 707.728 128.955"/><path d="M734.55769,151.90586,717.18776,121.8202a6.398,6.398,0,0,0-1.63238-1.86981v9.00482l14.68886,25.44137a1.4231,1.4231,0,0,1-1.23235,2.13464h-34.74a1.4231,1.4231,0,0,1-1.23235-2.13464l14.68886-25.44241v-9.00391a6.39791,6.39791,0,0,0-1.63256,1.86994l-17.36992,30.08566a6.40391,6.40391,0,0,0,5.54593,9.60588h34.73994A6.40391,6.40391,0,0,0,734.55769,151.90586Z"/><rect x="705.59369" y="115.29592" width="6.40382" height="2.09108" rx="0.25672"/><rect x="705.59369" y="109.58902" width="6.40382" height="2.09108" rx="0.25672"/><rect x="705.59369" y="103.88212" width="6.40382" height="2.09108" rx="0.25672"/><rect x="700.25704" y="86.69606" width="22.7695" height="4.98083" rx="0.61149"/><path d="M685.10369,40.73773a28.46188,28.46188,0,0,0-56.92376,0c0,1.46668.11181,32.90778.32684,34.31531h5.05841c-.26123-1.39984-.4043-32.84076-.4043-34.31518a23.48105,23.48105,0,0,1,46.9621,0V45.0871h15.65387V40.73773a39.13507,39.13507,0,1,0-78.27014,0c0,1.45917.08636,32.89765.24194,34.31531h5.02124c-.17932-1.41461-.28223-32.85266-.28223-34.31518a34.15427,34.15427,0,0,1,68.30854,0Z"/><path class="j" d="M688.0091,190.95525H625.27448a12.03518,12.03518,0,0,0-12,12V318.74476a12.03517,12.03517,0,0,0,12,12H688.0091a12.03518,12.03518,0,0,0,12-12V202.95525A12.03519,12.03519,0,0,0,688.0091,190.95525Z"/><path class="i" d="M688.0091,195.95525a7.008,7.008,0,0,1,7,7V318.74476a7.008,7.008,0,0,1-7,7H625.27448a7.008,7.008,0,0,1-7-7V202.95525a7.008,7.008,0,0,1,7-7H688.0091"/><path class="f" d="M666.81834,215.38074c0,5.30468-1.96826,8.23242-5.42481,8.23242-3.04834,0-5.1123-2.85547-5.16015-8.01563,0-5.23242,2.25586-8.11328,5.42431-8.11328C664.94578,207.48425,666.81834,210.412,666.81834,215.38074Zm-8.47315.24023c0,4.05664,1.24854,6.36133,3.16846,6.36133,2.16016,0,3.19238-2.52148,3.19238-6.50586,0-3.83984-.98437-6.35937-3.16845-6.35937C659.68943,209.11707,658.34519,211.37292,658.34519,215.621Z"/><path class="f" d="M668.92869,222.10144a1.41959,1.41959,0,0,1,1.44043-1.51172,1.51421,1.51421,0,1,1-1.44043,1.51172Z"/><path class="f" d="M673.7285,223.34949v-1.29492l1.65625-1.60938c3.98437-3.791,5.78418-5.80859,5.80859-8.16016a2.78392,2.78392,0,0,0-3.09668-3.04882,5.31539,5.31539,0,0,0-3.312,1.32031l-.67188-1.48828a6.84508,6.84508,0,0,1,4.416-1.584,4.39015,4.39015,0,0,1,4.77637,4.53711c0,2.88086-2.0879,5.209-5.37647,8.377l-1.248,1.15234v.04687h7.00879v1.752Z"/><path class="f" d="M666.81834,245.87878c0,5.30469-1.96826,8.23243-5.42481,8.23243-3.04834,0-5.1123-2.85547-5.16015-8.01661,0-5.23242,2.25586-8.1123,5.42431-8.1123C664.94578,237.9823,666.81834,240.91,666.81834,245.87878Zm-8.47315.24024c0,4.05664,1.24854,6.36035,3.16846,6.36035,2.16016,0,3.19238-2.52051,3.19238-6.50488,0-3.83985-.98437-6.36035-3.16845-6.36035C659.68943,239.61414,658.34519,241.871,658.34519,246.119Z"/><path class="f" d="M668.92869,252.59949a1.41905,1.41905,0,0,1,1.44043-1.51172,1.51421,1.51421,0,1,1-1.44043,1.51172Z"/><path class="f" d="M673.7285,253.84753v-1.29589l1.65625-1.6084c3.98437-3.792,5.78418-5.8086,5.80859-8.16114a2.78324,2.78324,0,0,0-3.09668-3.04785,5.30988,5.30988,0,0,0-3.312,1.32032l-.67188-1.48829a6.84507,6.84507,0,0,1,4.416-1.584,4.38945,4.38945,0,0,1,4.77637,4.53613c0,2.88086-2.0879,5.209-5.37647,8.377l-1.248,1.15234v.04785h7.00879v1.75195Z"/><circle class="f" cx="656.64179" cy="270.85" r="4.04082"/><circle class="f" cx="656.64179" cy="290.85" r="4.04082"/><circle class="f" cx="656.64179" cy="310.85" r="4.04082"/><path class="j" d="M627.38544,208.35H640.705a.84021.84021,0,0,1,.84021.84021v13.3196a.84019.84019,0,0,1-.84019.84019h-13.3196a.84021.84021,0,0,1-.84021-.84021v-13.3196A.84019.84019,0,0,1,627.38544,208.35Z"/><path class="j" d="M628.85237,240.002h10.38575a.65513.65513,0,0,1,.65513.65513v10.38575a.65513.65513,0,0,1-.65513.65513H628.85239a.65514.65514,0,0,1-.65514-.65514V240.65715a.65513.65513,0,0,1,.65513-.65513Z" transform="translate(11.86534 520.3455) rotate(-45)"/><path class="j" d="M926.86572,601.82069H864.1311a12.03518,12.03518,0,0,0-12,12V729.6102a12.03518,12.03518,0,0,0,12,12h62.73462a12.03517,12.03517,0,0,0,12-12V613.82069A12.03518,12.03518,0,0,0,926.86572,601.82069Z"/><path class="c" d="M926.86572,606.82069a7.008,7.008,0,0,1,7,7V729.6102a7.008,7.008,0,0,1-7,7H864.1311a7.008,7.008,0,0,1-7-7V613.82069a7.008,7.008,0,0,1,7-7h62.73462"/><path class="j" d="M876.74694,619.21546h-7.69007a.84029.84029,0,0,0-.72766.42009l-3.845,6.6598a.8399.8399,0,0,0,0,.8402l3.845,6.6598a.84028.84028,0,0,0,.72766.4201h7.69007a.84028.84028,0,0,0,.72766-.4201l3.845-6.6598a.83994.83994,0,0,0,0-.8402l-3.845-6.6598A.84029.84029,0,0,0,876.74694,619.21546Z"/><path class="j" d="M872.1743,649.44361l-7.7478,13.4197a.84018.84018,0,0,0,.72766,1.2603h15.49561a.84022.84022,0,0,0,.72766-1.2603l-7.7478-13.4197a.84021.84021,0,0,0-1.45533,0Z"/><path class="f" d="M905.67527,626.247c0,5.30469-1.96875,8.23242-5.4248,8.23242-3.04883,0-5.11231-2.85547-5.16016-8.0166,0-5.23242,2.25586-8.11231,5.42383-8.11231C903.80223,618.35046,905.67527,621.2782,905.67527,626.247Zm-8.47363.24023c0,4.05664,1.249,6.36035,3.16895,6.36035,2.16015,0,3.19238-2.5205,3.19238-6.50488,0-3.83984-.98438-6.36035-3.16895-6.36035C898.54637,619.9823,897.20164,622.23914,897.20164,626.48718Z"/><path class="f" d="M907.78562,632.96765a1.41878,1.41878,0,0,1,1.44043-1.51172,1.51421,1.51421,0,1,1-1.44043,1.51172Z"/><path class="f" d="M913.08934,631.79187a7.06135,7.06135,0,0,0,3.45605.9834c2.71191,0,3.55273-1.72754,3.52832-3.02442-.02344-2.18359-1.99219-3.12011-4.03223-3.12011H914.8657v-1.584h1.17578c1.53614,0,3.48047-.792,3.48047-2.63965,0-1.249-.792-2.35253-2.73633-2.35253a5.72591,5.72591,0,0,0-3.12011,1.03222l-.55274-1.53613a7.414,7.414,0,0,1,4.08106-1.2002c3.07226,0,4.46386,1.82422,4.46386,3.71973a3.87469,3.87469,0,0,1-2.87988,3.67285v.04785a4.0643,4.0643,0,0,1,3.48047,4.00879c0,2.4961-1.94434,4.67969-5.68848,4.67969a7.93558,7.93558,0,0,1-4.05664-1.05566Z"/><path class="f" d="M905.67527,656.744c0,5.30469-1.96875,8.23242-5.4248,8.23242-3.04883,0-5.11231-2.85547-5.16016-8.0166,0-5.23242,2.25586-8.11231,5.42383-8.11231C903.80223,648.84753,905.67527,651.77527,905.67527,656.744Zm-8.47363.24023c0,4.05664,1.249,6.36035,3.16895,6.36035,2.16015,0,3.19238-2.5205,3.19238-6.50488,0-3.83984-.98438-6.36035-3.16895-6.36035C898.54637,650.47937,897.20164,652.73621,897.20164,656.98425Z"/><path class="f" d="M907.78562,663.46472a1.41878,1.41878,0,0,1,1.44043-1.51172,1.51421,1.51421,0,1,1-1.44043,1.51172Z"/><path class="f" d="M919.11375,664.71277v-4.248h-7.249v-1.39258l6.96093-9.96093h2.28028v9.69726h2.18457v1.65625h-2.18457v4.248Zm0-5.9043v-5.209q0-1.22315.07226-2.44824h-.07226c-.48047.9121-.86426,1.585-1.2959,2.30468l-3.81641,5.30469v.04785Z"/><circle class="f" cx="895.49841" cy="681.71544" r="4.04082"/><circle class="f" cx="895.49841" cy="701.71544" r="4.04082"/><circle class="f" cx="895.49841" cy="721.71544" r="4.04082"/><path class="k" d="M1629.89072,554.6493a6.82147,6.82147,0,0,0-1.528-3.33212,4.88266,4.88266,0,0,0-2.87933-1.27935c-1.19883-.14892-2.40026.05972-3.58843-.02628-1.26094-.09125-2.52707-.08447-3.7898-.13528l-4.16992-.16774a36.21928,36.21928,0,0,0-4.20116-6.78726q.70951-1.57651,1.41907-3.153c.73734-1.63824,1.4067-3.32281,2.222-4.92362.71669-1.40707,1.70188-2.8456,1.58109-4.49923-.14028-1.9207-1.74212-3.37626-3.28961-4.52255a6.8218,6.8218,0,0,0-3.31239-1.5704,4.883,4.883,0,0,0-3.028.87078c-1.01407.65654-1.80031,1.58862-2.76577,2.28647-1.0246.74064-1.99018,1.55964-2.99013,2.33241q-1.651,1.27593-3.3021,2.55185a35.99632,35.99632,0,0,0-7.58186-2.50156q-.46947-1.66237-.93891-3.32482c-.48821-1.7289-1.05826-3.44961-1.46266-5.2-.35546-1.53857-.52541-3.27381-1.68085-4.46293-1.3421-1.38117-3.5048-1.46652-5.42708-1.34993a6.82191,6.82191,0,0,0-3.54683.92615,4.88286,4.88286,0,0,0-1.7599,2.61343c-.35481,1.15478-.358,2.37418-.649,3.52936-.30883,1.226-.522,2.474-.79131,3.70877l-.88955,4.07863a35.99655,35.99655,0,0,0-7.41679,2.95525l-2.85532-1.94274c-1.48532-1.0106-3.02806-1.96231-4.46294-3.04324-1.26127-.95011-2.50687-2.17012-4.15635-2.33835-1.91588-.19535-3.62748,1.1294-5.02507,2.45434a6.82137,6.82137,0,0,0-2.12173,2.98937,4.88277,4.88277,0,0,0,.33173,3.13323c.47046,1.11268,1.25185,2.04883,1.77146,3.12081.55146,1.13764,1.19037,2.23077,1.77774,3.34973q.97079,1.84932,1.94155,3.69868a36.21719,36.21719,0,0,0-3.78321,7.02878l-3.43612.34714c-1.78742.1806-3.581.4432-5.375.53748-1.57692.08292-3.3153-.051-4.687.88037-1.59324,1.08186-2.05285,3.19688-2.27184,5.11019a6.82186,6.82186,0,0,0,.2962,3.65378,4.88258,4.88258,0,0,0,2.26813,2.187c1.07561.55,2.276.76484,3.363,1.252,1.15372.517,2.34579.94372,3.515,1.42334q1.93471.79362,3.8694,1.58722a36.14465,36.14465,0,0,0,1.61612,7.81343q-1.205,1.23769-2.40992,2.4755c-1.25317,1.28726-2.4583,2.64129-3.772,3.86668-1.15471,1.07715-2.57251,2.09194-3.02457,3.68714-.52509,1.85287.48234,3.7685,1.54445,5.375a6.82162,6.82162,0,0,0,2.5755,2.60857,4.88269,4.88269,0,0,0,3.14323.2174c1.17746-.27011,2.23511-.87706,3.381-1.20262,1.21612-.34552,2.40358-.78494,3.60755-1.16909q1.99365-.63611,3.98734-1.27226a36.43786,36.43786,0,0,0,6.2574,4.94786q-.12746,1.72256-.25487,3.4451c-.13255,1.79164-.18539,3.60355-.404,5.38666-.19221,1.56734-.626,3.25607.05306,4.76868.78878,1.75687,2.79186,2.57677,4.63807,3.12467a6.82169,6.82169,0,0,0,3.64971.34279,4.88259,4.88259,0,0,0,2.5476-1.8539c.72838-.96379,1.14842-2.10855,1.817-3.09455.70951-1.04639,1.3367-2.14627,2.01206-3.21444q1.11616-1.76529,2.23225-3.53058a35.79415,35.79415,0,0,0,7.97666-.24129q1.01047,1.40265,2.02088,2.80527c1.05011,1.45767,2.1743,2.87964,3.153,4.38613.86024,1.32418,1.61342,2.89664,3.10588,3.61886,1.73356.83885,3.795.17939,5.5615-.58763a6.82207,6.82207,0,0,0,3.01618-2.08339,4.88262,4.88262,0,0,0,.75988-3.05775c-.06153-1.20649-.4756-2.35342-.59723-3.53848-.12912-1.25766-.35561-2.50336-.52486-3.75574q-.27954-2.06831-.559-4.13659a36.43673,36.43673,0,0,0,5.94685-5.317q1.67973.426,3.35943.852c1.74137.44164,3.51659.80832,5.23465,1.33327,1.51017.46146,3.09789,1.18188,4.70542.7758,1.86719-.47169,3.02246-2.302,3.88263-4.025a6.82185,6.82185,0,0,0,.97133-3.53472,4.88274,4.88274,0,0,0-1.38334-2.83083c-.82267-.88467-1.87711-1.49712-2.732-2.32675-.90728-.88042-1.88153-1.68909-2.8162-2.53968q-1.54372-1.40483-3.08741-2.80967a36.14327,36.14327,0,0,0,1.14088-7.89682q1.55915-.75266,3.11828-1.50534c1.61788-.781,3.21345-1.64124,4.867-2.34342,1.45348-.61724,3.13284-1.08593,4.10326-2.43033C1630.63082,558.66679,1630.33933,556.52214,1629.89072,554.6493Zm-48.30087,24.21518a13.59942,13.59942,0,1,1,13.182-14.0044A13.59943,13.59943,0,0,1,1581.58985,578.86448Z"/><path class="l" d="M1726.81832,537.49511a6.82163,6.82163,0,0,0-1.42657-3.3768,4.88268,4.88268,0,0,0-2.83933-1.36582c-1.19379-.1851-2.401-.01288-3.586-.13478-1.25761-.12933-2.52336-.16084-3.784-.24981l-4.16294-.29374a36.21926,36.21926,0,0,0-3.994-6.91118q.75686-1.55434,1.51375-3.10866c.78654-1.61521,1.50653-3.27876,2.36987-4.85419.7589-1.38475,1.78714-2.79284,1.7164-4.44936-.08214-1.92407-1.63924-3.4274-3.15136-4.62a6.82186,6.82186,0,0,0-3.26339-1.66983,4.88293,4.88293,0,0,0-3.053.77883c-1.03347.62557-1.84752,1.53346-2.83364,2.20179-1.04653.70932-2.03644,1.49875-3.0593,2.24093q-1.68885,1.22542-3.37775,2.45084a35.9959,35.9959,0,0,0-7.50275-2.72967q-.419-1.67581-.83794-3.35168c-.43572-1.74287-.95348-3.48-1.30477-5.24181-.30878-1.54862-.42618-3.2882-1.54514-4.51171-1.29972-1.42113-3.45885-1.57183-5.38378-1.51342a6.822,6.822,0,0,0-3.57321.81849,4.88284,4.88284,0,0,0-1.83811,2.559c-.38957,1.14352-.42963,2.36227-.75543,3.50813-.34576,1.21607-.59659,2.45711-.90309,3.68314l-1.01247,4.04987a35.99582,35.99582,0,0,0-7.50275,2.72964l-2.79528-2.02819c-1.45408-1.055-2.96734-2.053-4.36888-3.17679-1.232-.98781-2.44011-2.24493-4.08375-2.46295-1.9091-.25319-3.66,1.0192-5.097,2.30128a6.8214,6.8214,0,0,0-2.21115,2.92384,4.88278,4.88278,0,0,0,.23684,3.14183c.43661,1.1264,1.18933,2.08574,1.67629,3.173.51681,1.15379,1.12237,2.26574,1.67564,3.40194q.91443,1.87784,1.82883,3.7557a36.21675,36.21675,0,0,0-3.994,6.91118q-1.72252.12156-3.44505.24308c-1.79206.12647-3.59273.33472-5.38876.37472-1.57871.0352-3.31223-.15126-4.71147.73824-1.62522,1.03319-2.14858,3.13335-2.42532,5.03916a6.82186,6.82186,0,0,0,.18559,3.66107,4.8826,4.8826,0,0,0,2.201,2.25455c1.05849.58223,2.25179.8333,3.32365,1.35313,1.13755.55167,2.31618,1.01421,3.47034,1.529q1.90984.85177,3.81964,1.7035a36.14372,36.14372,0,0,0,1.37914,7.85872q-1.24189,1.20071-2.48368,2.4015c-1.29151,1.24878-2.537,2.56575-3.88715,3.75087-1.18674,1.04173-2.63458,2.01319-3.13467,3.594-.58087,1.83614.36817,3.78136,1.38122,5.41919a6.82158,6.82158,0,0,0,2.49545,2.68525,4.88256,4.88256,0,0,0,3.13522.31234c1.18509-.23438,2.26061-.80907,3.41584-1.09983,1.226-.3086,2.42622-.7119,3.64125-1.05948q2.012-.57553,4.024-1.15111a36.43853,36.43853,0,0,0,6.10493,5.1348q-.17946,1.7179-.35891,3.43582c-.18667,1.7868-.29427,3.5963-.56671,5.372-.23951,1.56082-.72416,3.23566-.09115,4.76811.7353,1.77991,2.71267,2.66,4.54147,3.26348a6.82167,6.82167,0,0,0,3.63768.453,4.88258,4.88258,0,0,0,2.60249-1.776c.75718-.94133,1.21165-2.07286,1.90971-3.0382.74083-1.02446,1.401-2.10487,2.10834-3.15213q1.169-1.73073,2.338-3.46147a35.79352,35.79352,0,0,0,7.9803,0q.9676,1.43256,1.93514,2.8651c1.00555,1.48875,2.08624,2.94406,3.01893,4.47946.8198,1.34959,1.52509,2.9441,2.995,3.71112,1.70739.89088,3.78785.294,5.57671-.4192a6.8222,6.8222,0,0,0,3.0778-1.99124,4.88262,4.88262,0,0,0,.852-3.03338c-.025-1.2078-.40423-2.36673-.49-3.55492-.091-1.261-.27975-2.513-.411-3.7699q-.21687-2.07579-.43371-4.15159a36.43712,36.43712,0,0,0,6.1049-5.1348q1.66608.47658,3.33213.95319c1.72722.4941,3.49054.91428,5.19194,1.49095,1.49552.50691,3.06074,1.275,4.67981.91772,1.8806-.415,3.09068-2.20955,4.00256-3.90579a6.82188,6.82188,0,0,0,1.07777-3.50373,4.8828,4.8828,0,0,0-1.29711-2.87136c-.79555-.90914-1.831-1.5532-2.66045-2.40829-.88024-.90745-1.82959-1.74521-2.73812-2.62368q-1.50054-1.45086-3.001-2.90173a36.14341,36.14341,0,0,0,1.37914-7.85872q1.58118-.70516,3.16237-1.41037c1.64074-.73176,3.2616-1.54332,4.93561-2.19518,1.47148-.573,3.16425-.99071,4.17487-2.30515C1727.43661,541.53314,1727.2101,539.38066,1726.81832,537.49511Zm-49.011,22.74365a13.59942,13.59942,0,1,1,13.59942-13.59941A13.59942,13.59942,0,0,1,1677.80734,560.23876Z"/><path class="m" d="M1663.89842,462.4747a6.82165,6.82165,0,0,0-1.42656-3.3768,4.88268,4.88268,0,0,0-2.83933-1.36582c-1.19379-.1851-2.401-.01288-3.586-.13477-1.25761-.12934-2.52336-.16085-3.784-.24982l-4.16294-.29374a36.21961,36.21961,0,0,0-3.994-6.91118q.75687-1.55435,1.51376-3.10866c.78654-1.6152,1.50652-3.27876,2.36986-4.85418.75891-1.38476,1.78714-2.79285,1.71641-4.44937-.08215-1.92407-1.63925-3.4274-3.15137-4.62a6.82177,6.82177,0,0,0-3.26339-1.66983,4.883,4.883,0,0,0-3.053.77883c-1.03346.62557-1.84752,1.53346-2.83364,2.2018-1.04653.70931-2.03643,1.49874-3.05929,2.24093l-3.37775,2.45083a35.99656,35.99656,0,0,0-7.50276-2.72967q-.419-1.6758-.83794-3.35168c-.43571-1.74287-.95347-3.48-1.30476-5.24181-.30878-1.54861-.42619-3.2882-1.54514-4.51171-1.29973-1.42113-3.45885-1.57183-5.38378-1.51342a6.822,6.822,0,0,0-3.57321.81849,4.88285,4.88285,0,0,0-1.83812,2.559c-.38956,1.14352-.42962,2.36227-.75543,3.50813-.34576,1.21607-.59658,2.45711-.90309,3.68314l-1.01246,4.04987a35.99648,35.99648,0,0,0-7.50276,2.72964l-2.79527-2.02819c-1.45408-1.055-2.96734-2.053-4.36889-3.17679-1.232-.98781-2.44011-2.24492-4.08374-2.463-1.9091-.25319-3.66,1.0192-5.097,2.30128a6.8213,6.8213,0,0,0-2.21114,2.92384,4.88264,4.88264,0,0,0,.23684,3.14183c.4366,1.1264,1.18933,2.08575,1.67629,3.173.5168,1.15379,1.12237,2.26574,1.67564,3.40194q.91443,1.87784,1.82883,3.7557a36.2171,36.2171,0,0,0-3.994,6.91118q-1.72251.12156-3.445.24308c-1.79206.12647-3.59273.33472-5.38876.37472-1.57871.0352-3.31224-.15125-4.71148.73824-1.62522,1.03319-2.14858,3.13335-2.42532,5.03916a6.822,6.822,0,0,0,.18559,3.66107,4.88257,4.88257,0,0,0,2.201,2.25455c1.05849.58223,2.25178.83331,3.32364,1.35313,1.13756.55167,2.31619,1.01422,3.47035,1.529q1.90983.85176,3.81964,1.70349a36.14432,36.14432,0,0,0,1.37913,7.85872q-1.24188,1.20071-2.48367,2.4015c-1.29152,1.24878-2.537,2.56575-3.88715,3.75087-1.18675,1.04173-2.63459,2.01319-3.13467,3.594-.58088,1.83615.36817,3.78137,1.38122,5.41919a6.82155,6.82155,0,0,0,2.49544,2.68525,4.88266,4.88266,0,0,0,3.13523.31235c1.18508-.23438,2.2606-.80908,3.41584-1.09984,1.226-.30859,2.42621-.7119,3.64124-1.05947l4.024-1.15112a36.438,36.438,0,0,0,6.10493,5.1348q-.17947,1.7179-.35892,3.43582c-.18666,1.78681-.29426,3.5963-.5667,5.372-.23951,1.56082-.72417,3.23566-.09115,4.76811.73529,1.77992,2.71267,2.66,4.54147,3.26348a6.82177,6.82177,0,0,0,3.63768.453,4.88263,4.88263,0,0,0,2.60249-1.776c.75718-.94133,1.21164-2.07286,1.90971-3.0382.74083-1.02446,1.401-2.10486,2.10834-3.15213q1.169-1.73073,2.338-3.46146a35.79521,35.79521,0,0,0,7.98031,0q.96759,1.43256,1.93514,2.86509c1.00555,1.48876,2.08623,2.94407,3.01892,4.47946.81981,1.34959,1.5251,2.9441,2.995,3.71112,1.7074.89088,3.78785.294,5.57672-.4192a6.82211,6.82211,0,0,0,3.0778-1.99124,4.8826,4.8826,0,0,0,.852-3.03338c-.025-1.2078-.40423-2.36673-.49-3.55492-.091-1.261-.27976-2.513-.41106-3.7699q-.21687-2.07579-.43371-4.15159a36.43665,36.43665,0,0,0,6.1049-5.1348q1.66608.47658,3.33213.9532c1.72723.49409,3.49055.91427,5.19195,1.49094,1.49552.50691,3.06073,1.275,4.67981.91772,1.8806-.415,3.09068-2.20955,4.00256-3.90578a6.82193,6.82193,0,0,0,1.07776-3.50374,4.88274,4.88274,0,0,0-1.29711-2.87136c-.79555-.90914-1.831-1.55319-2.66044-2.40829-.88024-.90745-1.8296-1.74521-2.73813-2.62367q-1.50053-1.45087-3.001-2.90174a36.144,36.144,0,0,0,1.37913-7.85872q1.58118-.70516,3.16237-1.41037c1.64075-.73176,3.26161-1.54332,4.93562-2.19518,1.47148-.573,3.16424-.9907,4.17487-2.30515C1664.51671,466.51273,1664.2902,464.36025,1663.89842,462.4747Zm-49.011,22.74366a13.59942,13.59942,0,1,1,13.59942-13.59942A13.59942,13.59942,0,0,1,1614.88745,485.21836Z"/><path d="M1258.26992,841.66534a28.46189,28.46189,0,0,0-56.92377,0c0,1.46668.11182,32.90778.32685,34.31531h5.05841c-.26123-1.39984-.4043-32.84076-.4043-34.31518a23.481,23.481,0,0,1,46.9621,0v4.34924h15.65387v-4.34937a39.13507,39.13507,0,1,0-78.27014,0c0,1.45917.08636,32.89765.24194,34.31531h5.02124c-.17932-1.41461-.28223-32.85266-.28223-34.31518a34.15427,34.15427,0,0,1,68.30854,0Z"/><path class="a" d="M1238.70235,908.50952v.00009l-4.98074-8.62677V862.6045h-7.827v12.20522h3.22363a1.04556,1.04556,0,0,1,1.04552,1.04552v0a1.04555,1.04555,0,0,1-1.04552,1.04552h-3.22363v3.6158h3.22363a1.04554,1.04554,0,0,1,0,2.09108h-3.22363v3.61584h3.22363a1.04554,1.04554,0,0,1,0,2.09108h-3.22363v11.56755l-4.98091,8.62737v-.00039l-9.70794,16.815a1.42309,1.42309,0,0,0,1.23235,2.13464h34.74a1.42309,1.42309,0,0,0,1.23235-2.13464Z"/><path class="b" d="M1313.2125,846.64629H1146.40378a4.98642,4.98642,0,0,0-4.98082,4.98083v86.80872a4.98664,4.98664,0,0,0,4.98082,4.98082H1313.2125a4.98687,4.98687,0,0,0,4.98083-4.98082V851.62712A4.98665,4.98665,0,0,0,1313.2125,846.64629Zm-66.03452,85.793H1212.438a6.40393,6.40393,0,0,1-5.54593-9.60589l14.02157-24.28609V862.6045a2.49042,2.49042,0,1,1,0-4.98083h17.78867a2.49041,2.49041,0,0,1,0,4.98083v35.94285l14.02156,24.28609A6.40392,6.40392,0,0,1,1247.178,932.43933Z"/><path class="b" d="M1201.34615,841.66547c0,1.17309.07148,21.47808.21,30.30822v.01581h-5.71827c-.1181-8.82294-.184-29.1543-.184-30.32416a34.15424,34.15424,0,0,1,68.30848,0h-5.69251a28.46186,28.46186,0,1,0-56.92371.00013Z"/><path d="M1313.21238,841.66536H1146.40366a9.96165,9.96165,0,0,0-9.96166,9.96166v86.80872a9.96165,9.96165,0,0,0,9.96166,9.96165h166.80872a9.96165,9.96165,0,0,0,9.96165-9.96165V851.627A9.96165,9.96165,0,0,0,1313.21238,841.66536Zm4.981,96.77051a4.98687,4.98687,0,0,1-4.98082,4.98083H1146.40379a4.98666,4.98666,0,0,1-4.98083-4.98083V851.62715a4.98643,4.98643,0,0,1,4.98083-4.98083h166.80872a4.98665,4.98665,0,0,1,4.98082,4.98083Z"/><polygon points="1238.702 908.51 1238.702 861.131 1233.722 861.131 1233.722 899.883 1238.702 908.51"/><polygon points="1225.895 899.882 1225.895 861.131 1220.914 861.131 1220.914 908.51 1225.895 899.882"/><path d="M1252.72392,922.83347,1235.354,892.74781a6.398,6.398,0,0,0-1.63238-1.86981v9.00482l14.68886,25.44137a1.4231,1.4231,0,0,1-1.23235,2.13464h-34.74a1.4231,1.4231,0,0,1-1.23235-2.13464l14.68886-25.44241v-9.00391a6.39791,6.39791,0,0,0-1.63256,1.86994l-17.36992,30.08566a6.40391,6.40391,0,0,0,5.54593,9.60588H1247.178A6.40392,6.40392,0,0,0,1252.72392,922.83347Z"/><rect x="1223.75992" y="886.22353" width="6.40382" height="2.09108" rx="0.25672"/><rect x="1223.75992" y="880.51663" width="6.40382" height="2.09108" rx="0.25672"/><rect x="1223.75992" y="874.80973" width="6.40382" height="2.09108" rx="0.25672"/><rect x="1218.42327" y="857.62367" width="22.7695" height="4.98083" rx="0.61149"/><path class="c" d="M1183.70235,908.50952v.00009l-4.98074-8.62677V862.6045h-7.827v12.20522h3.22363a1.04556,1.04556,0,0,1,1.04552,1.04552v0a1.04555,1.04555,0,0,1-1.04552,1.04552h-3.22363v3.6158h3.22363a1.04554,1.04554,0,0,1,0,2.09108h-3.22363v3.61584h3.22363a1.04554,1.04554,0,0,1,0,2.09108h-3.22363v11.56755l-4.98091,8.62737v-.00039l-9.70794,16.815a1.42309,1.42309,0,0,0,1.23235,2.13464h34.74a1.42309,1.42309,0,0,0,1.23235-2.13464Z"/><polygon points="1183.702 908.51 1183.702 861.131 1178.722 861.131 1178.722 899.883 1183.702 908.51"/><polygon points="1170.895 899.882 1170.895 861.131 1165.914 861.131 1165.914 908.51 1170.895 899.882"/><path d="M1197.72392,922.83347,1180.354,892.74781a6.398,6.398,0,0,0-1.63238-1.86981v9.00482l14.68886,25.44137a1.4231,1.4231,0,0,1-1.23235,2.13464h-34.74a1.4231,1.4231,0,0,1-1.23235-2.13464l14.68886-25.44241v-9.00391a6.39791,6.39791,0,0,0-1.63256,1.86994l-17.36992,30.08566a6.40391,6.40391,0,0,0,5.54593,9.60588H1192.178A6.40392,6.40392,0,0,0,1197.72392,922.83347Z"/><rect x="1168.75992" y="886.22353" width="6.40382" height="2.09108" rx="0.25672"/><rect x="1168.75992" y="880.51663" width="6.40382" height="2.09108" rx="0.25672"/><rect x="1168.75992" y="874.80973" width="6.40382" height="2.09108" rx="0.25672"/><rect x="1163.42327" y="857.62367" width="22.7695" height="4.98083" rx="0.61149"/><path class="d" d="M1293.70235,908.50952v.00009l-4.98074-8.62677V862.6045h-7.827v12.20522h3.22363a1.04556,1.04556,0,0,1,1.04552,1.04552v0a1.04555,1.04555,0,0,1-1.04552,1.04552h-3.22363v3.6158h3.22363a1.04554,1.04554,0,0,1,0,2.09108h-3.22363v3.61584h3.22363a1.04554,1.04554,0,0,1,0,2.09108h-3.22363v11.56755l-4.98091,8.62737v-.00039l-9.70794,16.815a1.42309,1.42309,0,0,0,1.23235,2.13464h34.74a1.42309,1.42309,0,0,0,1.23235-2.13464Z"/><polygon points="1293.702 908.51 1293.702 861.131 1288.722 861.131 1288.722 899.883 1293.702 908.51"/><polygon points="1280.895 899.882 1280.895 861.131 1275.914 861.131 1275.914 908.51 1280.895 899.882"/><path d="M1307.72392,922.83347,1290.354,892.74781a6.398,6.398,0,0,0-1.63238-1.86981v9.00482l14.68886,25.44137a1.4231,1.4231,0,0,1-1.23235,2.13464h-34.74a1.4231,1.4231,0,0,1-1.23235-2.13464l14.68886-25.44241v-9.00391a6.39791,6.39791,0,0,0-1.63256,1.86994l-17.36992,30.08566a6.40391,6.40391,0,0,0,5.54593,9.60588H1302.178A6.40392,6.40392,0,0,0,1307.72392,922.83347Z"/><rect x="1278.75992" y="886.22353" width="6.40382" height="2.09108" rx="0.25672"/><rect x="1278.75992" y="880.51663" width="6.40382" height="2.09108" rx="0.25672"/><rect x="1278.75992" y="874.80973" width="6.40382" height="2.09108" rx="0.25672"/><rect x="1273.42327" y="857.62367" width="22.7695" height="4.98083" rx="0.61149"/><path d="M2057.45263,841.66534a28.46188,28.46188,0,0,0-56.92376,0c0,1.46668.11181,32.90778.32684,34.31531h5.05841c-.26123-1.39984-.4043-32.84076-.4043-34.31518a23.481,23.481,0,0,1,46.9621,0v4.34924h15.65387v-4.34937a39.13507,39.13507,0,1,0-78.27014,0c0,1.45917.08636,32.89765.24194,34.31531h5.02124c-.17932-1.41461-.28222-32.85266-.28222-34.31518a34.15427,34.15427,0,0,1,68.30853,0Z"/><path class="a" d="M2037.88506,908.50952v.00009l-4.98074-8.62677V862.6045h-7.827v12.20522h3.22364a1.04556,1.04556,0,0,1,1.04551,1.04552v0a1.04555,1.04555,0,0,1-1.04551,1.04552h-3.22364v3.6158h3.22364a1.04554,1.04554,0,0,1,0,2.09108h-3.22364v3.61584h3.22364a1.04554,1.04554,0,0,1,0,2.09108h-3.22364v11.56755l-4.98091,8.62737v-.00039l-9.70794,16.815a1.42309,1.42309,0,0,0,1.23235,2.13464h34.74a1.42309,1.42309,0,0,0,1.23236-2.13464Z"/><path class="b" d="M2112.39521,846.64629H1945.5865a4.98642,4.98642,0,0,0-4.98083,4.98083v86.80872a4.98664,4.98664,0,0,0,4.98083,4.98082h166.80871a4.98687,4.98687,0,0,0,4.98083-4.98082V851.62712A4.98665,4.98665,0,0,0,2112.39521,846.64629Zm-66.03452,85.793h-34.73993a6.40392,6.40392,0,0,1-5.54593-9.60589l14.02156-24.28609V862.6045a2.49042,2.49042,0,0,1,0-4.98083h17.78867a2.49041,2.49041,0,0,1,0,4.98083v35.94285l14.02156,24.28609A6.40392,6.40392,0,0,1,2046.36069,932.43933Z"/><path class="b" d="M2000.52887,841.66547c0,1.17309.07147,21.47808.21,30.30822v.01581h-5.71826c-.11811-8.82294-.184-29.1543-.184-30.32416a34.15424,34.15424,0,0,1,68.30847,0h-5.69251a28.46185,28.46185,0,1,0-56.9237.00013Z"/><path d="M2112.39509,841.66536H1945.58637a9.96165,9.96165,0,0,0-9.96165,9.96166v86.80872a9.96165,9.96165,0,0,0,9.96165,9.96165h166.80872a9.96165,9.96165,0,0,0,9.96165-9.96165V851.627A9.96165,9.96165,0,0,0,2112.39509,841.66536Zm4.981,96.77051a4.98688,4.98688,0,0,1-4.98083,4.98083H1945.5865a4.98666,4.98666,0,0,1-4.98083-4.98083V851.62715a4.98643,4.98643,0,0,1,4.98083-4.98083h166.80872a4.98666,4.98666,0,0,1,4.98083,4.98083Z"/><polygon points="2037.885 908.51 2037.885 861.131 2032.904 861.131 2032.904 899.883 2037.885 908.51"/><polygon points="2025.077 899.882 2025.077 861.131 2020.096 861.131 2020.096 908.51 2025.077 899.882"/><path d="M2051.90663,922.83347l-17.36993-30.08566a6.39784,6.39784,0,0,0-1.63238-1.86981v9.00482l14.68886,25.44137a1.4231,1.4231,0,0,1-1.23235,2.13464h-34.74a1.4231,1.4231,0,0,1-1.23235-2.13464l14.68886-25.44241v-9.00391a6.39774,6.39774,0,0,0-1.63255,1.86994l-17.36993,30.08566a6.40391,6.40391,0,0,0,5.54593,9.60588h34.73994A6.40391,6.40391,0,0,0,2051.90663,922.83347Z"/><rect x="2022.94263" y="886.22353" width="6.40382" height="2.09108" rx="0.25672"/><rect x="2022.94263" y="880.51663" width="6.40382" height="2.09108" rx="0.25672"/><rect x="2022.94263" y="874.80973" width="6.40382" height="2.09108" rx="0.25672"/><rect x="2017.60598" y="857.62367" width="22.7695" height="4.98083" rx="0.61149"/><path class="c" d="M1982.88506,908.50952v.00009l-4.98074-8.62677V862.6045h-7.827v12.20522h3.22364a1.04556,1.04556,0,0,1,1.04551,1.04552v0a1.04555,1.04555,0,0,1-1.04551,1.04552h-3.22364v3.6158h3.22364a1.04554,1.04554,0,0,1,0,2.09108h-3.22364v3.61584h3.22364a1.04554,1.04554,0,0,1,0,2.09108h-3.22364v11.56755l-4.98091,8.62737v-.00039l-9.70794,16.815a1.42309,1.42309,0,0,0,1.23235,2.13464h34.74a1.42309,1.42309,0,0,0,1.23236-2.13464Z"/><polygon points="1982.885 908.51 1982.885 861.131 1977.904 861.131 1977.904 899.883 1982.885 908.51"/><polygon points="1970.077 899.882 1970.077 861.131 1965.096 861.131 1965.096 908.51 1970.077 899.882"/><path d="M1996.90663,922.83347l-17.36993-30.08566a6.39784,6.39784,0,0,0-1.63238-1.86981v9.00482l14.68886,25.44137a1.4231,1.4231,0,0,1-1.23235,2.13464h-34.74a1.4231,1.4231,0,0,1-1.23235-2.13464l14.68886-25.44241v-9.00391a6.39774,6.39774,0,0,0-1.63255,1.86994l-17.36993,30.08566a6.40391,6.40391,0,0,0,5.54593,9.60588h34.73994A6.40391,6.40391,0,0,0,1996.90663,922.83347Z"/><rect x="1967.94263" y="886.22353" width="6.40382" height="2.09108" rx="0.25672"/><rect x="1967.94263" y="880.51663" width="6.40382" height="2.09108" rx="0.25672"/><rect x="1967.94263" y="874.80973" width="6.40382" height="2.09108" rx="0.25672"/><rect x="1962.60598" y="857.62367" width="22.7695" height="4.98083" rx="0.61149"/><path class="d" d="M2092.88506,908.50952v.00009l-4.98074-8.62677V862.6045h-7.827v12.20522h3.22364a1.04556,1.04556,0,0,1,1.04551,1.04552v0a1.04555,1.04555,0,0,1-1.04551,1.04552h-3.22364v3.6158h3.22364a1.04554,1.04554,0,0,1,0,2.09108h-3.22364v3.61584h3.22364a1.04554,1.04554,0,0,1,0,2.09108h-3.22364v11.56755l-4.98091,8.62737v-.00039l-9.70794,16.815a1.42309,1.42309,0,0,0,1.23235,2.13464h34.74a1.42309,1.42309,0,0,0,1.23236-2.13464Z"/><polygon points="2092.885 908.51 2092.885 861.131 2087.904 861.131 2087.904 899.883 2092.885 908.51"/><polygon points="2080.077 899.882 2080.077 861.131 2075.096 861.131 2075.096 908.51 2080.077 899.882"/><path d="M2106.90663,922.83347l-17.36993-30.08566a6.39784,6.39784,0,0,0-1.63238-1.86981v9.00482l14.68886,25.44137a1.4231,1.4231,0,0,1-1.23235,2.13464h-34.74a1.4231,1.4231,0,0,1-1.23235-2.13464l14.68886-25.44241v-9.00391a6.39774,6.39774,0,0,0-1.63255,1.86994l-17.36993,30.08566a6.40391,6.40391,0,0,0,5.54593,9.60588h34.73994A6.40391,6.40391,0,0,0,2106.90663,922.83347Z"/><rect x="2077.94263" y="886.22353" width="6.40382" height="2.09108" rx="0.25672"/><rect x="2077.94263" y="880.51663" width="6.40382" height="2.09108" rx="0.25672"/><rect x="2077.94263" y="874.80973" width="6.40382" height="2.09108" rx="0.25672"/><rect x="2072.60598" y="857.62367" width="22.7695" height="4.98083" rx="0.61149"/><rect class="e" x="1288.9409" y="604.32117" width="139.32617" height="99.32617" rx="9.5"/><path class="f" d="M1418.76725,606.82068a7.00791,7.00791,0,0,1,7,7v80.32654a7.00791,7.00791,0,0,1-7,7H1298.44071a7.00791,7.00791,0,0,1-7-7V613.82068a7.00791,7.00791,0,0,1,7-7h120.32654m0-5H1298.44071a12.03527,12.03527,0,0,0-12,12v80.32654a12.03528,12.03528,0,0,0,12,12h120.32654a12.03531,12.03531,0,0,0,12-12V613.82068a12.0353,12.0353,0,0,0-12-12Z"/><line class="g" x1="1358.60397" y1="706.14722" x2="1358.60397" y2="713.74144"/><path class="f" d="M1392.88973,716.24168h-68.57129a2.5,2.5,0,0,1,0-5h68.57129a2.5,2.5,0,0,1,0,5Z"/><rect class="e" x="1444.24656" y="605.00281" width="47.89844" height="108.44141" rx="9.5"/><path class="f" d="M1482.64482,607.50317a7.00791,7.00791,0,0,1,7,7v89.44117a7.00791,7.00791,0,0,1-7,7h-28.898a7.0079,7.0079,0,0,1-7-7V614.50317a7.0079,7.0079,0,0,1,7-7h28.898m0-5h-28.898a12.03531,12.03531,0,0,0-12,12v89.44117a12.03531,12.03531,0,0,0,12,12h28.898a12.03532,12.03532,0,0,0,12-12V614.50317a12.03532,12.03532,0,0,0-12-12Z"/><line class="h" x1="1454.23663" y1="616.6394" x2="1482.15499" y2="616.6394"/><line class="h" x1="1454.23663" y1="628.6394" x2="1482.15499" y2="628.6394"/><circle class="f" cx="1468.19581" cy="686.21083" r="3.91837"/><circle class="f" cx="1468.19581" cy="696.21083" r="2.5"/><path class="a" d="M1351.69187,805.32214a32.45508,32.45508,0,1,1,30.55567-43.35449h70.38183a9.2299,9.2299,0,0,1,9.21973,9.21973v3.35937a9.2299,9.2299,0,0,1-9.21973,9.21973h-70.38183A32.62741,32.62741,0,0,1,1351.69187,805.32214Z"/><path class="f" d="M1351.69212,742.91211a29.95192,29.95192,0,0,1,28.7392,21.55591h26.21862v5.35461a1.697,1.697,0,0,0,3.394,0V764.468h8.79351v5.35461a1.69709,1.69709,0,0,0,3.39417,0V764.468h8.57654v5.35461a1.697,1.697,0,0,0,3.394,0V764.468h18.42724a6.7195,6.7195,0,0,1,6.71949,6.71948v3.35974a6.71957,6.71957,0,0,1-6.71949,6.71948h-72.19805a29.94921,29.94921,0,1,1-28.7392-38.35461m0-5a34.95526,34.95526,0,1,0,32.26849,48.35461h68.66876a11.73274,11.73274,0,0,0,11.71949-11.71948V771.1875a11.73274,11.73274,0,0,0-11.71949-11.71948h-68.66876a35.15411,35.15411,0,0,0-32.26849-21.55591Z"/><circle class="f" cx="1336.895" cy="772.828" r="5.71973"/><path class="e" d="M1336.89524,768.10828a4.71948,4.71948,0,1,1-4.71948,4.71948,4.72483,4.72483,0,0,1,4.71948-4.71948m0-2a6.71948,6.71948,0,1,0,6.71949,6.71948,6.7193,6.7193,0,0,0-6.71949-6.71948Z"/><rect class="c" x="1766.65379" y="604.32117" width="139.32715" height="99.32617" rx="9.5"/><path class="f" d="M1896.48045,606.82068a7.00787,7.00787,0,0,1,7,7v80.32654a7.00787,7.00787,0,0,1-7,7H1776.15391a7.00787,7.00787,0,0,1-7-7V613.82068a7.00787,7.00787,0,0,1,7-7h120.32654m0-5H1776.15391a12.0353,12.0353,0,0,0-12,12v80.32654a12.03531,12.03531,0,0,0,12,12h120.32654a12.03523,12.03523,0,0,0,12-12V613.82068a12.03523,12.03523,0,0,0-12-12Z"/><line class="g" x1="1836.31722" y1="706.14722" x2="1836.31722" y2="713.74144"/><path class="f" d="M1870.603,716.24168h-68.57129a2.5,2.5,0,0,1,0-5H1870.603a2.5,2.5,0,0,1,0,5Z"/><rect class="c" x="1921.96043" y="605.00281" width="47.89746" height="108.44141" rx="9.5"/><path class="f" d="M1960.358,607.50317a7.00786,7.00786,0,0,1,7,7v89.44117a7.00786,7.00786,0,0,1-7,7h-28.89795a7.00787,7.00787,0,0,1-7-7V614.50317a7.00787,7.00787,0,0,1,7-7H1960.358m0-5h-28.89795a12.03532,12.03532,0,0,0-12,12v89.44117a12.03532,12.03532,0,0,0,12,12H1960.358a12.03531,12.03531,0,0,0,12-12V614.50317a12.03531,12.03531,0,0,0-12-12Z"/><line class="h" x1="1931.94988" y1="616.6394" x2="1959.86824" y2="616.6394"/><line class="h" x1="1931.94988" y1="628.6394" x2="1959.86824" y2="628.6394"/><circle class="f" cx="1945.90906" cy="686.21083" r="3.91837"/><circle class="f" cx="1945.90906" cy="696.21083" r="2.5"/><path class="c" d="M1829.40574,805.32214a32.45508,32.45508,0,1,1,30.55567-43.35449h70.38085a9.2299,9.2299,0,0,1,9.21973,9.21973v3.35937a9.2299,9.2299,0,0,1-9.21973,9.21973h-70.38085A32.62933,32.62933,0,0,1,1829.40574,805.32214Z"/><path class="f" d="M1829.40538,742.91211a29.95209,29.95209,0,0,1,28.73925,21.55591h26.21863v5.35461a1.697,1.697,0,0,0,3.39392,0V764.468h8.79346v5.35461a1.69708,1.69708,0,0,0,3.39416,0V764.468h8.57654v5.35461a1.697,1.697,0,0,0,3.394,0V764.468h18.42724a6.71949,6.71949,0,0,1,6.71948,6.71948v3.35974a6.71956,6.71956,0,0,1-6.71948,6.71948h-72.198a29.9492,29.9492,0,1,1-28.73925-38.35461m0-5a34.95526,34.95526,0,1,0,32.26855,48.35461h68.6687a11.73273,11.73273,0,0,0,11.71948-11.71948V771.1875a11.73273,11.73273,0,0,0-11.71948-11.71948h-68.6687a35.15432,35.15432,0,0,0-32.26855-21.55591Z"/><path class="f" d="M1814.60887,778.54773a5.71973,5.71973,0,1,1,5.71875-5.71973A5.72566,5.72566,0,0,1,1814.60887,778.54773Z"/><path class="c" d="M1814.6085,768.10828a4.71948,4.71948,0,1,1-4.71948,4.71948,4.72486,4.72486,0,0,1,4.71948-4.71948m0-2a6.71948,6.71948,0,1,0,6.71948,6.71948,6.71933,6.71933,0,0,0-6.71948-6.71948Z"/><rect class="i" x="1527.79734" y="193.45496" width="139.32617" height="99.32715" rx="9.5"/><path class="f" d="M1657.62388,195.9552a7.00787,7.00787,0,0,1,7,7v80.32654a7.00787,7.00787,0,0,1-7,7H1537.29734a7.00791,7.00791,0,0,1-7-7V202.9552a7.00791,7.00791,0,0,1,7-7h120.32654m0-5H1537.29734a12.03527,12.03527,0,0,0-12,12v80.32654a12.03519,12.03519,0,0,0,12,12h120.32654a12.03523,12.03523,0,0,0,12-12V202.9552a12.0353,12.0353,0,0,0-12-12Z"/><line class="g" x1="1597.4606" y1="295.28178" x2="1597.4606" y2="302.87601"/><path class="f" d="M1631.74635,305.37624h-68.57129a2.5,2.5,0,0,1,0-5h68.57129a2.5,2.5,0,0,1,0,5Z"/><rect class="i" x="1683.10301" y="194.13757" width="47.89844" height="108.44141" rx="9.5"/><path class="f" d="M1721.50144,196.63782a7.00785,7.00785,0,0,1,7,7v89.441a7.00786,7.00786,0,0,1-7,7H1692.6035a7.00786,7.00786,0,0,1-7-7v-89.441a7.00785,7.00785,0,0,1,7-7h28.89794m0-5H1692.6035a12.03515,12.03515,0,0,0-12,12v89.441a12.03523,12.03523,0,0,0,12,12h28.89794a12.03531,12.03531,0,0,0,12-12v-89.441a12.03523,12.03523,0,0,0-12-12Z"/><line class="h" x1="1693.09325" y1="205.77396" x2="1721.01162" y2="205.77396"/><line class="h" x1="1693.09325" y1="217.77396" x2="1721.01162" y2="217.77396"/><circle class="f" cx="1707.05243" cy="275.34539" r="3.91837"/><circle class="f" cx="1707.05243" cy="285.34539" r="2.5"/><path class="i" d="M1590.54832,394.45691a32.45508,32.45508,0,1,1,30.55566-43.35449h70.38184a9.2299,9.2299,0,0,1,9.21973,9.21972v3.35938a9.22991,9.22991,0,0,1-9.21973,9.21973H1621.104A32.62739,32.62739,0,0,1,1590.54832,394.45691Z"/><path class="f" d="M1590.54875,332.04663a29.95189,29.95189,0,0,1,28.73919,21.55591h26.21863v5.35461a1.697,1.697,0,0,0,3.394,0v-5.35461h8.79346v5.35461a1.69709,1.69709,0,0,0,3.39417,0v-5.35461h8.57653v5.35461a1.697,1.697,0,0,0,3.39393,0v-5.35461h18.42736a6.71965,6.71965,0,0,1,6.71949,6.71948v3.35974a6.71958,6.71958,0,0,1-6.71949,6.71949h-72.19812a29.9492,29.9492,0,1,1-28.73919-38.35462m0-5a34.95526,34.95526,0,1,0,32.26843,48.35462h68.66888a11.73275,11.73275,0,0,0,11.71949-11.71949V360.322a11.73274,11.73274,0,0,0-11.71949-11.71948h-68.66888a35.154,35.154,0,0,0-32.26843-21.55591Z"/><path class="f" d="M1575.75144,367.68152a5.71924,5.71924,0,1,1,5.71973-5.71875A5.72524,5.72524,0,0,1,1575.75144,367.68152Z"/><path class="i" d="M1575.75187,357.2428a4.71948,4.71948,0,1,1-4.71948,4.71948,4.72483,4.72483,0,0,1,4.71948-4.71948m0-2a6.71948,6.71948,0,1,0,6.71948,6.71948,6.7193,6.7193,0,0,0-6.71948-6.71948Z"/><path d="M1818.596,70.73773a28.46189,28.46189,0,0,0-56.92377,0c0,1.46668.11182,32.90778.32685,34.31531h5.05841c-.26123-1.39984-.4043-32.84076-.4043-34.31518a23.481,23.481,0,0,1,46.9621,0V75.0871h15.65387V70.73773a39.13507,39.13507,0,0,0-78.27015,0c0,1.45917.08637,32.89765.242,34.31531h5.02124c-.17932-1.41461-.28223-32.85266-.28223-34.31518a34.15427,34.15427,0,0,1,68.30853,0Z"/><path class="a" d="M1799.02844,137.58191v.00009l-4.98075-8.62677V91.67689h-7.827v12.20522h3.22363a1.04556,1.04556,0,0,1,1.04552,1.04552v0a1.04556,1.04556,0,0,1-1.04552,1.04552h-3.22363v3.6158h3.22363a1.04554,1.04554,0,0,1,0,2.09108h-3.22363v3.61584h3.22363a1.04554,1.04554,0,0,1,0,2.09108h-3.22363v11.56755l-4.98092,8.62737v-.00039l-9.70794,16.815a1.42309,1.42309,0,0,0,1.23235,2.13464h34.74a1.42309,1.42309,0,0,0,1.23235-2.13464Z"/><path class="b" d="M1873.53859,75.71868H1706.72987a4.98643,4.98643,0,0,0-4.98083,4.98083v86.80872a4.98665,4.98665,0,0,0,4.98083,4.98082h166.80872a4.98687,4.98687,0,0,0,4.98083-4.98082V80.69951A4.98666,4.98666,0,0,0,1873.53859,75.71868Zm-66.03452,85.793h-34.73994a6.40392,6.40392,0,0,1-5.54593-9.60589l14.02156-24.28609V91.67689a2.49042,2.49042,0,0,1,0-4.98083h17.78868a2.49042,2.49042,0,0,1,0,4.98083v35.94285L1813.05,151.90583A6.40392,6.40392,0,0,1,1807.50407,161.51172Z"/><path class="b" d="M1761.67224,70.73786c0,1.17309.07147,21.47808.21,30.30822v.01581h-5.71826c-.1181-8.82294-.184-29.1543-.184-30.32416a34.15424,34.15424,0,0,1,68.30847,0h-5.6925a28.46186,28.46186,0,1,0-56.92371.00013Z"/><path d="M1873.53846,70.73775H1706.72975a9.96165,9.96165,0,0,0-9.96166,9.96166v86.80872a9.96165,9.96165,0,0,0,9.96166,9.96165h166.80871a9.96165,9.96165,0,0,0,9.96166-9.96165V80.69941A9.96165,9.96165,0,0,0,1873.53846,70.73775Zm4.981,96.77051a4.98687,4.98687,0,0,1-4.98083,4.98082H1706.72988a4.98664,4.98664,0,0,1-4.98083-4.98082V80.69954a4.98642,4.98642,0,0,1,4.98083-4.98083h166.80871a4.98665,4.98665,0,0,1,4.98083,4.98083Z"/><polygon points="1799.028 137.582 1799.028 90.203 1794.048 90.203 1794.048 128.955 1799.028 137.582"/><polygon points="1786.221 128.955 1786.221 90.203 1781.24 90.203 1781.24 137.582 1786.221 128.955"/><path d="M1813.05,151.90586l-17.36992-30.08566a6.39813,6.39813,0,0,0-1.63238-1.86981v9.00482l14.68886,25.44137a1.4231,1.4231,0,0,1-1.23236,2.13464h-34.74a1.4231,1.4231,0,0,1-1.23235-2.13464l14.68885-25.44241v-9.00391a6.398,6.398,0,0,0-1.63255,1.86994l-17.36992,30.08566a6.40391,6.40391,0,0,0,5.54593,9.60588h34.73993A6.40391,6.40391,0,0,0,1813.05,151.90586Z"/><rect x="1784.08601" y="115.29592" width="6.40382" height="2.09108" rx="0.25672"/><rect x="1784.08601" y="109.58902" width="6.40382" height="2.09108" rx="0.25672"/><rect x="1784.08601" y="103.88212" width="6.40382" height="2.09108" rx="0.25672"/><rect x="1778.74936" y="86.69606" width="22.7695" height="4.98083" rx="0.61149"/><path class="c" d="M1744.02844,137.58191v.00009l-4.98075-8.62677V91.67689h-7.827v12.20522h3.22363a1.04556,1.04556,0,0,1,1.04552,1.04552v0a1.04556,1.04556,0,0,1-1.04552,1.04552h-3.22363v3.6158h3.22363a1.04554,1.04554,0,0,1,0,2.09108h-3.22363v3.61584h3.22363a1.04554,1.04554,0,0,1,0,2.09108h-3.22363v11.56755l-4.98092,8.62737v-.00039l-9.70794,16.815a1.42309,1.42309,0,0,0,1.23235,2.13464h34.74a1.42309,1.42309,0,0,0,1.23235-2.13464Z"/><polygon points="1744.028 137.582 1744.028 90.203 1739.048 90.203 1739.048 128.955 1744.028 137.582"/><polygon points="1731.221 128.955 1731.221 90.203 1726.24 90.203 1726.24 137.582 1731.221 128.955"/><path d="M1758.05,151.90586l-17.36992-30.08566a6.39813,6.39813,0,0,0-1.63238-1.86981v9.00482l14.68886,25.44137a1.4231,1.4231,0,0,1-1.23236,2.13464h-34.74a1.4231,1.4231,0,0,1-1.23235-2.13464l14.68885-25.44241v-9.00391a6.398,6.398,0,0,0-1.63255,1.86994l-17.36992,30.08566a6.40391,6.40391,0,0,0,5.54593,9.60588h34.73993A6.40391,6.40391,0,0,0,1758.05,151.90586Z"/><rect x="1729.08601" y="115.29592" width="6.40382" height="2.09108" rx="0.25672"/><rect x="1729.08601" y="109.58902" width="6.40382" height="2.09108" rx="0.25672"/><rect x="1729.08601" y="103.88212" width="6.40382" height="2.09108" rx="0.25672"/><rect x="1723.74936" y="86.69606" width="22.7695" height="4.98083" rx="0.61149"/><path class="d" d="M1854.02844,137.58191v.00009l-4.98075-8.62677V91.67689h-7.827v12.20522h3.22363a1.04556,1.04556,0,0,1,1.04552,1.04552v0a1.04556,1.04556,0,0,1-1.04552,1.04552h-3.22363v3.6158h3.22363a1.04554,1.04554,0,0,1,0,2.09108h-3.22363v3.61584h3.22363a1.04554,1.04554,0,0,1,0,2.09108h-3.22363v11.56755l-4.98092,8.62737v-.00039l-9.70794,16.815a1.42309,1.42309,0,0,0,1.23235,2.13464h34.74a1.42309,1.42309,0,0,0,1.23235-2.13464Z"/><polygon points="1854.028 137.582 1854.028 90.203 1849.048 90.203 1849.048 128.955 1854.028 137.582"/><polygon points="1841.221 128.955 1841.221 90.203 1836.24 90.203 1836.24 137.582 1841.221 128.955"/><path d="M1868.05,151.90586l-17.36992-30.08566a6.39813,6.39813,0,0,0-1.63238-1.86981v9.00482l14.68886,25.44137a1.4231,1.4231,0,0,1-1.23236,2.13464h-34.74a1.4231,1.4231,0,0,1-1.23235-2.13464l14.68885-25.44241v-9.00391a6.398,6.398,0,0,0-1.63255,1.86994l-17.36992,30.08566a6.40391,6.40391,0,0,0,5.54593,9.60588h34.73993A6.40391,6.40391,0,0,0,1868.05,151.90586Z"/><rect x="1839.08601" y="115.29592" width="6.40382" height="2.09108" rx="0.25672"/><rect x="1839.08601" y="109.58902" width="6.40382" height="2.09108" rx="0.25672"/><rect x="1839.08601" y="103.88212" width="6.40382" height="2.09108" rx="0.25672"/><rect x="1833.74936" y="86.69606" width="22.7695" height="4.98083" rx="0.61149"/><line class="g" x1="1567.24235" y1="682.29248" x2="1691.55638" y2="682.29248"/><path class="f" d="M1537.06657,682.29248c14.199,5.26856,31.81634,14.25781,42.73675,23.7793l-8.601-23.7793,8.601-23.77441C1568.88291,668.03955,1551.26554,677.02881,1537.06657,682.29248Z"/><path class="f" d="M1721.73216,682.29248c-14.199,5.26856-31.81641,14.25781-42.7367,23.7793l8.601-23.7793-8.601-23.77441C1689.91575,668.03955,1707.53318,677.02881,1721.73216,682.29248Z"/><line class="g" x1="1759.71775" y1="452.93726" x2="1847.62107" y2="540.84058"/><path class="f" d="M1738.38023,431.59973c6.31482,13.76563,12.41589,32.57935,13.405,47.03406l10.73266-22.89636,22.89283-10.72925C1770.95616,444.019,1752.14244,437.918,1738.38023,431.59973Z"/><path class="f" d="M1868.9586,562.1781c-13.76563-6.31482-32.57935-12.41577-47.03394-13.405l22.89636-10.73254,10.72913-22.893C1856.53941,529.60217,1862.64036,548.41589,1868.9586,562.1781Z"/><line class="g" x1="1411.17765" y1="540.84058" x2="1499.08097" y2="452.93726"/><path class="f" d="M1389.84013,562.1781c13.76562-6.31482,32.57941-12.41577,47.034-13.405l-22.89637-10.73254-10.72918-22.893C1402.25938,529.60217,1396.15837,548.41589,1389.84013,562.1781Z"/><path class="f" d="M1520.4185,431.59973c-6.31482,13.76563-12.41583,32.57935-13.405,47.03406l-10.73267-22.89636L1473.388,445.00818C1487.84251,444.019,1506.65629,437.918,1520.4185,431.59973Z"/><path d="M2963.3475,378.48631a28.46188,28.46188,0,0,0-56.92377,0c0,1.46667.11182,32.90777.32685,34.3153h5.05841c-.26123-1.39984-.4043-32.84075-.4043-34.31518a23.481,23.481,0,0,1,46.9621,0v4.34924h15.65387v-4.34936a39.13507,39.13507,0,0,0-78.27014,0c0,1.45916.08636,32.89764.24194,34.3153h5.02124c-.17932-1.41461-.28223-32.85266-.28223-34.31518a34.15427,34.15427,0,0,1,68.30854,0Z"/><path class="a" d="M2943.77993,445.33049v.00008l-4.98074-8.62676V399.42547h-7.827v12.20521h3.22363a1.04556,1.04556,0,0,1,1.04552,1.04552v0a1.04555,1.04555,0,0,1-1.04552,1.04551h-3.22363v3.6158h3.22363a1.04554,1.04554,0,0,1,0,2.09108h-3.22363v3.61585h3.22363a1.04554,1.04554,0,0,1,0,2.09108h-3.22363v11.56754l-4.98091,8.62738v-.00039l-9.70795,16.815a1.4231,1.4231,0,0,0,1.23236,2.13464h34.74a1.4231,1.4231,0,0,0,1.23235-2.13464Z"/><path class="b" d="M3018.29008,383.46726H2851.48136a4.98641,4.98641,0,0,0-4.98082,4.98082V475.2568a4.98664,4.98664,0,0,0,4.98082,4.98083h166.80872a4.98687,4.98687,0,0,0,4.98083-4.98083V388.44808A4.98664,4.98664,0,0,0,3018.29008,383.46726Zm-66.03452,85.793h-34.73994a6.40391,6.40391,0,0,1-5.54593-9.60588l14.02157-24.2861V399.42547a2.49042,2.49042,0,1,1,0-4.98083h17.78867a2.49042,2.49042,0,0,1,0,4.98083v35.94284l14.02156,24.2861A6.40391,6.40391,0,0,1,2952.25556,469.26029Z"/><path class="b" d="M2906.42373,378.48643c0,1.17309.07148,21.47809.21,30.30823v.0158h-5.71826c-.1181-8.82293-.184-29.15429-.184-30.32415a34.15424,34.15424,0,0,1,68.30847,0h-5.6925a28.46186,28.46186,0,1,0-56.92371.00012Z"/><path d="M3018.29,378.48633H2851.48124a9.96165,9.96165,0,0,0-9.96166,9.96165V475.2567a9.96165,9.96165,0,0,0,9.96166,9.96166H3018.29a9.96165,9.96165,0,0,0,9.96166-9.96166V388.448A9.96165,9.96165,0,0,0,3018.29,378.48633Zm4.981,96.7705a4.98687,4.98687,0,0,1-4.98083,4.98083H2851.48137a4.98665,4.98665,0,0,1-4.98083-4.98083V388.44811a4.98642,4.98642,0,0,1,4.98083-4.98082h166.80871a4.98664,4.98664,0,0,1,4.98083,4.98082Z"/><polygon points="2943.78 445.331 2943.78 397.952 2938.799 397.952 2938.799 436.704 2943.78 445.331"/><polygon points="2930.972 436.703 2930.972 397.952 2925.991 397.952 2925.991 445.331 2930.972 436.703"/><path d="M2957.8015,459.65443l-17.36993-30.08565a6.39786,6.39786,0,0,0-1.63238-1.86981v9.00482l14.68886,25.44136a1.4231,1.4231,0,0,1-1.23235,2.13464h-34.74a1.4231,1.4231,0,0,1-1.23235-2.13464l14.68886-25.4424v-9.00391a6.39791,6.39791,0,0,0-1.63256,1.86994l-17.36992,30.08565a6.40391,6.40391,0,0,0,5.54593,9.60588h34.73994A6.40392,6.40392,0,0,0,2957.8015,459.65443Z"/><rect x="2928.8375" y="423.04449" width="6.40382" height="2.09108" rx="0.25672"/><rect x="2928.8375" y="417.33759" width="6.40382" height="2.09108" rx="0.25672"/><rect x="2928.8375" y="411.6307" width="6.40382" height="2.09108" rx="0.25672"/><rect x="2923.50085" y="394.44463" width="22.7695" height="4.98083" rx="0.61149"/><path class="c" d="M2888.77993,445.33049v.00008l-4.98074-8.62676V399.42547h-7.827v12.20521h3.22363a1.04556,1.04556,0,0,1,1.04552,1.04552v0a1.04555,1.04555,0,0,1-1.04552,1.04551h-3.22363v3.6158h3.22363a1.04554,1.04554,0,0,1,0,2.09108h-3.22363v3.61585h3.22363a1.04554,1.04554,0,0,1,0,2.09108h-3.22363v11.56754l-4.98091,8.62738v-.00039l-9.70795,16.815a1.4231,1.4231,0,0,0,1.23236,2.13464h34.74a1.4231,1.4231,0,0,0,1.23235-2.13464Z"/><polygon points="2888.78 445.331 2888.78 397.952 2883.799 397.952 2883.799 436.704 2888.78 445.331"/><polygon points="2875.972 436.703 2875.972 397.952 2870.991 397.952 2870.991 445.331 2875.972 436.703"/><path d="M2902.8015,459.65443l-17.36993-30.08565a6.39786,6.39786,0,0,0-1.63238-1.86981v9.00482l14.68886,25.44136a1.4231,1.4231,0,0,1-1.23235,2.13464h-34.74a1.4231,1.4231,0,0,1-1.23235-2.13464l14.68886-25.4424v-9.00391a6.39791,6.39791,0,0,0-1.63256,1.86994l-17.36992,30.08565a6.40391,6.40391,0,0,0,5.54593,9.60588h34.73994A6.40392,6.40392,0,0,0,2902.8015,459.65443Z"/><rect x="2873.8375" y="423.04449" width="6.40382" height="2.09108" rx="0.25672"/><rect x="2873.8375" y="417.33759" width="6.40382" height="2.09108" rx="0.25672"/><rect x="2873.8375" y="411.6307" width="6.40382" height="2.09108" rx="0.25672"/><rect x="2868.50085" y="394.44463" width="22.7695" height="4.98083" rx="0.61149"/><path class="d" d="M2998.77993,445.33049v.00008l-4.98074-8.62676V399.42547h-7.827v12.20521h3.22363a1.04556,1.04556,0,0,1,1.04552,1.04552v0a1.04555,1.04555,0,0,1-1.04552,1.04551h-3.22363v3.6158h3.22363a1.04554,1.04554,0,0,1,0,2.09108h-3.22363v3.61585h3.22363a1.04554,1.04554,0,0,1,0,2.09108h-3.22363v11.56754l-4.98091,8.62738v-.00039l-9.70795,16.815a1.4231,1.4231,0,0,0,1.23236,2.13464h34.74a1.4231,1.4231,0,0,0,1.23235-2.13464Z"/><polygon points="2998.78 445.331 2998.78 397.952 2993.799 397.952 2993.799 436.704 2998.78 445.331"/><polygon points="2985.972 436.703 2985.972 397.952 2980.991 397.952 2980.991 445.331 2985.972 436.703"/><path d="M3012.8015,459.65443l-17.36993-30.08565a6.39786,6.39786,0,0,0-1.63238-1.86981v9.00482l14.68886,25.44136a1.4231,1.4231,0,0,1-1.23235,2.13464h-34.74a1.4231,1.4231,0,0,1-1.23235-2.13464l14.68886-25.4424v-9.00391a6.39791,6.39791,0,0,0-1.63256,1.86994l-17.36992,30.08565a6.40391,6.40391,0,0,0,5.54593,9.60588h34.73994A6.40392,6.40392,0,0,0,3012.8015,459.65443Z"/><rect x="2983.8375" y="423.04449" width="6.40382" height="2.09108" rx="0.25672"/><rect x="2983.8375" y="417.33759" width="6.40382" height="2.09108" rx="0.25672"/><rect x="2983.8375" y="411.6307" width="6.40382" height="2.09108" rx="0.25672"/><rect x="2978.50085" y="394.44463" width="22.7695" height="4.98083" rx="0.61149"/><path d="M2391.76224,378.48631a28.46188,28.46188,0,0,0-56.92377,0c0,1.46667.11182,32.90777.32684,34.3153h5.05842c-.26124-1.39984-.4043-32.84075-.4043-34.31518a23.481,23.481,0,0,1,46.9621,0v4.34924h15.65387v-4.34936a39.13507,39.13507,0,0,0-78.27015,0c0,1.45916.08637,32.89764.242,34.3153h5.02124c-.17932-1.41461-.28223-32.85266-.28223-34.31518a34.15426,34.15426,0,0,1,68.30853,0Z"/><path class="a" d="M2372.19467,445.33049v.00008l-4.98075-8.62676V399.42547h-7.827v12.20521h3.22363a1.04556,1.04556,0,0,1,1.04552,1.04552v0a1.04556,1.04556,0,0,1-1.04552,1.04551h-3.22363v3.6158h3.22363a1.04554,1.04554,0,0,1,0,2.09108h-3.22363v3.61585h3.22363a1.04554,1.04554,0,0,1,0,2.09108h-3.22363v11.56754l-4.98092,8.62738v-.00039l-9.70794,16.815a1.4231,1.4231,0,0,0,1.23235,2.13464h34.74a1.4231,1.4231,0,0,0,1.23235-2.13464Z"/><path class="b" d="M2446.70482,383.46726H2279.8961a4.98642,4.98642,0,0,0-4.98083,4.98082V475.2568a4.98665,4.98665,0,0,0,4.98083,4.98083h166.80872a4.98687,4.98687,0,0,0,4.98083-4.98083V388.44808A4.98665,4.98665,0,0,0,2446.70482,383.46726Zm-66.03452,85.793h-34.73994a6.40391,6.40391,0,0,1-5.54593-9.60588l14.02156-24.2861V399.42547a2.49041,2.49041,0,0,1,0-4.98083h17.78868a2.49042,2.49042,0,0,1,0,4.98083v35.94284l14.02156,24.2861A6.40391,6.40391,0,0,1,2380.6703,469.26029Z"/><path class="b" d="M2334.83847,378.48643c0,1.17309.07147,21.47809.21,30.30823v.0158h-5.71826c-.1181-8.82293-.184-29.15429-.184-30.32415a34.15424,34.15424,0,0,1,68.30847,0h-5.6925a28.46186,28.46186,0,1,0-56.92371.00012Z"/><path d="M2446.70469,378.48633H2279.896a9.96165,9.96165,0,0,0-9.96166,9.96165V475.2567a9.96165,9.96165,0,0,0,9.96166,9.96166h166.80871a9.96165,9.96165,0,0,0,9.96166-9.96166V388.448A9.96165,9.96165,0,0,0,2446.70469,378.48633Zm4.981,96.7705a4.98687,4.98687,0,0,1-4.98083,4.98083H2279.89611a4.98664,4.98664,0,0,1-4.98083-4.98083V388.44811a4.98642,4.98642,0,0,1,4.98083-4.98082h166.80871a4.98664,4.98664,0,0,1,4.98083,4.98082Z"/><polygon points="2372.195 445.331 2372.195 397.952 2367.214 397.952 2367.214 436.704 2372.195 445.331"/><polygon points="2359.387 436.703 2359.387 397.952 2354.406 397.952 2354.406 445.331 2359.387 436.703"/><path d="M2386.21623,459.65443l-17.36992-30.08565a6.398,6.398,0,0,0-1.63238-1.86981v9.00482l14.68886,25.44136a1.4231,1.4231,0,0,1-1.23236,2.13464h-34.74a1.4231,1.4231,0,0,1-1.23235-2.13464l14.68885-25.4424v-9.00391a6.398,6.398,0,0,0-1.63255,1.86994l-17.36993,30.08565a6.40392,6.40392,0,0,0,5.54594,9.60588h34.73993A6.40391,6.40391,0,0,0,2386.21623,459.65443Z"/><rect x="2357.25223" y="423.04449" width="6.40382" height="2.09108" rx="0.25672"/><rect x="2357.25223" y="417.33759" width="6.40382" height="2.09108" rx="0.25672"/><rect x="2357.25223" y="411.6307" width="6.40382" height="2.09108" rx="0.25672"/><rect x="2351.91558" y="394.44463" width="22.7695" height="4.98083" rx="0.61149"/><path class="c" d="M2317.19467,445.33049v.00008l-4.98075-8.62676V399.42547h-7.827v12.20521h3.22363a1.04556,1.04556,0,0,1,1.04552,1.04552v0a1.04556,1.04556,0,0,1-1.04552,1.04551h-3.22363v3.6158h3.22363a1.04554,1.04554,0,0,1,0,2.09108h-3.22363v3.61585h3.22363a1.04554,1.04554,0,0,1,0,2.09108h-3.22363v11.56754l-4.98092,8.62738v-.00039l-9.70794,16.815a1.4231,1.4231,0,0,0,1.23235,2.13464h34.74a1.4231,1.4231,0,0,0,1.23235-2.13464Z"/><polygon points="2317.195 445.331 2317.195 397.952 2312.214 397.952 2312.214 436.704 2317.195 445.331"/><polygon points="2304.387 436.703 2304.387 397.952 2299.406 397.952 2299.406 445.331 2304.387 436.703"/><path d="M2331.21623,459.65443l-17.36992-30.08565a6.398,6.398,0,0,0-1.63238-1.86981v9.00482l14.68886,25.44136a1.4231,1.4231,0,0,1-1.23236,2.13464h-34.74a1.4231,1.4231,0,0,1-1.23235-2.13464l14.68885-25.4424v-9.00391a6.398,6.398,0,0,0-1.63255,1.86994l-17.36993,30.08565a6.40392,6.40392,0,0,0,5.54594,9.60588h34.73993A6.40391,6.40391,0,0,0,2331.21623,459.65443Z"/><rect x="2302.25223" y="423.04449" width="6.40382" height="2.09108" rx="0.25672"/><rect x="2302.25223" y="417.33759" width="6.40382" height="2.09108" rx="0.25672"/><rect x="2302.25223" y="411.6307" width="6.40382" height="2.09108" rx="0.25672"/><rect x="2296.91558" y="394.44463" width="22.7695" height="4.98083" rx="0.61149"/><path d="M2677.55487,756.80967a28.46189,28.46189,0,0,0-56.92377,0c0,1.46668.11182,32.90778.32685,34.31531h5.05841c-.26123-1.39984-.4043-32.84076-.4043-34.31518a23.481,23.481,0,0,1,46.9621,0V761.159H2688.228v-4.34937a39.13507,39.13507,0,0,0-78.27015,0c0,1.45917.08637,32.89765.242,34.31531h5.02124c-.17932-1.41461-.28223-32.85266-.28223-34.31518a34.15426,34.15426,0,0,1,68.30853,0Z"/><path class="b" d="M2565.68861,761.79058h166.80872a4.981,4.981,0,0,1,4.981,4.981v86.80859a4.98083,4.98083,0,0,1-4.98083,4.98083H2565.68873a4.981,4.981,0,0,1-4.981-4.981V766.77142A4.98083,4.98083,0,0,1,2565.68861,761.79058Z"/><path class="b" d="M2620.6311,756.8098c0,1.17309.07147,21.47809.21,30.30822v.01581h-5.71826c-.1181-8.82293-.184-29.15429-.184-30.32416a34.15424,34.15424,0,0,1,68.30847,0h-5.6925a28.46186,28.46186,0,1,0-56.92371.00013Z"/><path d="M2732.49732,756.8097H2565.68861a9.96165,9.96165,0,0,0-9.96166,9.96165v86.80872a9.96165,9.96165,0,0,0,9.96166,9.96165h166.80871a9.96165,9.96165,0,0,0,9.96166-9.96165V766.77135A9.96165,9.96165,0,0,0,2732.49732,756.8097Zm4.981,96.7705a4.98687,4.98687,0,0,1-4.98083,4.98083H2565.68874a4.98665,4.98665,0,0,1-4.98083-4.98083V766.77148a4.98642,4.98642,0,0,1,4.98083-4.98083h166.80871a4.98665,4.98665,0,0,1,4.98083,4.98083Z"/><path class="c" d="M2602.9873,823.65386v.00008l-4.98074-8.62677V777.74883h-7.827v12.20522h3.22363a1.04556,1.04556,0,0,1,1.04552,1.04552v0a1.04555,1.04555,0,0,1-1.04552,1.04552h-3.22363v3.6158h3.22363a1.04554,1.04554,0,0,1,0,2.09108h-3.22363v3.61585h3.22363a1.04554,1.04554,0,0,1,0,2.09108h-3.22363v11.56754l-4.98092,8.62738v-.0004l-9.70794,16.815a1.42309,1.42309,0,0,0,1.23236,2.13464h34.74a1.42309,1.42309,0,0,0,1.23235-2.13464Z"/><polygon points="2602.987 823.654 2602.987 776.275 2598.007 776.275 2598.007 815.027 2602.987 823.654"/><polygon points="2590.18 815.027 2590.18 776.275 2585.199 776.275 2585.199 823.654 2590.18 815.027"/><path d="M2617.00887,837.9778l-17.36993-30.08566a6.39809,6.39809,0,0,0-1.63238-1.8698v9.00482l14.68886,25.44136a1.4231,1.4231,0,0,1-1.23236,2.13464h-34.74a1.4231,1.4231,0,0,1-1.23235-2.13464l14.68885-25.44241v-9.0039a6.398,6.398,0,0,0-1.63255,1.86993l-17.36992,30.08566a6.40391,6.40391,0,0,0,5.54593,9.60588h34.73993A6.40392,6.40392,0,0,0,2617.00887,837.9778Z"/><rect x="2588.04487" y="801.36786" width="6.40382" height="2.09108" rx="0.25672"/><rect x="2588.04487" y="795.66096" width="6.40382" height="2.09108" rx="0.25672"/><rect x="2588.04487" y="789.95406" width="6.40382" height="2.09108" rx="0.25672"/><rect x="2582.70822" y="772.768" width="22.7695" height="4.98083" rx="0.61149"/><path d="M3077.1462,811.66533a28.46188,28.46188,0,0,0-56.92376,0c0,1.46668.11181,32.90778.32684,34.31531h5.05841c-.26123-1.39984-.4043-32.84076-.4043-34.31519a23.481,23.481,0,0,1,46.9621,0v4.34925h15.65387v-4.34937a39.13507,39.13507,0,1,0-78.27014,0c0,1.45917.08636,32.89764.24194,34.31531h5.02124c-.17932-1.41461-.28222-32.85266-.28222-34.31519a34.15427,34.15427,0,0,1,68.30853,0Z"/><path class="b" d="M2965.27994,846.64624h166.80872a4.981,4.981,0,0,1,4.981,4.981v86.80859a4.98083,4.98083,0,0,1-4.98083,4.98083H2965.28006a4.981,4.981,0,0,1-4.981-4.981V851.62707A4.98083,4.98083,0,0,1,2965.27994,846.64624Z"/><path class="b" d="M3020.22244,811.66545c0,1.1731.07147,21.47809.21,30.30823v.01581h-5.71826c-.11811-8.82294-.184-29.1543-.184-30.32416a34.15424,34.15424,0,0,1,68.30847,0h-5.69251a28.46185,28.46185,0,1,0-56.9237.00012Z"/><path d="M3132.08866,841.66535H2965.27994a9.96164,9.96164,0,0,0-9.96165,9.96166v86.80871a9.96164,9.96164,0,0,0,9.96165,9.96166h166.80872a9.96165,9.96165,0,0,0,9.96165-9.96166V851.627A9.96165,9.96165,0,0,0,3132.08866,841.66535Zm4.981,96.7705a4.98687,4.98687,0,0,1-4.98083,4.98083H2965.28007a4.98665,4.98665,0,0,1-4.98083-4.98083V851.62714a4.98642,4.98642,0,0,1,4.98083-4.98083h166.80872a4.98665,4.98665,0,0,1,4.98083,4.98083Z"/><rect class="e" x="2308.6343" y="604.32117" width="139.32617" height="99.32617" rx="9.5"/><path class="f" d="M2438.46084,606.82068a7.00787,7.00787,0,0,1,7,7v80.32654a7.00787,7.00787,0,0,1-7,7H2318.1343a7.00786,7.00786,0,0,1-7-7V613.82068a7.00786,7.00786,0,0,1,7-7h120.32654m0-5H2318.1343a12.0353,12.0353,0,0,0-12,12v80.32654a12.03531,12.03531,0,0,0,12,12h120.32654a12.03532,12.03532,0,0,0,12-12V613.82068a12.03531,12.03531,0,0,0-12-12Z"/><line class="g" x1="2378.29756" y1="706.14722" x2="2378.29756" y2="713.74144"/><path class="f" d="M2412.58332,716.24168H2344.012a2.5,2.5,0,0,1,0-5h68.57129a2.5,2.5,0,0,1,0,5Z"/><rect class="e" x="2463.93996" y="605.00281" width="47.89844" height="108.44141" rx="9.5"/><path class="f" d="M2502.3384,607.50317a7.00787,7.00787,0,0,1,7,7v89.44117a7.00787,7.00787,0,0,1-7,7h-28.898a7.00787,7.00787,0,0,1-7-7V614.50317a7.00787,7.00787,0,0,1,7-7h28.898m0-5h-28.898a12.03531,12.03531,0,0,0-12,12v89.44117a12.03531,12.03531,0,0,0,12,12h28.898a12.03532,12.03532,0,0,0,12-12V614.50317a12.03532,12.03532,0,0,0-12-12Z"/><line class="h" x1="2473.93022" y1="616.6394" x2="2501.84859" y2="616.6394"/><line class="h" x1="2473.93022" y1="628.6394" x2="2501.84859" y2="628.6394"/><circle class="f" cx="2487.8894" cy="686.21083" r="3.91837"/><circle class="f" cx="2487.8894" cy="696.21083" r="2.5"/><path class="a" d="M2371.38527,805.32214a32.45508,32.45508,0,1,1,30.55567-43.35449h70.38183a9.2299,9.2299,0,0,1,9.21973,9.21973v3.35937a9.2299,9.2299,0,0,1-9.21973,9.21973h-70.38183A32.62741,32.62741,0,0,1,2371.38527,805.32214Z"/><path class="f" d="M2371.38564,742.91211A29.95188,29.95188,0,0,1,2400.1249,764.468h26.21863v5.35461a1.697,1.697,0,0,0,3.394,0V764.468h8.79346v5.35461a1.69708,1.69708,0,0,0,3.39416,0V764.468h8.57654v5.35461a1.697,1.697,0,0,0,3.39392,0V764.468H2472.323a6.71956,6.71956,0,0,1,6.71948,6.71948v3.35974a6.71964,6.71964,0,0,1-6.71948,6.71948H2400.1249a29.9492,29.9492,0,1,1-28.73926-38.35461m0-5a34.95526,34.95526,0,1,0,32.26856,48.35461H2472.323a11.73273,11.73273,0,0,0,11.71948-11.71948V771.1875A11.73273,11.73273,0,0,0,2472.323,759.468H2403.6542a35.15408,35.15408,0,0,0-32.26856-21.55591Z"/><path class="f" d="M2356.5884,778.54773a5.71973,5.71973,0,1,1,5.71973-5.71973A5.72545,5.72545,0,0,1,2356.5884,778.54773Z"/><path class="e" d="M2356.58877,768.10828a4.71948,4.71948,0,1,1-4.71949,4.71948,4.72487,4.72487,0,0,1,4.71949-4.71948m0-2a6.71948,6.71948,0,1,0,6.71948,6.71948,6.71934,6.71934,0,0,0-6.71948-6.71948Z"/><rect class="c" x="2786.34719" y="604.32117" width="139.32715" height="99.32617" rx="9.5"/><path class="f" d="M2916.17409,606.82068a7.00786,7.00786,0,0,1,7,7v80.32654a7.00786,7.00786,0,0,1-7,7H2795.84743a7.00787,7.00787,0,0,1-7-7V613.82068a7.00787,7.00787,0,0,1,7-7h120.32666m0-5H2795.84743a12.03539,12.03539,0,0,0-12,12v80.32654a12.0354,12.0354,0,0,0,12,12h120.32666a12.03523,12.03523,0,0,0,12-12V613.82068a12.03523,12.03523,0,0,0-12-12Z"/><line class="g" x1="2856.01081" y1="706.14722" x2="2856.01081" y2="713.74144"/><path class="f" d="M2890.29657,716.24168h-68.57129a2.5,2.5,0,0,1,0-5h68.57129a2.5,2.5,0,0,1,0,5Z"/><rect class="c" x="2941.65383" y="605.00281" width="47.89746" height="108.44141" rx="9.5"/><path class="f" d="M2980.05153,607.50317a7.00786,7.00786,0,0,1,7,7v89.44117a7.00786,7.00786,0,0,1-7,7h-28.898a7.00787,7.00787,0,0,1-7-7V614.50317a7.00787,7.00787,0,0,1,7-7h28.898m0-5h-28.898a12.0354,12.0354,0,0,0-12,12v89.44117a12.0354,12.0354,0,0,0,12,12h28.898a12.03523,12.03523,0,0,0,12-12V614.50317a12.03523,12.03523,0,0,0-12-12Z"/><line class="h" x1="2951.64347" y1="616.6394" x2="2979.56183" y2="616.6394"/><line class="h" x1="2951.64347" y1="628.6394" x2="2979.56183" y2="628.6394"/><circle class="f" cx="2965.60265" cy="686.21083" r="3.91837"/><circle class="f" cx="2965.60265" cy="696.21083" r="2.5"/><path class="c" d="M2849.09914,805.32214a32.45508,32.45508,0,1,1,30.55567-43.35449h70.38183a9.22969,9.22969,0,0,1,9.21875,9.21973v3.35937a9.22969,9.22969,0,0,1-9.21875,9.21973h-70.38183A32.62933,32.62933,0,0,1,2849.09914,805.32214Z"/><path class="f" d="M2849.0989,742.91211a29.95188,29.95188,0,0,1,28.73926,21.55591h26.21875v5.35461a1.69689,1.69689,0,1,0,3.39379,0V764.468h8.79346v5.35461a1.69715,1.69715,0,0,0,3.39429,0V764.468h8.57641v5.35461a1.697,1.697,0,0,0,3.394,0V764.468h18.42724a6.71942,6.71942,0,0,1,6.71949,6.71948v3.35974a6.7195,6.7195,0,0,1-6.71949,6.71948h-72.198a29.94915,29.94915,0,1,1-28.73926-38.35461m0-5a34.95526,34.95526,0,1,0,32.26855,48.35461h68.6687a11.73274,11.73274,0,0,0,11.71949-11.71948V771.1875a11.73274,11.73274,0,0,0-11.71949-11.71948h-68.6687a35.1542,35.1542,0,0,0-32.26855-21.55591Z"/><circle class="f" cx="2834.30227" cy="772.828" r="5.71973"/><path class="c" d="M2834.302,768.10828a4.71948,4.71948,0,1,1-4.71948,4.71948,4.72486,4.72486,0,0,1,4.71948-4.71948m0-2a6.71948,6.71948,0,1,0,6.71948,6.71948,6.71933,6.71933,0,0,0-6.71948-6.71948Z"/><rect class="i" x="2547.49074" y="193.45496" width="139.32715" height="99.32715" rx="9.5"/><path class="f" d="M2677.3174,195.9552a7.00786,7.00786,0,0,1,7,7v80.32654a7.00786,7.00786,0,0,1-7,7H2556.99086a7.00787,7.00787,0,0,1-7-7V202.9552a7.00787,7.00787,0,0,1,7-7H2677.3174m0-5H2556.99086a12.03531,12.03531,0,0,0-12,12v80.32654a12.03523,12.03523,0,0,0,12,12H2677.3174a12.03515,12.03515,0,0,0,12-12V202.9552a12.03523,12.03523,0,0,0-12-12Z"/><line class="g" x1="2617.15419" y1="295.28178" x2="2617.15419" y2="302.87601"/><path class="f" d="M2651.43994,305.37624h-68.57129a2.5,2.5,0,0,1,0-5h68.57129a2.5,2.5,0,0,1,0,5Z"/><rect class="i" x="2702.79738" y="194.13757" width="47.89746" height="108.44141" rx="9.5"/><path class="f" d="M2741.19509,196.63782a7.00786,7.00786,0,0,1,7,7v89.441a7.00787,7.00787,0,0,1-7,7h-28.898a7.00787,7.00787,0,0,1-7-7v-89.441a7.00786,7.00786,0,0,1,7-7h28.898m0-5h-28.898a12.03515,12.03515,0,0,0-12,12v89.441a12.03523,12.03523,0,0,0,12,12h28.898a12.0354,12.0354,0,0,0,12-12v-89.441a12.03531,12.03531,0,0,0-12-12Z"/><line class="h" x1="2712.78684" y1="205.77396" x2="2740.70521" y2="205.77396"/><line class="h" x1="2712.78684" y1="217.77396" x2="2740.70521" y2="217.77396"/><circle class="f" cx="2726.74603" cy="275.34539" r="3.91837"/><circle class="f" cx="2726.74603" cy="285.34539" r="2.5"/><path class="i" d="M2610.2427,394.45691a32.45508,32.45508,0,1,1,30.55566-43.35449h70.38086a9.2299,9.2299,0,0,1,9.21973,9.21972v3.35938a9.22991,9.22991,0,0,1-9.21973,9.21973h-70.38086A32.62932,32.62932,0,0,1,2610.2427,394.45691Z"/><path class="f" d="M2610.24221,332.04663a29.95188,29.95188,0,0,1,28.73926,21.55591h26.21875v5.35461a1.697,1.697,0,0,0,3.394,0v-5.35461h8.79346v5.35461a1.697,1.697,0,0,0,3.394,0v-5.35461h8.57666v5.35461a1.6969,1.6969,0,1,0,3.3938,0v-5.35461h18.42749a6.71964,6.71964,0,0,1,6.71948,6.71948v3.35974a6.71957,6.71957,0,0,1-6.71948,6.71949h-72.19824a29.94915,29.94915,0,1,1-28.73926-38.35462m0-5a34.95526,34.95526,0,1,0,32.26855,48.35462h68.66895a11.73274,11.73274,0,0,0,11.71948-11.71949V360.322a11.73273,11.73273,0,0,0-11.71948-11.71948h-68.66895a35.1542,35.1542,0,0,0-32.26855-21.55591Z"/><path class="f" d="M2595.44582,367.68152a5.71924,5.71924,0,1,1,5.71875-5.71875A5.72545,5.72545,0,0,1,2595.44582,367.68152Z"/><path class="i" d="M2595.44533,357.2428a4.71948,4.71948,0,1,1-4.71936,4.71948,4.72488,4.72488,0,0,1,4.71936-4.71948m0-2a6.71948,6.71948,0,1,0,6.71949,6.71948,6.71931,6.71931,0,0,0-6.71949-6.71948Z"/><line class="g" x1="2556.76015" y1="682.29248" x2="2711.25002" y2="682.29248"/><path class="f" d="M2741.4258,682.29248c-14.199,5.26856-31.8164,14.25781-42.73681,23.7793l8.60107-23.7793-8.60107-23.77441C2709.6094,668.03955,2727.22683,677.02881,2741.4258,682.29248Z"/><line class="g" x1="2779.4114" y1="452.93726" x2="2888.65212" y2="562.1781"/><path class="f" d="M2758.07375,431.59973c6.31494,13.76563,12.416,32.57935,13.405,47.03406l10.73267-22.89636,22.89282-10.72925C2790.64992,444.019,2771.836,437.918,2758.07375,431.59973Z"/><line class="g" x1="2430.87124" y1="540.84058" x2="2540.11208" y2="431.59973"/><path class="f" d="M2409.53371,562.1781c13.76563-6.31482,32.57935-12.41577,47.03406-13.405l-22.89636-10.73254-10.72925-22.893C2421.953,529.60217,2415.852,548.41589,2409.53371,562.1781Z"/><path class="j" d="M3080.05161,601.82067H3017.317a12.03517,12.03517,0,0,0-12,12v115.7895a12.03517,12.03517,0,0,0,12,12h62.73462a12.03518,12.03518,0,0,0,12-12V613.82067A12.03519,12.03519,0,0,0,3080.05161,601.82067Z"/><path class="c" d="M3080.05161,606.82067a7.008,7.008,0,0,1,7,7v115.7895a7.008,7.008,0,0,1-7,7H3017.317a7.008,7.008,0,0,1-7-7V613.82067a7.008,7.008,0,0,1,7-7h62.73462"/><path class="j" d="M3029.93282,619.21544h-7.69006a.84028.84028,0,0,0-.72766.42009l-3.845,6.6598a.8399.8399,0,0,0,0,.8402l3.845,6.6598a.84029.84029,0,0,0,.72766.4201h7.69006a.84029.84029,0,0,0,.72766-.4201l3.845-6.6598a.8399.8399,0,0,0,0-.8402l-3.845-6.6598A.84028.84028,0,0,0,3029.93282,619.21544Z"/><path class="j" d="M3025.36019,649.44359l-7.7478,13.4197a.84017.84017,0,0,0,.72766,1.2603h15.4956a.84022.84022,0,0,0,.72766-1.2603l-7.7478-13.4197a.8402.8402,0,0,0-1.45532,0Z"/><path class="f" d="M3058.86082,626.247c0,5.30469-1.96777,8.23242-5.42481,8.23242-3.04882,0-5.1123-2.85547-5.16015-8.0166,0-5.23242,2.25586-8.11231,5.42383-8.11231C3056.98875,618.35046,3058.86082,621.2782,3058.86082,626.247Zm-8.47363.24023c0,4.05664,1.249,6.36035,3.16894,6.36035,2.16016,0,3.19238-2.5205,3.19238-6.50488,0-3.83984-.98437-6.36035-3.168-6.36035C3051.73191,619.9823,3050.38719,622.23914,3050.38719,626.48718Z"/><path class="f" d="M3060.97117,632.96765a1.41878,1.41878,0,0,1,1.44043-1.51172,1.51421,1.51421,0,1,1-1.44043,1.51172Z"/><path class="f" d="M3070.35594,620.58289h-.04883l-2.71192,1.46386-.4082-1.6084,3.4082-1.82421h1.79981V634.2157h-2.03906Z"/><path class="f" d="M3058.86082,656.744c0,5.30469-1.96777,8.23242-5.42481,8.23242-3.04882,0-5.1123-2.85547-5.16015-8.0166,0-5.23242,2.25586-8.11231,5.42383-8.11231C3056.98875,648.84753,3058.86082,651.77527,3058.86082,656.744Zm-8.47363.24023c0,4.05664,1.249,6.36035,3.16894,6.36035,2.16016,0,3.19238-2.5205,3.19238-6.50488,0-3.83984-.98437-6.36035-3.168-6.36035C3051.73191,650.47937,3050.38719,652.73621,3050.38719,656.98425Z"/><path class="f" d="M3060.97117,663.46472a1.41878,1.41878,0,0,1,1.44043-1.51172,1.51421,1.51421,0,1,1-1.44043,1.51172Z"/><path class="f" d="M3075.89988,649.11121v1.39257l-6.792,14.209h-2.18457l6.76855-13.80078v-.04883h-7.63281v-1.75195Z"/><circle class="f" cx="3048.6843" cy="681.71542" r="4.04082"/><circle class="f" cx="3048.6843" cy="701.71542" r="4.04082"/><circle class="f" cx="3048.6843" cy="721.71542" r="4.04082"/><line class="g" x1="1062.65321" x2="1062.65321" y2="6"/><line class="n" x1="1062.65321" y1="17.87341" x2="1062.65321" y2="938.06335"/><line class="g" x1="1062.65321" y1="944.00012" x2="1062.65321" y2="950.00012"/><line class="g" x1="2196.14553" x2="2196.14553" y2="6"/><line class="n" x1="2196.14553" y1="17.87341" x2="2196.14553" y2="938.06335"/><line class="g" x1="2196.14553" y1="944.00012" x2="2196.14553" y2="950.00012"/></svg>