<svg xmlns="http://www.w3.org/2000/svg" xmlns:xlink="http://www.w3.org/1999/xlink" width="643.7484" height="220.0959" viewBox="0 0 643.7484 220.0959"><defs><style>.a,.b{fill:none;}.b{stroke:#231f20;stroke-width:2.16px;}.c{fill:url(#a);}.d{fill:#231f20;}.e{fill:#f7941d;}.f{fill:#fff;}.g{fill:#00a14b;}.h{fill:#009444;}.i{fill:#92278f;}.j{fill:#1c75bc;}.k{fill:#be1e2d;}.l{fill:#666766;}</style><pattern id="a" width="72" height="72" patternTransform="translate(-19.6765 -48.791) scale(0.5 0.9867)" patternUnits="userSpaceOnUse" viewBox="0 0 72 72"><rect class="a" width="72" height="72"/><line class="b" x1="71.75" y1="68.3994" x2="144.25" y2="68.3994"/><line class="b" x1="71.75" y1="54" x2="144.25" y2="54"/><line class="b" x1="71.75" y1="39.5996" x2="144.25" y2="39.5996"/><line class="b" x1="71.75" y1="25.2002" x2="144.25" y2="25.2002"/><line class="b" x1="71.75" y1="10.7998" x2="144.25" y2="10.7998"/><line class="b" x1="71.75" y1="61.2002" x2="144.25" y2="61.2002"/><line class="b" x1="71.75" y1="46.7998" x2="144.25" y2="46.7998"/><line class="b" x1="71.75" y1="32.3994" x2="144.25" y2="32.3994"/><line class="b" x1="71.75" y1="18" x2="144.25" y2="18"/><line class="b" x1="71.75" y1="3.5996" x2="144.25" y2="3.5996"/><line class="b" x1="-0.25" y1="68.3994" x2="72.25" y2="68.3994"/><line class="b" x1="-0.25" y1="54" x2="72.25" y2="54"/><line class="b" x1="-0.25" y1="39.5996" x2="72.25" y2="39.5996"/><line class="b" x1="-0.25" y1="25.2002" x2="72.25" y2="25.2002"/><line class="b" x1="-0.25" y1="10.7998" x2="72.25" y2="10.7998"/><line class="b" x1="-0.25" y1="61.2002" x2="72.25" y2="61.2002"/><line class="b" x1="-0.25" y1="46.7998" x2="72.25" y2="46.7998"/><line class="b" x1="-0.25" y1="32.3994" x2="72.25" y2="32.3994"/><line class="b" x1="-0.25" y1="18" x2="72.25" y2="18"/><line class="b" x1="-0.25" y1="3.5996" x2="72.25" y2="3.5996"/><line class="b" x1="-72.25" y1="68.3994" x2="0.25" y2="68.3994"/><line class="b" x1="-72.25" y1="54" x2="0.25" y2="54"/><line class="b" x1="-72.25" y1="39.5996" x2="0.25" y2="39.5996"/><line class="b" x1="-72.25" y1="25.2002" x2="0.25" y2="25.2002"/><line class="b" x1="-72.25" y1="10.7998" x2="0.25" y2="10.7998"/><line class="b" x1="-72.25" y1="61.2002" x2="0.25" y2="61.2002"/><line class="b" x1="-72.25" y1="46.7998" x2="0.25" y2="46.7998"/><line class="b" x1="-72.25" y1="32.3994" x2="0.25" y2="32.3994"/><line class="b" x1="-72.25" y1="18" x2="0.25" y2="18"/><line class="b" x1="-72.25" y1="3.5996" x2="0.25" y2="3.5996"/></pattern></defs><rect class="c" x="349.7951" width="5.0152" height="220.0959"/><path class="d" d="M62.8356,18.0215V2.9893H65.83l3.5586,10.6435q.4923,1.4868.7178,2.2251.2563-.82.8-2.41l3.6-10.4589h2.6758V18.0215h-1.918V5.44L70.8961,18.0215H69.1012L64.7536,5.2246V18.0215Z"/><path class="d" d="M79.4684,12.5767A5.613,5.613,0,0,1,81.15,8.0957a5.0647,5.0647,0,0,1,3.4238-1.21,4.8885,4.8885,0,0,1,3.6719,1.4717,5.6016,5.6016,0,0,1,1.4248,4.0655,7.2088,7.2088,0,0,1-.63,3.3066,4.4747,4.4747,0,0,1-1.836,1.8716,5.3452,5.3452,0,0,1-2.6308.6665,4.8928,4.8928,0,0,1-3.6953-1.4663A5.8509,5.8509,0,0,1,79.4684,12.5767Zm1.8965,0a4.6421,4.6421,0,0,0,.9121,3.1323,3.039,3.039,0,0,0,4.584-.0049,4.7484,4.7484,0,0,0,.9121-3.189,4.4983,4.4983,0,0,0-.918-3.061,3.0428,3.0428,0,0,0-4.5781-.0049A4.6227,4.6227,0,0,0,81.3649,12.5767Z"/><path class="d" d="M91.8336,18.0215V7.1318h1.6622V8.68a3.9127,3.9127,0,0,1,3.4648-1.7945,4.5588,4.5588,0,0,1,1.8105.3536,2.8521,2.8521,0,0,1,1.2354.9282,3.563,3.563,0,0,1,.5742,1.3637,10.5633,10.5633,0,0,1,.1026,1.7945v6.6958H98.8376v-6.624a4.9976,4.9976,0,0,0-.2149-1.6866,1.7808,1.7808,0,0,0-.7646-.8925,2.4328,2.4328,0,0,0-1.2862-.333,2.9913,2.9913,0,0,0-2.0361.7485,3.6905,3.6905,0,0,0-.8564,2.84v5.9473Z"/><path class="d" d="M110.9684,14.5146l1.9063.2359a4.6531,4.6531,0,0,1-1.6709,2.5942,5.6607,5.6607,0,0,1-6.9053-.5488,5.7462,5.7462,0,0,1-1.4-4.127,6.0174,6.0174,0,0,1,1.415-4.2656,4.79,4.79,0,0,1,3.6709-1.5176,4.6554,4.6554,0,0,1,3.5684,1.4869,5.9074,5.9074,0,0,1,1.3848,4.1836c0,.1093-.0039.2734-.0108.4921h-8.1211a4.19,4.19,0,0,0,1.0147,2.7481,3.0237,3.0237,0,0,0,2.2773.9536,2.8244,2.8244,0,0,0,1.7324-.5332A3.5461,3.5461,0,0,0,110.9684,14.5146Zm-6.0605-2.9838h6.08a3.6889,3.6889,0,0,0-.6972-2.0611,2.8279,2.8279,0,0,0-2.2862-1.0664,2.93,2.93,0,0,0-2.1376.8511A3.366,3.366,0,0,0,104.9079,11.5308Z"/><path class="d" d="M115.111,22.2153l-.2051-1.7329a4.1032,4.1032,0,0,0,1.0557.1641,2.0271,2.0271,0,0,0,.9844-.2051,1.6675,1.6675,0,0,0,.6044-.5742,8.9333,8.9333,0,0,0,.5645-1.374q.0513-.1539.1641-.4512l-4.1329-10.91h1.99l2.2656,6.3062q.441,1.2.7891,2.5224a24.8459,24.8459,0,0,1,.76-2.4814l2.3272-6.3472h1.8457l-4.1426,11.0743a21.7055,21.7055,0,0,1-1.0361,2.4711,3.6479,3.6479,0,0,1-1.127,1.3384,2.6678,2.6678,0,0,1-1.5176.4253A3.6963,3.6963,0,0,1,115.111,22.2153Z"/><path class="d" d="M131.486,18.0215V2.9893h1.8457V18.0215Z"/><path class="d" d="M143.2985,16.6782a6.8789,6.8789,0,0,1-1.9736,1.23,5.7116,5.7116,0,0,1-2.0362.3589,3.957,3.957,0,0,1-2.7578-.877,2.8924,2.8924,0,0,1-.9639-2.24,2.9718,2.9718,0,0,1,.3643-1.4609,3.009,3.009,0,0,1,.9531-1.0616,4.4825,4.4825,0,0,1,1.3282-.605,13.195,13.195,0,0,1,1.6406-.2768,16.853,16.853,0,0,0,3.291-.6357c.0078-.253.0107-.4136.0107-.482a2.0414,2.0414,0,0,0-.5224-1.5893,3.0922,3.0922,0,0,0-2.1026-.6255,3.2612,3.2612,0,0,0-1.9228.4565,2.79,2.79,0,0,0-.918,1.6148l-1.8047-.2461a4.476,4.476,0,0,1,.8106-1.8716,3.5521,3.5521,0,0,1,1.6308-1.0967,7.2581,7.2581,0,0,1,2.4707-.3848,6.5331,6.5331,0,0,1,2.2657.3282,2.985,2.985,0,0,1,1.2822.8252,2.9074,2.9074,0,0,1,.5742,1.2563,10.3782,10.3782,0,0,1,.0928,1.7022v2.4609a26.2559,26.2559,0,0,0,.1172,3.2554,4.0914,4.0914,0,0,0,.4668,1.3076h-1.9278A3.9139,3.9139,0,0,1,143.2985,16.6782Zm-.1543-4.122a13.5319,13.5319,0,0,1-3.0137.6972,6.9614,6.9614,0,0,0-1.61.3692,1.599,1.599,0,0,0-.7276.6,1.63,1.63,0,0,0,.3018,2.1069,2.4045,2.4045,0,0,0,1.6357.4922,3.8019,3.8019,0,0,0,1.8965-.4663,2.8691,2.8691,0,0,0,1.2207-1.2769,4.4587,4.4587,0,0,0,.2969-1.8457Z"/><path class="d" d="M155.0085,18.0215v-1.6a3.9858,3.9858,0,0,1-3.4561,1.8457,4.398,4.398,0,0,1-1.7988-.3692,2.9561,2.9561,0,0,1-1.24-.9277,3.46,3.46,0,0,1-.57-1.3691,9.4747,9.4747,0,0,1-.1123-1.7227V7.1318h1.8457v6.04a10.8728,10.8728,0,0,0,.1123,1.9482,1.9319,1.9319,0,0,0,.7383,1.1431,2.2887,2.2887,0,0,0,1.3945.4155,3.032,3.032,0,0,0,1.5586-.4253,2.3643,2.3643,0,0,0,1.0313-1.1591,5.8206,5.8206,0,0,0,.3027-2.1275V7.1318H156.66v10.89Z"/><path class="d" d="M159.55,18.0215V7.1318h1.6622V8.68a3.9127,3.9127,0,0,1,3.4648-1.7945,4.5592,4.5592,0,0,1,1.81.3536,2.8521,2.8521,0,0,1,1.2354.9282,3.563,3.563,0,0,1,.5742,1.3637,10.5633,10.5633,0,0,1,.1026,1.7945v6.6958h-1.8457v-6.624a4.9976,4.9976,0,0,0-.2149-1.6866,1.7808,1.7808,0,0,0-.7646-.8925,2.4331,2.4331,0,0,0-1.2862-.333,2.9913,2.9913,0,0,0-2.0361.7485,3.6905,3.6905,0,0,0-.8565,2.84v5.9473Z"/><path class="d" d="M178.2946,18.0215v-1.374a3.3853,3.3853,0,0,1-3.0449,1.62,4.2725,4.2725,0,0,1-2.3946-.7178,4.717,4.717,0,0,1-1.6914-2.0049,6.9181,6.9181,0,0,1-.6-2.958,7.7418,7.7418,0,0,1,.543-2.958,4.2875,4.2875,0,0,1,1.6308-2.0356,4.3574,4.3574,0,0,1,2.43-.7076,3.6265,3.6265,0,0,1,3.0039,1.4971V2.9893h1.836V18.0215Zm-5.834-5.4346a4.73,4.73,0,0,0,.8818,3.1275,2.66,2.66,0,0,0,2.0811,1.0356,2.612,2.612,0,0,0,2.0566-.9893,4.56,4.56,0,0,0,.8457-3.02,5.1208,5.1208,0,0,0-.8613-3.2812,2.6486,2.6486,0,0,0-2.123-1.0459,2.5527,2.5527,0,0,0-2.0547,1.0049A4.9561,4.9561,0,0,0,172.4606,12.5869Z"/><path class="d" d="M190.3639,14.5146l1.9072.2359a4.6486,4.6486,0,0,1-1.6718,2.5942,5.6607,5.6607,0,0,1-6.9053-.5488,5.7458,5.7458,0,0,1-1.3994-4.127,6.0171,6.0171,0,0,1,1.414-4.2656,4.7922,4.7922,0,0,1,3.6719-1.5176,4.6582,4.6582,0,0,1,3.5684,1.4869,5.9116,5.9116,0,0,1,1.3838,4.1836c0,.1093-.003.2734-.0108.4921h-8.1211a4.1853,4.1853,0,0,0,1.0157,2.7481,3.0214,3.0214,0,0,0,2.2763.9536,2.8254,2.8254,0,0,0,1.7334-.5332A3.54,3.54,0,0,0,190.3639,14.5146Zm-6.06-2.9838h6.08a3.6889,3.6889,0,0,0-.6972-2.0611A2.8285,2.8285,0,0,0,187.4,8.4033a2.9305,2.9305,0,0,0-2.1377.8511A3.3653,3.3653,0,0,0,184.3044,11.5308Z"/><path class="d" d="M194.568,18.0215V7.1318h1.6612V8.7827a4.4986,4.4986,0,0,1,1.1748-1.5278,2.0438,2.0438,0,0,1,1.1836-.3692,3.5982,3.5982,0,0,1,1.8964.5948l-.6347,1.7124a2.6411,2.6411,0,0,0-1.3535-.4,1.761,1.761,0,0,0-1.0879.3642,1.977,1.977,0,0,0-.6866,1.01,7.1914,7.1914,0,0,0-.3076,2.1533v5.7012Z"/><path class="d" d="M201.5915,5.1118V2.9893h1.8457V5.1118Zm0,12.91V7.1318h1.8457v10.89Z"/><path class="d" d="M206.2477,18.0215V7.1318h1.66V8.68a3.916,3.916,0,0,1,3.4668-1.7945,4.5543,4.5543,0,0,1,1.81.3536,2.8533,2.8533,0,0,1,1.2354.9282,3.563,3.563,0,0,1,.5742,1.3637,10.5662,10.5662,0,0,1,.1025,1.7945v6.6958h-1.8457v-6.624a4.9427,4.9427,0,0,0-.2158-1.6866,1.7741,1.7741,0,0,0-.7637-.8925,2.4336,2.4336,0,0,0-1.2871-.333,2.9906,2.9906,0,0,0-2.0351.7485,3.6946,3.6946,0,0,0-.8555,2.84v5.9473Z"/><path class="d" d="M217.5876,18.9238l1.7949.2666a1.71,1.71,0,0,0,.625,1.21,3.0763,3.0763,0,0,0,1.8769.5127,3.2936,3.2936,0,0,0,1.9785-.5127,2.523,2.523,0,0,0,.9434-1.4356,11.7774,11.7774,0,0,0,.1338-2.3686,3.7962,3.7962,0,0,1-3.0147,1.4253,4.111,4.111,0,0,1-3.4765-1.62,6.2392,6.2392,0,0,1-1.2305-3.8863,7.2356,7.2356,0,0,1,.5645-2.8764,4.5152,4.5152,0,0,1,1.6347-2.0352,4.4205,4.4205,0,0,1,2.5176-.7178,3.9058,3.9058,0,0,1,3.18,1.5586V7.1318h1.7012v9.4131a8.9229,8.9229,0,0,1-.5176,3.6045,3.795,3.795,0,0,1-1.6406,1.6763,5.6865,5.6865,0,0,1-2.7637.6152,5.2136,5.2136,0,0,1-3.1475-.8764A2.9659,2.9659,0,0,1,217.5876,18.9238Zm1.5283-6.542a4.73,4.73,0,0,0,.8506,3.1275,2.8076,2.8076,0,0,0,4.2656.0053,4.5711,4.5711,0,0,0,.8613-3.0712,4.463,4.463,0,0,0-.8867-3.0147,2.7431,2.7431,0,0,0-2.1377-1.0151,2.6655,2.6655,0,0,0-2.0918.9995A4.4414,4.4414,0,0,0,219.1159,12.3818Z"/><path class="d" d="M235.44,22.1948V7.1318h1.6816V8.5469a4.16,4.16,0,0,1,1.3428-1.2461,3.7,3.7,0,0,1,1.8154-.4151,4.3035,4.3035,0,0,1,2.461.7178,4.4105,4.4105,0,0,1,1.61,2.0254,7.4078,7.4078,0,0,1,.543,2.8657,7.2686,7.2686,0,0,1-.6,3.0093,4.5187,4.5187,0,0,1-1.7442,2.0508,4.4715,4.4715,0,0,1-2.4043.7129,3.4754,3.4754,0,0,1-1.6562-.39,3.7739,3.7739,0,0,1-1.2041-.9843v5.3012Zm1.6709-9.5566a4.7364,4.7364,0,0,0,.8516,3.1069,2.6089,2.6089,0,0,0,2.06,1.0049,2.6669,2.6669,0,0,0,2.1074-1.041,4.9391,4.9391,0,0,0,.877-3.2246,4.8141,4.8141,0,0,0-.8555-3.1172,2.5822,2.5822,0,0,0-2.0469-1.0357,2.66,2.66,0,0,0-2.0859,1.1021A4.93,4.93,0,0,0,237.111,12.6382Z"/><path class="d" d="M254.2253,16.6782a6.878,6.878,0,0,1-1.9737,1.23,5.7052,5.7052,0,0,1-2.0351.3589,3.9563,3.9563,0,0,1-2.7588-.877,2.8924,2.8924,0,0,1-.9639-2.24,3.0393,3.0393,0,0,1,1.3174-2.5225,4.4924,4.4924,0,0,1,1.3281-.605,13.1984,13.1984,0,0,1,1.6406-.2768,16.8953,16.8953,0,0,0,3.292-.6357c.0059-.253.01-.4136.01-.482a2.0341,2.0341,0,0,0-.5234-1.5893,3.0858,3.0858,0,0,0-2.1016-.6255,3.2594,3.2594,0,0,0-1.9229.4565,2.7844,2.7844,0,0,0-.9169,1.6148l-1.8047-.2461a4.4753,4.4753,0,0,1,.81-1.8716,3.5491,3.5491,0,0,1,1.63-1.0967,7.264,7.264,0,0,1,2.4717-.3848,6.546,6.546,0,0,1,2.2666.3282,2.9928,2.9928,0,0,1,1.2812.8252,2.9063,2.9063,0,0,1,.5743,1.2563,10.4116,10.4116,0,0,1,.0918,1.7022v2.4609a25.995,25.995,0,0,0,.1181,3.2554,4.118,4.118,0,0,0,.4668,1.3076h-1.9277A3.9117,3.9117,0,0,1,254.2253,16.6782Zm-.1534-4.122a13.5549,13.5549,0,0,1-3.0156.6972,6.978,6.978,0,0,0-1.6094.3692,1.6119,1.6119,0,0,0-.7285.6,1.6326,1.6326,0,0,0,.3027,2.1069,2.4063,2.4063,0,0,0,1.6358.4922,3.8113,3.8113,0,0,0,1.8975-.4663,2.878,2.878,0,0,0,1.22-1.2769,4.4582,4.4582,0,0,0,.2978-1.8457Z"/><path class="d" d="M262.8278,16.3706l.2676,1.63a6.8448,6.8448,0,0,1-1.3946.164,3.1576,3.1576,0,0,1-1.5586-.3178,1.78,1.78,0,0,1-.7793-.8355,6.6047,6.6047,0,0,1-.2265-2.1792V8.5674h-1.3535V7.1318h1.3535V4.4351l1.8359-1.1075V7.1318h1.8555V8.5674h-1.8555v6.3677A3.1963,3.1963,0,0,0,261.07,15.95a.7593.7593,0,0,0,.3183.3589,1.2246,1.2246,0,0,0,.63.1333A5.9781,5.9781,0,0,0,262.8278,16.3706Z"/><path class="d" d="M268.6628,16.3706l.2666,1.63a6.8448,6.8448,0,0,1-1.3946.164,3.1576,3.1576,0,0,1-1.5586-.3178,1.78,1.78,0,0,1-.7793-.8355,6.61,6.61,0,0,1-.2256-2.1792V8.5674h-1.3535V7.1318h1.3535V4.4351l1.835-1.1075V7.1318h1.8565V8.5674h-1.8565v6.3677a3.2275,3.2275,0,0,0,.0977,1.0151.7646.7646,0,0,0,.3183.3589,1.2284,1.2284,0,0,0,.6309.1333A5.9913,5.9913,0,0,0,268.6628,16.3706Z"/><path class="d" d="M277.9215,14.5146l1.9082.2359a4.6538,4.6538,0,0,1-1.6718,2.5942,5.6622,5.6622,0,0,1-6.9063-.5488,5.7458,5.7458,0,0,1-1.3994-4.127,6.0174,6.0174,0,0,1,1.415-4.2656,4.79,4.79,0,0,1,3.6709-1.5176,4.6554,4.6554,0,0,1,3.5684,1.4869,5.907,5.907,0,0,1,1.3838,4.1836c0,.1093-.0029.2734-.01.4921h-8.1211a4.18,4.18,0,0,0,1.0157,2.7481,3.0192,3.0192,0,0,0,2.2753.9536,2.8233,2.8233,0,0,0,1.7334-.5332A3.5319,3.5319,0,0,0,277.9215,14.5146Zm-6.0595-2.9838h6.081a3.6889,3.6889,0,0,0-.6972-2.0611,2.83,2.83,0,0,0-2.2872-1.0664,2.9344,2.9344,0,0,0-2.1386.8511A3.37,3.37,0,0,0,271.862,11.5308Z"/><path class="d" d="M282.1266,18.0215V7.1318h1.66V8.7827a4.4986,4.4986,0,0,1,1.1748-1.5278,2.0468,2.0468,0,0,1,1.1845-.3692,3.6009,3.6009,0,0,1,1.8965.5948l-.6357,1.7124a2.6411,2.6411,0,0,0-1.3535-.4,1.7584,1.7584,0,0,0-1.0869.3642,1.9718,1.9718,0,0,0-.6875,1.01,7.1886,7.1886,0,0,0-.3067,2.1533v5.7012Z"/><path class="d" d="M289.14,18.0215V7.1318h1.66V8.68a3.9162,3.9162,0,0,1,3.4668-1.7945,4.5547,4.5547,0,0,1,1.81.3536,2.8533,2.8533,0,0,1,1.2354.9282,3.563,3.563,0,0,1,.5742,1.3637,10.577,10.577,0,0,1,.1025,1.7945v6.6958h-1.8457v-6.624a4.9452,4.9452,0,0,0-.2158-1.6866,1.7741,1.7741,0,0,0-.7637-.8925,2.4336,2.4336,0,0,0-1.2871-.333,2.9906,2.9906,0,0,0-2.0351.7485,3.6942,3.6942,0,0,0-.8555,2.84v5.9473Z"/><path class="d" d="M467.7428,18.0215V2.9893h1.9893V16.2476h7.4033v1.7739Z"/><path class="d" d="M478.5817,12.5767a5.6129,5.6129,0,0,1,1.6816-4.481,5.0677,5.0677,0,0,1,3.4248-1.21,4.8861,4.8861,0,0,1,3.6709,1.4717,5.5974,5.5974,0,0,1,1.4248,4.0655,7.209,7.209,0,0,1-.63,3.3066,4.4689,4.4689,0,0,1-1.836,1.8716,5.3446,5.3446,0,0,1-2.63.6665,4.8935,4.8935,0,0,1-3.6962-1.4663A5.8548,5.8548,0,0,1,478.5817,12.5767Zm1.8965,0a4.6368,4.6368,0,0,0,.9131,3.1323,3.0379,3.0379,0,0,0,4.583-.0049,4.7483,4.7483,0,0,0,.9131-3.189,4.5034,4.5034,0,0,0-.918-3.061,3.0428,3.0428,0,0,0-4.5781-.0049A4.6174,4.6174,0,0,0,480.4782,12.5767Z"/><path class="d" d="M498.0534,14.0327l1.8154.2359a4.7036,4.7036,0,0,1-1.5234,2.9375,4.4311,4.4311,0,0,1-3.0088,1.0615,4.6789,4.6789,0,0,1-3.5947-1.461,5.9319,5.9319,0,0,1-1.3584-4.1889,7.5812,7.5812,0,0,1,.5849-3.0865,4.0789,4.0789,0,0,1,1.7783-1.9843,5.2852,5.2852,0,0,1,2.6-.6612,4.5206,4.5206,0,0,1,2.9024.8975,4.1131,4.1131,0,0,1,1.4453,2.5479l-1.7939.2768a2.9783,2.9783,0,0,0-.9082-1.6509,2.3458,2.3458,0,0,0-1.5733-.5537,2.8645,2.8645,0,0,0-2.2666,1,4.7448,4.7448,0,0,0-.8711,3.1631,4.9064,4.9064,0,0,0,.8408,3.189,2.7363,2.7363,0,0,0,2.1944.9946,2.5849,2.5849,0,0,0,1.8144-.6665A3.3073,3.3073,0,0,0,498.0534,14.0327Z"/><path class="d" d="M508.5534,16.6782a6.878,6.878,0,0,1-1.9737,1.23,5.7052,5.7052,0,0,1-2.0351.3589,3.958,3.958,0,0,1-2.7588-.877,2.8924,2.8924,0,0,1-.9639-2.24,2.9718,2.9718,0,0,1,.3643-1.4609,3.0081,3.0081,0,0,1,.9531-1.0616,4.4947,4.4947,0,0,1,1.3281-.605,13.1973,13.1973,0,0,1,1.6407-.2768A16.8825,16.8825,0,0,0,508.4,11.11c.0068-.253.01-.4136.01-.482a2.0377,2.0377,0,0,0-.5224-1.5893,3.09,3.09,0,0,0-2.1026-.6255,3.2612,3.2612,0,0,0-1.9228.4565,2.7892,2.7892,0,0,0-.917,1.6148l-1.8047-.2461a4.4754,4.4754,0,0,1,.81-1.8716,3.5516,3.5516,0,0,1,1.6308-1.0967,7.2581,7.2581,0,0,1,2.4707-.3848,6.5421,6.5421,0,0,1,2.2666.3282,2.9876,2.9876,0,0,1,1.2813.8252,2.9074,2.9074,0,0,1,.5742,1.2563,10.3782,10.3782,0,0,1,.0928,1.7022v2.4609a26.2559,26.2559,0,0,0,.1172,3.2554,4.1156,4.1156,0,0,0,.4668,1.3076h-1.9278A3.9139,3.9139,0,0,1,508.5534,16.6782Zm-.1533-4.122a13.5447,13.5447,0,0,1-3.0147.6972,6.9736,6.9736,0,0,0-1.61.3692,1.6037,1.6037,0,0,0-.7276.6,1.63,1.63,0,0,0,.3018,2.1069,2.4059,2.4059,0,0,0,1.6357.4922,3.8084,3.8084,0,0,0,1.8975-.4663,2.8727,2.8727,0,0,0,1.22-1.2769,4.458,4.458,0,0,0,.2979-1.8457Z"/><path class="d" d="M513.0856,18.0215V2.9893h1.8457V18.0215Z"/><path class="d" d="M526.652,18.0215l-4.1426-10.89h1.9483l2.3379,6.5215q.3793,1.0562.6972,2.1944.2461-.8614.6866-2.0713l2.42-6.6446h1.8974l-4.122,10.89Z"/><path class="d" d="M534.1374,5.1118V2.9893h1.8457V5.1118Zm0,12.91V7.1318h1.8457v10.89Z"/><path class="d" d="M546.2467,14.5146l1.9073.2359a4.6531,4.6531,0,0,1-1.6709,2.5942,5.6622,5.6622,0,0,1-6.9063-.5488,5.7458,5.7458,0,0,1-1.3994-4.127,6.0174,6.0174,0,0,1,1.415-4.2656,4.79,4.79,0,0,1,3.6709-1.5176,4.6554,4.6554,0,0,1,3.5684,1.4869,5.9075,5.9075,0,0,1,1.3838,4.1836c0,.1093-.0029.2734-.01.4921h-8.1211a4.1849,4.1849,0,0,0,1.0147,2.7481,3.0215,3.0215,0,0,0,2.2763.9536,2.8254,2.8254,0,0,0,1.7334-.5332A3.5381,3.5381,0,0,0,546.2467,14.5146Zm-6.06-2.9838h6.08A3.6889,3.6889,0,0,0,545.57,9.47a2.8279,2.8279,0,0,0-2.2862-1.0664,2.9344,2.9344,0,0,0-2.1386.8511A3.37,3.37,0,0,0,540.1872,11.5308Z"/><path class="d" d="M552.4811,18.0215l-3.332-10.89h1.9072l1.7324,6.2857.6465,2.3379q.0411-.1743.5635-2.2456l1.7334-6.378h1.8965l1.6308,6.3164.543,2.0816.626-2.1021,1.8662-6.2959h1.7939l-3.4043,10.89h-1.917L557.0338,11.5l-.42-1.856-2.2051,8.3775Z"/><circle class="e" cx="17.9066" cy="101.4494" r="9.5"/><path class="e" d="M26.8828,112.7972H8.9305a8.9566,8.9566,0,0,0-8.93,8.93V136.715H35.8132V121.7276A8.9566,8.9566,0,0,0,26.8828,112.7972Z"/><rect class="f" x="12.9066" y="120.3922" width="66.7432" height="28.912"/><rect class="g" x="15.0057" y="122.4911" width="62.5452" height="24.7142"/><path class="d" d="M13.7462,121.2318v27.2328H78.81V121.2318Zm56.3616,24.714H22.4488a7.55,7.55,0,0,0-6.1838-6.1836v-9.8279a7.5508,7.5508,0,0,0,6.1838-6.1837H70.1077a7.5507,7.5507,0,0,0,6.1837,6.1836v9.828A7.55,7.55,0,0,0,70.1078,145.9458Z"/><polygon class="h" points="51.687 125.48 40.869 125.48 35.46 134.848 40.869 144.217 51.687 144.217 57.096 134.848 51.687 125.48"/><path class="d" d="M52.1721,145.0564H40.3846l-5.8938-10.2081L40.3846,124.64H52.1721l5.8936,10.2083Zm-10.8179-1.6792h9.8483l4.9241-8.5289-4.9241-8.5291H41.3542L36.43,134.8483Z"/><circle class="d" cx="64.0299" cy="134.8482" r="1.7992"/><circle class="d" cx="28.5266" cy="134.8482" r="1.7992"/><path class="d" d="M48.3322,132.0244a1.8589,1.8589,0,0,0-1.3373-.574,1.97,1.97,0,0,0-1.4292.6,2.7193,2.7193,0,0,0-.7461,1.6329H48.028l-.1263.7748H44.7393v.7519h3.03l-.1263.7748H44.8426a2.9432,2.9432,0,0,0,.7318,1.676,1.9046,1.9046,0,0,0,1.4205.5854,1.724,1.724,0,0,0,1.3373-.5682v1.1881a2.5961,2.5961,0,0,1-1.3258.3328q-2.5539,0-3.1051-3.2141h-.7174l.132-.7748H43.81q-.0117-.1377-.0115-.35v-.4018h-.6141l.132-.7748h.551a3.9961,3.9961,0,0,1,1.0933-2.3475,2.9091,2.9091,0,0,1,2.1036-.8379,2.424,2.424,0,0,1,1.4693.4706Z"/><rect class="f" x="17.5245" y="124.5902" width="66.7432" height="28.912"/><rect class="g" x="19.6235" y="126.6891" width="62.5452" height="24.7142"/><path class="d" d="M18.3641,125.43v27.2329h65.064V125.43Zm56.3615,24.714H27.0666a7.5505,7.5505,0,0,0-6.1837-6.1836v-9.8279a7.5505,7.5505,0,0,0,6.1837-6.1837h47.659a7.5505,7.5505,0,0,0,6.1837,6.1837V143.96A7.5505,7.5505,0,0,0,74.7256,150.1438Z"/><polygon class="h" points="56.305 129.678 45.487 129.678 40.078 139.046 45.487 148.415 56.305 148.415 61.714 139.046 56.305 129.678"/><path class="d" d="M56.79,149.2544H45.0025l-5.8939-10.2081,5.8939-10.2083H56.79l5.8937,10.2083ZM45.972,147.5752H55.82l4.924-8.5289-4.924-8.529H45.972l-4.9243,8.529Z"/><circle class="d" cx="68.6478" cy="139.0462" r="1.7992"/><circle class="d" cx="33.1445" cy="139.0462" r="1.7992"/><path class="d" d="M52.95,136.2224a1.8588,1.8588,0,0,0-1.3373-.5739,1.97,1.97,0,0,0-1.4291.6,2.719,2.719,0,0,0-.7461,1.6329h3.2083l-.1262.7749H49.3571v.7518h3.03l-.1263.7749H49.46a2.9438,2.9438,0,0,0,.7318,1.6759,1.9045,1.9045,0,0,0,1.42.5854,1.7238,1.7238,0,0,0,1.3373-.5682v1.1881a2.5948,2.5948,0,0,1-1.3258.3329q-2.5539,0-3.1051-3.2141h-.7174l.132-.7749h.4936q-.0117-.1377-.0115-.35v-.4017h-.6141l.132-.7749h.551a3.9962,3.9962,0,0,1,1.0934-2.3474,2.9086,2.9086,0,0,1,2.1035-.838,2.4238,2.4238,0,0,1,1.4693.4706Z"/><rect class="f" x="22.1423" y="128.7882" width="66.7432" height="28.912"/><rect class="g" x="24.2413" y="130.8872" width="62.5452" height="24.7142"/><path class="d" d="M22.9819,129.6278v27.2329h65.064V129.6278Zm56.3615,24.7141H31.6845a7.5508,7.5508,0,0,0-6.1838-6.1837V138.33a7.55,7.55,0,0,0,6.1837-6.1836h47.659a7.5505,7.5505,0,0,0,6.1837,6.1836v9.8279A7.5507,7.5507,0,0,0,79.3434,154.3419Z"/><polygon class="h" points="60.923 133.876 50.105 133.876 44.696 143.244 50.105 152.613 60.923 152.613 66.332 143.244 60.923 133.876"/><path class="d" d="M61.4078,153.4524H49.62l-5.8939-10.208L49.62,133.0361H61.4078l5.8936,10.2083ZM50.59,151.7732h9.8484l4.9241-8.5288-4.9241-8.5291H50.59l-4.9242,8.5291Z"/><circle class="d" cx="73.2656" cy="143.2443" r="1.7992"/><circle class="d" cx="37.7623" cy="143.2443" r="1.7992"/><path class="d" d="M57.5679,140.42a1.8589,1.8589,0,0,0-1.3373-.5739,1.97,1.97,0,0,0-1.4292.6,2.7191,2.7191,0,0,0-.7461,1.6328h3.2084l-.1263.7749H53.9749v.7518h3.0305l-.1263.7749H54.0783a2.9435,2.9435,0,0,0,.7317,1.6759,1.9046,1.9046,0,0,0,1.4206.5854,1.724,1.724,0,0,0,1.3373-.5682v1.1881a2.5952,2.5952,0,0,1-1.3259.3329q-2.5538,0-3.105-3.2141H52.42l.132-.7749h.4936q-.0115-.1377-.0114-.35v-.4017H52.42l.132-.7749h.551a3.9968,3.9968,0,0,1,1.0934-2.3474,2.9086,2.9086,0,0,1,2.1035-.838,2.4233,2.4233,0,0,1,1.4693.4707Z"/><circle class="i" cx="272.6294" cy="101.4494" r="9.5"/><path class="i" d="M281.6056,112.7972H263.6533a8.9567,8.9567,0,0,0-8.93,8.93V136.715H290.536V121.7276A8.9566,8.9566,0,0,0,281.6056,112.7972Z"/><rect class="f" x="267.6294" y="120.3922" width="66.7432" height="28.912"/><rect class="g" x="269.7285" y="122.4911" width="62.5452" height="24.7142"/><path class="d" d="M268.469,121.2318v27.2328h65.0641V121.2318Zm56.3616,24.714h-47.659a7.55,7.55,0,0,0-6.1837-6.1836v-9.8279a7.5507,7.5507,0,0,0,6.1837-6.1837h47.659a7.55,7.55,0,0,0,6.1837,6.1836v9.828A7.55,7.55,0,0,0,324.8306,145.9458Z"/><polygon class="h" points="306.41 125.48 295.592 125.48 290.183 134.848 295.592 144.217 306.41 144.217 311.819 134.848 306.41 125.48"/><path class="d" d="M306.8949,145.0564H295.1074l-5.8938-10.2081,5.8938-10.2083h11.7875l5.8936,10.2083Zm-10.8179-1.6792h9.8483l4.9241-8.5289-4.9241-8.5291H296.077l-4.9243,8.5291Z"/><circle class="d" cx="318.7527" cy="134.8482" r="1.7992"/><circle class="d" cx="283.2494" cy="134.8482" r="1.7992"/><path class="d" d="M303.055,132.0244a1.8589,1.8589,0,0,0-1.3373-.574,1.97,1.97,0,0,0-1.4291.6,2.7194,2.7194,0,0,0-.7462,1.6329h3.2084l-.1263.7748h-3.1624v.7519h3.03l-.1262.7748h-2.8009a2.9432,2.9432,0,0,0,.7318,1.676,1.9046,1.9046,0,0,0,1.4205.5854,1.724,1.724,0,0,0,1.3373-.5682v1.1881a2.5958,2.5958,0,0,1-1.3258.3328q-2.5539,0-3.1051-3.2141h-.7174l.132-.7748h.4936q-.0117-.1377-.0115-.35v-.4018h-.6141l.132-.7748h.551a3.9967,3.9967,0,0,1,1.0933-2.3475,2.9091,2.9091,0,0,1,2.1036-.8379,2.4238,2.4238,0,0,1,1.4693.4706Z"/><rect class="f" x="272.2473" y="124.5902" width="66.7432" height="28.912"/><rect class="g" x="274.3463" y="126.6891" width="62.5452" height="24.7142"/><path class="d" d="M273.0869,125.43v27.2329h65.064V125.43Zm56.3615,24.714H281.79a7.5508,7.5508,0,0,0-6.1838-6.1836v-9.8279a7.5505,7.5505,0,0,0,6.1837-6.1837h47.659a7.5505,7.5505,0,0,0,6.1837,6.1837V143.96A7.5507,7.5507,0,0,0,329.4484,150.1438Z"/><polygon class="h" points="311.028 129.678 300.21 129.678 294.801 139.046 300.21 148.415 311.028 148.415 316.437 139.046 311.028 129.678"/><path class="d" d="M311.5127,149.2544H299.7253l-5.8939-10.2081,5.8939-10.2083h11.7874l5.8937,10.2083Zm-10.8179-1.6792h9.8484l4.9241-8.5289-4.9241-8.529h-9.8484l-4.9242,8.529Z"/><circle class="d" cx="323.3706" cy="139.0462" r="1.7992"/><circle class="d" cx="287.8673" cy="139.0462" r="1.7992"/><path class="d" d="M307.6728,136.2224a1.8586,1.8586,0,0,0-1.3373-.5739,1.97,1.97,0,0,0-1.4291.6,2.72,2.72,0,0,0-.7461,1.6329h3.2084l-.1263.7749H304.08v.7518H307.11l-.1263.7749h-2.8009a2.9438,2.9438,0,0,0,.7318,1.6759,1.9045,1.9045,0,0,0,1.4205.5854,1.7238,1.7238,0,0,0,1.3373-.5682v1.1881a2.5946,2.5946,0,0,1-1.3258.3329q-2.5537,0-3.105-3.2141h-.7175l.132-.7749h.4936q-.0117-.1377-.0114-.35v-.4017h-.6142l.132-.7749h.551a3.9962,3.9962,0,0,1,1.0934-2.3474,2.9086,2.9086,0,0,1,2.1035-.838,2.4238,2.4238,0,0,1,1.4693.4706Z"/><rect class="f" x="276.8651" y="128.7882" width="66.7432" height="28.912"/><rect class="g" x="278.9641" y="130.8872" width="62.5452" height="24.7142"/><path class="d" d="M277.7047,129.6278v27.2329h65.0641V129.6278Zm56.3616,24.7141h-47.659a7.5506,7.5506,0,0,0-6.1838-6.1837V138.33a7.5507,7.5507,0,0,0,6.1838-6.1836h47.6589A7.5507,7.5507,0,0,0,340.25,138.33v9.8279A7.55,7.55,0,0,0,334.0663,154.3419Z"/><polygon class="h" points="315.646 133.876 304.828 133.876 299.419 143.244 304.828 152.613 315.646 152.613 321.055 143.244 315.646 133.876"/><path class="d" d="M316.1306,153.4524H304.3431l-5.8938-10.208,5.8938-10.2083h11.7875l5.8936,10.2083Zm-10.8179-1.6792h9.8483l4.9241-8.5288-4.9241-8.5291h-9.8483l-4.9243,8.5291Z"/><circle class="d" cx="327.9884" cy="143.2443" r="1.7992"/><circle class="d" cx="292.4851" cy="143.2443" r="1.7992"/><path class="d" d="M312.2907,140.42a1.8588,1.8588,0,0,0-1.3373-.5739,1.97,1.97,0,0,0-1.4292.6,2.7191,2.7191,0,0,0-.7461,1.6328h3.2084l-.1263.7749h-3.1624v.7518h3.03l-.1263.7749h-2.8008a2.9429,2.9429,0,0,0,.7318,1.6759,1.9042,1.9042,0,0,0,1.4205.5854,1.724,1.724,0,0,0,1.3373-.5682v1.1881a2.5951,2.5951,0,0,1-1.3258.3329q-2.5539,0-3.1051-3.2141h-.7174l.132-.7749h.4936q-.0117-.1377-.0115-.35v-.4017h-.6141l.132-.7749h.551a3.9961,3.9961,0,0,1,1.0933-2.3474,2.9087,2.9087,0,0,1,2.1035-.838,2.4238,2.4238,0,0,1,1.4694.4707Z"/><circle class="j" cx="149.0651" cy="168.905" r="9.5"/><path class="j" d="M158.0412,180.2527H140.0889a8.9567,8.9567,0,0,0-8.93,8.93v14.9873h35.8132V189.1832A8.9567,8.9567,0,0,0,158.0412,180.2527Z"/><rect class="f" x="145.7067" y="187.5333" width="66.7432" height="28.912"/><rect class="g" x="147.8057" y="189.6322" width="62.5452" height="24.7142"/><path class="d" d="M146.5463,188.3729v27.2328H211.61V188.3729Zm56.3615,24.714h-47.659a7.5505,7.5505,0,0,0-6.1837-6.1837v-9.8279a7.55,7.55,0,0,0,6.1837-6.1836h47.659a7.5505,7.5505,0,0,0,6.1837,6.1836v9.8279A7.5505,7.5505,0,0,0,202.9078,213.0869Z"/><polygon class="h" points="184.487 192.621 173.669 192.621 168.26 201.989 173.669 211.358 184.487 211.358 189.896 201.989 184.487 192.621"/><path class="d" d="M184.9721,212.1975H173.1846l-5.8938-10.2081,5.8938-10.2083h11.7875l5.8936,10.2083Zm-10.8179-1.6792h9.8484l4.924-8.5289-4.924-8.5291h-9.8484l-4.9243,8.5291Z"/><circle class="d" cx="196.8299" cy="201.9893" r="1.7992"/><circle class="d" cx="161.3267" cy="201.9893" r="1.7992"/><path class="d" d="M181.1322,199.1655a1.8589,1.8589,0,0,0-1.3373-.574,1.97,1.97,0,0,0-1.4291.6,2.7185,2.7185,0,0,0-.7461,1.6329h3.2083l-.1262.7748h-3.1625v.7519h3.03l-.1262.7748h-2.8009a2.9426,2.9426,0,0,0,.7318,1.6759,1.9046,1.9046,0,0,0,1.4205.5855,1.724,1.724,0,0,0,1.3373-.5682v1.188a2.5948,2.5948,0,0,1-1.3258.3329q-2.5539,0-3.1051-3.2141h-.7174l.132-.7748h.4936q-.0117-.1379-.0115-.35v-.4018h-.6141l.132-.7748h.551a3.9962,3.9962,0,0,1,1.0934-2.3475,2.9085,2.9085,0,0,1,2.1035-.8379,2.4238,2.4238,0,0,1,1.4693.4706Z"/><circle class="e" cx="149.0651" cy="101.675" r="9.5"/><path class="e" d="M158.0412,113.0227H140.0889a8.9567,8.9567,0,0,0-8.93,8.93v14.9873h35.8132V121.9532A8.9567,8.9567,0,0,0,158.0412,113.0227Z"/><rect class="f" x="145.7067" y="120.3033" width="66.7432" height="28.912"/><rect class="g" x="147.8057" y="122.4022" width="62.5452" height="24.7142"/><path class="d" d="M146.5463,121.1429v27.2328H211.61V121.1429Zm56.3615,24.714h-47.659a7.5505,7.5505,0,0,0-6.1837-6.1837v-9.8279a7.55,7.55,0,0,0,6.1837-6.1836h47.659a7.5505,7.5505,0,0,0,6.1837,6.1836v9.8279A7.5505,7.5505,0,0,0,202.9078,145.8569Z"/><polygon class="h" points="184.487 125.391 173.669 125.391 168.26 134.759 173.669 144.128 184.487 144.128 189.896 134.759 184.487 125.391"/><path class="d" d="M184.9721,144.9675H173.1846l-5.8938-10.2081,5.8938-10.2083h11.7875l5.8936,10.2083Zm-10.8179-1.6792h9.8484l4.924-8.5289-4.924-8.5291h-9.8484l-4.9243,8.5291Z"/><circle class="d" cx="196.8299" cy="134.7593" r="1.7992"/><circle class="d" cx="161.3267" cy="134.7593" r="1.7992"/><path class="d" d="M181.1322,131.9355a1.8589,1.8589,0,0,0-1.3373-.574,1.97,1.97,0,0,0-1.4291.6,2.7185,2.7185,0,0,0-.7461,1.6329h3.2083l-.1262.7748h-3.1625v.7519h3.03l-.1262.7748h-2.8009a2.9429,2.9429,0,0,0,.7318,1.6759,1.9046,1.9046,0,0,0,1.4205.5855,1.7237,1.7237,0,0,0,1.3373-.5683v1.1881a2.5948,2.5948,0,0,1-1.3258.3329q-2.5539,0-3.1051-3.2141h-.7174l.132-.7748h.4936q-.0117-.1379-.0115-.35v-.4018h-.6141l.132-.7748h.551a3.9962,3.9962,0,0,1,1.0934-2.3475,2.9086,2.9086,0,0,1,2.1035-.838,2.4239,2.4239,0,0,1,1.4693.4707Z"/><circle class="j" cx="149.0651" cy="34.445" r="9.5"/><path class="j" d="M158.0412,45.7927H140.0889a8.9567,8.9567,0,0,0-8.93,8.93V69.7105h35.8132V54.7232A8.9567,8.9567,0,0,0,158.0412,45.7927Z"/><rect class="f" x="145.7067" y="53.0732" width="66.7432" height="28.912"/><rect class="g" x="147.8057" y="55.1722" width="62.5452" height="24.7142"/><path class="d" d="M146.5463,53.9129V81.1457H211.61V53.9129Zm56.3615,24.714h-47.659a7.5505,7.5505,0,0,0-6.1837-6.1837V62.6153a7.55,7.55,0,0,0,6.1837-6.1836h47.659a7.5505,7.5505,0,0,0,6.1837,6.1836v9.8279A7.5505,7.5505,0,0,0,202.9078,78.6269Z"/><polygon class="h" points="184.487 58.161 173.669 58.161 168.26 67.529 173.669 76.898 184.487 76.898 189.896 67.529 184.487 58.161"/><path class="d" d="M184.9721,77.7375H173.1846l-5.8938-10.2081,5.8938-10.2083h11.7875l5.8936,10.2083Zm-10.8179-1.6793h9.8484l4.924-8.5288L184.0026,59h-9.8484L169.23,67.5294Z"/><circle class="d" cx="196.8299" cy="67.5293" r="1.7992"/><circle class="d" cx="161.3267" cy="67.5293" r="1.7992"/><path class="d" d="M181.1322,64.7054a1.8588,1.8588,0,0,0-1.3373-.5739,1.97,1.97,0,0,0-1.4291.6,2.7185,2.7185,0,0,0-.7461,1.6329h3.2083l-.1262.7748h-3.1625v.7519h3.03l-.1262.7748h-2.8009a2.9429,2.9429,0,0,0,.7318,1.6759,1.9045,1.9045,0,0,0,1.4205.5854,1.724,1.724,0,0,0,1.3373-.5682v1.1881a2.5948,2.5948,0,0,1-1.3258.3329q-2.5539,0-3.1051-3.2141h-.7174l.132-.7748h.4936q-.0117-.1379-.0115-.35V67.139h-.6141l.132-.7748h.551a3.9962,3.9962,0,0,1,1.0934-2.3475,2.9086,2.9086,0,0,1,2.1035-.838,2.4239,2.4239,0,0,1,1.4693.4707Z"/><path class="k" d="M33.4075,96.6911a4.1516,4.1516,0,0,1-3.5956-6.2277l10.04-17.3892a4.1516,4.1516,0,0,1,7.1909,0l10.04,17.3892a4.1516,4.1516,0,0,1-3.5956,6.2277Z"/><path class="f" d="M40.8492,77.1589,33.8481,89.285a3,3,0,0,0,2.5981,4.5H50.4483a3,3,0,0,0,2.5981-4.5L46.0453,77.1589A3,3,0,0,0,40.8492,77.1589Z"/><path class="d" d="M42.2714,90.5972a1.1685,1.1685,0,0,1,1.1758-1.2358,1.2373,1.2373,0,0,1,0,2.4716A1.1684,1.1684,0,0,1,42.2714,90.5972Zm.4981-2.85-.2789-9.5665h1.9133l-.2789,9.5665Z"/><polygon class="d" points="117.368 76.058 106.786 78.894 109.79 81.898 92.772 98.916 94.417 100.56 111.435 83.543 114.532 86.641 117.368 76.058"/><polygon class="d" points="126.327 133.149 116.839 127.671 116.839 131.92 92.772 131.92 92.772 134.246 116.839 134.246 116.839 138.626 126.327 133.149"/><polygon class="d" points="117.321 190.285 114.486 179.703 111.482 182.708 94.464 165.69 92.819 167.335 109.837 184.352 106.739 187.45 117.321 190.285"/><polygon class="d" points="241.428 113.462 238.593 102.88 235.588 105.884 218.571 88.867 216.926 90.512 233.943 107.529 230.846 110.627 241.428 113.462"/><polygon class="d" points="250.387 133.172 240.899 127.694 240.899 131.943 216.833 131.943 216.833 134.269 240.899 134.269 240.899 138.65 250.387 133.172"/><polygon class="d" points="241.381 152.928 230.799 155.764 233.803 158.768 216.786 175.786 218.431 177.431 235.448 160.413 238.546 163.511 241.381 152.928"/><circle class="i" cx="572.7695" cy="101.4494" r="9.5"/><path class="i" d="M581.7456,112.7972H563.7934a8.9566,8.9566,0,0,0-8.9305,8.93V136.715h35.8132V121.7276A8.9566,8.9566,0,0,0,581.7456,112.7972Z"/><rect class="f" x="567.7695" y="120.3922" width="66.7432" height="28.912"/><rect class="g" x="569.8685" y="122.4911" width="62.5452" height="24.7142"/><path class="d" d="M568.6091,121.2318v27.2328h65.064V121.2318Zm56.3615,24.714H577.3117a7.5505,7.5505,0,0,0-6.1838-6.1836v-9.8279a7.5505,7.5505,0,0,0,6.1837-6.1837h47.659a7.55,7.55,0,0,0,6.1837,6.1836v9.828A7.5505,7.5505,0,0,0,624.9706,145.9458Z"/><polygon class="h" points="606.55 125.48 595.732 125.48 590.323 134.848 595.732 144.217 606.55 144.217 611.959 134.848 606.55 125.48"/><path class="d" d="M607.035,145.0564H595.2475l-5.8939-10.2081,5.8939-10.2083H607.035l5.8936,10.2083Zm-10.818-1.6792h9.8484l4.9241-8.5289-4.9241-8.5291H596.217l-4.9242,8.5291Z"/><circle class="d" cx="618.8928" cy="134.8482" r="1.7992"/><circle class="d" cx="583.3895" cy="134.8482" r="1.7992"/><path class="d" d="M603.1951,132.0244a1.8591,1.8591,0,0,0-1.3373-.574,1.97,1.97,0,0,0-1.4292.6,2.7193,2.7193,0,0,0-.7461,1.6329h3.2084l-.1263.7748h-3.1625v.7519h3.0305l-.1263.7748h-2.8009a2.9438,2.9438,0,0,0,.7318,1.676,1.9049,1.9049,0,0,0,1.4206.5854,1.724,1.724,0,0,0,1.3373-.5682v1.1881a2.5962,2.5962,0,0,1-1.3259.3328q-2.5537,0-3.105-3.2141h-.7175l.132-.7748h.4936q-.0115-.1377-.0114-.35v-.4018h-.6142l.132-.7748h.551a3.9968,3.9968,0,0,1,1.0934-2.3475,2.9089,2.9089,0,0,1,2.1035-.8379,2.4238,2.4238,0,0,1,1.4693.4706Z"/><rect class="f" x="572.3873" y="124.5902" width="66.7432" height="28.912"/><rect class="g" x="574.4864" y="126.6891" width="62.5452" height="24.7142"/><path class="d" d="M573.2269,125.43v27.2329H638.291V125.43Zm56.3616,24.714H581.93a7.5505,7.5505,0,0,0-6.1837-6.1836v-9.8279a7.5505,7.5505,0,0,0,6.1837-6.1837h47.659a7.5505,7.5505,0,0,0,6.1837,6.1837V143.96A7.5505,7.5505,0,0,0,629.5885,150.1438Z"/><polygon class="h" points="611.168 129.678 600.35 129.678 594.941 139.046 600.35 148.415 611.168 148.415 616.577 139.046 611.168 129.678"/><path class="d" d="M611.6528,149.2544H599.8653l-5.8938-10.2081,5.8938-10.2083h11.7875l5.8936,10.2083Zm-10.8179-1.6792h9.8483l4.9241-8.5289-4.9241-8.529h-9.8483l-4.9243,8.529Z"/><circle class="d" cx="623.5106" cy="139.0462" r="1.7992"/><circle class="d" cx="588.0073" cy="139.0462" r="1.7992"/><path class="d" d="M607.8129,136.2224a1.8588,1.8588,0,0,0-1.3373-.5739,1.97,1.97,0,0,0-1.4291.6,2.72,2.72,0,0,0-.7462,1.6329h3.2084l-.1263.7749H604.22v.7518h3.03l-.1262.7749h-2.8009a2.9432,2.9432,0,0,0,.7318,1.6759,1.9042,1.9042,0,0,0,1.42.5854,1.724,1.724,0,0,0,1.3373-.5682v1.1881a2.5948,2.5948,0,0,1-1.3258.3329q-2.5539,0-3.1051-3.2141h-.7174l.132-.7749h.4936q-.0117-.1377-.0115-.35v-.4017h-.6141l.132-.7749h.551a3.9962,3.9962,0,0,1,1.0934-2.3474,2.9086,2.9086,0,0,1,2.1035-.838,2.4238,2.4238,0,0,1,1.4693.4706Z"/><rect class="f" x="577.0052" y="128.7882" width="66.7432" height="28.912"/><rect class="g" x="579.1042" y="130.8872" width="62.5452" height="24.7142"/><path class="d" d="M577.8448,129.6278v27.2329h65.064V129.6278Zm56.3615,24.7141h-47.659a7.5505,7.5505,0,0,0-6.1837-6.1837V138.33a7.55,7.55,0,0,0,6.1837-6.1836h47.659A7.5505,7.5505,0,0,0,640.39,138.33v9.8279A7.5505,7.5505,0,0,0,634.2063,154.3419Z"/><polygon class="h" points="615.786 133.876 604.968 133.876 599.559 143.244 604.968 152.613 615.786 152.613 621.195 143.244 615.786 133.876"/><path class="d" d="M616.2706,153.4524H604.4832l-5.8939-10.208,5.8939-10.2083h11.7874l5.8937,10.2083Zm-10.8179-1.6792h9.8484l4.924-8.5288-4.924-8.5291h-9.8484l-4.9242,8.5291Z"/><circle class="d" cx="628.1285" cy="143.2443" r="1.7992"/><circle class="d" cx="592.6252" cy="143.2443" r="1.7992"/><path class="d" d="M612.4307,140.42a1.8588,1.8588,0,0,0-1.3373-.5739,1.97,1.97,0,0,0-1.4291.6,2.7185,2.7185,0,0,0-.7461,1.6328h3.2083L612,142.854h-3.1625v.7518h3.03l-.1263.7749h-2.8009a2.9435,2.9435,0,0,0,.7318,1.6759,1.9045,1.9045,0,0,0,1.42.5854,1.7238,1.7238,0,0,0,1.3373-.5682v1.1881a2.5948,2.5948,0,0,1-1.3258.3329q-2.5539,0-3.105-3.2141h-.7175l.132-.7749h.4936q-.0117-.1377-.0115-.35v-.4017h-.6141l.132-.7749h.551a3.9962,3.9962,0,0,1,1.0934-2.3474,2.9086,2.9086,0,0,1,2.1035-.838,2.4233,2.4233,0,0,1,1.4693.4707Z"/><circle class="j" cx="449.2051" cy="168.905" r="9.5"/><path class="j" d="M458.1813,180.2527H440.229a8.9568,8.9568,0,0,0-8.93,8.93v14.9873h35.8132V189.1832A8.9567,8.9567,0,0,0,458.1813,180.2527Z"/><rect class="f" x="445.8467" y="187.5333" width="66.7432" height="28.912"/><rect class="g" x="447.9457" y="189.6322" width="62.5452" height="24.7142"/><path class="d" d="M446.6863,188.3729v27.2328H511.75V188.3729Zm56.3616,24.714h-47.659a7.5506,7.5506,0,0,0-6.1838-6.1837v-9.8279a7.5505,7.5505,0,0,0,6.1838-6.1836h47.6589a7.5507,7.5507,0,0,0,6.1837,6.1836v9.8279A7.55,7.55,0,0,0,503.0479,213.0869Z"/><polygon class="h" points="484.627 192.621 473.809 192.621 468.4 201.989 473.809 211.358 484.627 211.358 490.036 201.989 484.627 192.621"/><path class="d" d="M485.1122,212.1975H473.3247l-5.8938-10.2081,5.8938-10.2083h11.7875l5.8936,10.2083Zm-10.8179-1.6792h9.8483l4.9241-8.5289-4.9241-8.5291h-9.8483l-4.9243,8.5291Z"/><circle class="d" cx="496.97" cy="201.9893" r="1.7992"/><circle class="d" cx="461.4667" cy="201.9893" r="1.7992"/><path class="d" d="M481.2723,199.1655a1.8589,1.8589,0,0,0-1.3373-.574,1.97,1.97,0,0,0-1.4292.6,2.7191,2.7191,0,0,0-.7461,1.6329h3.2084l-.1263.7748h-3.1624v.7519h3.03l-.1263.7748h-2.8008a2.9426,2.9426,0,0,0,.7318,1.6759,1.9043,1.9043,0,0,0,1.4205.5855,1.724,1.724,0,0,0,1.3373-.5682v1.188a2.5951,2.5951,0,0,1-1.3258.3329q-2.5539,0-3.1051-3.2141h-.7174l.132-.7748h.4936q-.0117-.1379-.0115-.35v-.4018h-.6141l.132-.7748h.551a3.9961,3.9961,0,0,1,1.0933-2.3475,2.9087,2.9087,0,0,1,2.1036-.8379,2.4243,2.4243,0,0,1,1.4693.4706Z"/><circle class="e" cx="449.2051" cy="101.675" r="9.5"/><path class="e" d="M458.1813,113.0227H440.229a8.9568,8.9568,0,0,0-8.93,8.93v14.9873h35.8132V121.9532A8.9567,8.9567,0,0,0,458.1813,113.0227Z"/><rect class="f" x="445.8467" y="120.3033" width="66.7432" height="28.912"/><rect class="g" x="447.9457" y="122.4022" width="62.5452" height="24.7142"/><path class="d" d="M446.6863,121.1429v27.2328H511.75V121.1429Zm56.3616,24.714h-47.659a7.5506,7.5506,0,0,0-6.1838-6.1837v-9.8279a7.5505,7.5505,0,0,0,6.1838-6.1836h47.6589a7.5507,7.5507,0,0,0,6.1837,6.1836v9.8279A7.55,7.55,0,0,0,503.0479,145.8569Z"/><polygon class="h" points="484.627 125.391 473.809 125.391 468.4 134.759 473.809 144.128 484.627 144.128 490.036 134.759 484.627 125.391"/><path class="d" d="M485.1122,144.9675H473.3247l-5.8938-10.2081,5.8938-10.2083h11.7875l5.8936,10.2083Zm-10.8179-1.6792h9.8483l4.9241-8.5289-4.9241-8.5291h-9.8483l-4.9243,8.5291Z"/><circle class="d" cx="496.97" cy="134.7593" r="1.7992"/><circle class="d" cx="461.4667" cy="134.7593" r="1.7992"/><path class="d" d="M481.2723,131.9355a1.8589,1.8589,0,0,0-1.3373-.574,1.97,1.97,0,0,0-1.4292.6,2.7191,2.7191,0,0,0-.7461,1.6329h3.2084l-.1263.7748h-3.1624v.7519h3.03l-.1263.7748h-2.8008a2.9429,2.9429,0,0,0,.7318,1.6759,1.9043,1.9043,0,0,0,1.4205.5855,1.7237,1.7237,0,0,0,1.3373-.5683v1.1881a2.5951,2.5951,0,0,1-1.3258.3329q-2.5539,0-3.1051-3.2141h-.7174l.132-.7748h.4936q-.0117-.1379-.0115-.35v-.4018h-.6141l.132-.7748h.551a3.9961,3.9961,0,0,1,1.0933-2.3475,2.9088,2.9088,0,0,1,2.1036-.838,2.4243,2.4243,0,0,1,1.4693.4707Z"/><circle class="j" cx="449.2051" cy="34.445" r="9.5"/><path class="j" d="M458.1813,45.7927H440.229a8.9568,8.9568,0,0,0-8.93,8.93V69.7105h35.8132V54.7232A8.9567,8.9567,0,0,0,458.1813,45.7927Z"/><rect class="f" x="445.8467" y="53.0732" width="66.7432" height="28.912"/><rect class="g" x="447.9457" y="55.1722" width="62.5452" height="24.7142"/><path class="d" d="M446.6863,53.9129V81.1457H511.75V53.9129Zm56.3616,24.714h-47.659a7.5506,7.5506,0,0,0-6.1838-6.1837V62.6153a7.5505,7.5505,0,0,0,6.1838-6.1836h47.6589a7.5507,7.5507,0,0,0,6.1837,6.1836v9.8279A7.55,7.55,0,0,0,503.0479,78.6269Z"/><polygon class="h" points="484.627 58.161 473.809 58.161 468.4 67.529 473.809 76.898 484.627 76.898 490.036 67.529 484.627 58.161"/><path class="d" d="M485.1122,77.7375H473.3247l-5.8938-10.2081,5.8938-10.2083h11.7875l5.8936,10.2083Zm-10.8179-1.6793h9.8483l4.9241-8.5288L484.1426,59h-9.8483L469.37,67.5294Z"/><circle class="d" cx="496.97" cy="67.5293" r="1.7992"/><circle class="d" cx="461.4667" cy="67.5293" r="1.7992"/><path class="d" d="M481.2723,64.7054a1.8588,1.8588,0,0,0-1.3373-.5739,1.97,1.97,0,0,0-1.4292.6,2.7191,2.7191,0,0,0-.7461,1.6329h3.2084l-.1263.7748h-3.1624v.7519h3.03l-.1263.7748h-2.8008a2.9429,2.9429,0,0,0,.7318,1.6759,1.9042,1.9042,0,0,0,1.4205.5854,1.724,1.724,0,0,0,1.3373-.5682v1.1881a2.5951,2.5951,0,0,1-1.3258.3329q-2.5539,0-3.1051-3.2141h-.7174l.132-.7748h.4936q-.0117-.1379-.0115-.35V67.139h-.6141l.132-.7748h.551A3.9961,3.9961,0,0,1,477.9,64.0167a2.9088,2.9088,0,0,1,2.1036-.838,2.4243,2.4243,0,0,1,1.4693.4707Z"/><polygon class="d" points="541.568 113.462 538.733 102.88 535.728 105.884 518.711 88.867 517.066 90.512 534.083 107.529 530.986 110.627 541.568 113.462"/><polygon class="d" points="550.527 133.172 541.039 127.694 541.039 131.943 516.973 131.943 516.973 134.269 541.039 134.269 541.039 138.65 550.527 133.172"/><polygon class="d" points="541.521 152.928 530.939 155.764 533.944 158.768 516.926 175.786 518.571 177.431 535.588 160.413 538.686 163.511 541.521 152.928"/><polygon class="l" points="420.811 71.998 411.323 66.52 411.323 70.769 387.257 70.769 387.257 73.096 411.323 73.096 411.323 77.476 420.811 71.998"/><path class="l" d="M368.39,82.7031a3.004,3.004,0,0,0-.0479,6,3.004,3.004,0,0,0,.0479-6Z"/><path class="l" d="M369.1093,55.293a12.5873,12.5873,0,0,0-6.8643,1.92l1.1524,3.0244a8.5322,8.5322,0,0,1,4.8486-1.4883c3.0235.0483,4.56,1.68,4.56,4.1284,0,2.16-1.2,4.0327-3.36,6.5767-2.3994,2.88-3.2636,5.7124-2.9755,8.3047l.0957,1.248H370.31l-.0479-1.248c-.1435-2.4483.6241-4.56,2.7364-7.0567,2.3037-2.7363,4.1279-5.0883,4.1279-8.3525C377.1259,58.7012,374.63,55.293,369.1093,55.293Z"/><polygon class="l" points="420.811 132.96 411.323 127.482 411.323 131.731 387.257 131.731 387.257 134.057 411.323 134.057 411.323 138.438 420.811 132.96"/><path class="l" d="M369.0429,143.665a3.0039,3.0039,0,0,0-.0479,6,3.0039,3.0039,0,0,0,.0479-6Z"/><path class="l" d="M369.7626,116.2548a12.5877,12.5877,0,0,0-6.8642,1.92l1.1523,3.0244a8.5321,8.5321,0,0,1,4.8486-1.4882c3.0235.0483,4.56,1.68,4.56,4.1284,0,2.16-1.2,4.0327-3.36,6.5766-2.3995,2.88-3.2637,5.7124-2.9756,8.3047l.0957,1.2481h3.7441l-.0478-1.2481c-.1436-2.4482.624-4.56,2.7363-7.0566,2.3037-2.7363,4.1279-5.0884,4.1279-8.3526C377.7792,119.663,375.2831,116.2548,369.7626,116.2548Z"/><polygon class="l" points="420.811 193.922 411.323 188.444 411.323 192.693 387.257 192.693 387.257 195.019 411.323 195.019 411.323 199.4 420.811 193.922"/><path class="l" d="M372.0488,177.2167a12.587,12.587,0,0,0-6.8643,1.92l1.1523,3.0244a8.5325,8.5325,0,0,1,4.8487-1.4883c3.0234.0484,4.56,1.68,4.56,4.1284,0,2.16-1.2,4.0327-3.36,6.5767-2.3994,2.88-3.2637,5.7124-2.9756,8.3047l.0957,1.248h3.7442l-.0479-1.248c-.1436-2.4483.624-4.56,2.7363-7.0567,2.3037-2.7363,4.128-5.0883,4.128-8.3525C380.0654,180.6249,377.5693,177.2167,372.0488,177.2167Z"/><path class="l" d="M371.329,204.6268a3.004,3.004,0,0,0-.0478,6,3.004,3.004,0,0,0,.0478-6Z"/></svg>